G04*
G04 #@! TF.GenerationSoftware,Altium Limited,CircuitStudio,1.5.2 (30)*
G04*
G04 Layer_Color=13948096*
%FSLAX44Y44*%
%MOMM*%
G71*
G01*
G75*
%ADD18C,0.2540*%
%ADD31C,0.1270*%
%ADD32C,0.1800*%
%ADD48C,0.3048*%
D18*
X648000Y1115000D02*
Y1132500D01*
X613500Y1114750D02*
Y1132250D01*
X687500Y1115000D02*
Y1132500D01*
X582500Y1115000D02*
Y1132500D01*
X547500Y1115000D02*
Y1132500D01*
X730000Y830000D02*
X741250Y841250D01*
Y897500D01*
X726250Y912500D02*
X741250Y897500D01*
X497500Y912500D02*
X726250D01*
X490000Y920000D02*
X497500Y912500D01*
X460000D02*
X510000Y862500D01*
X460000Y920000D02*
X460000D01*
X460000Y912500D02*
Y920000D01*
X510000Y862500D02*
X715000D01*
X407500Y1042500D02*
Y1065000D01*
X386250Y1036250D02*
X431250D01*
X386250D02*
Y1072500D01*
X431250D01*
Y1036250D02*
Y1072500D01*
X503750Y920000D02*
X695000D01*
X503750D02*
Y950000D01*
X695000D01*
Y920000D02*
Y950000D01*
X445000Y920000D02*
X460000D01*
X445000D02*
Y950000D01*
X460000D01*
Y920000D02*
Y950000D01*
X475000Y920000D02*
X490000D01*
X475000D02*
Y950000D01*
X490000D01*
Y920000D02*
Y950000D01*
X730000Y800000D02*
Y830000D01*
X715000D02*
X730000D01*
X715000Y800000D02*
Y830000D01*
Y800000D02*
X730000D01*
Y862500D02*
Y892500D01*
X715000D02*
X730000D01*
X715000Y862500D02*
Y892500D01*
Y862500D02*
X730000D01*
X407500Y1087500D02*
Y1101250D01*
X396250Y1087500D02*
X420000D01*
X441250Y1072500D02*
Y1103750D01*
X375000D02*
X441250D01*
X375000Y1072500D02*
Y1103750D01*
Y1072500D02*
X441250D01*
X710000Y955000D02*
X715000Y950000D01*
X707500Y957500D02*
X710000Y955000D01*
X715000Y920000D02*
X730000D01*
X715000D02*
Y950000D01*
X730000D01*
Y920000D02*
Y950000D01*
X520000Y1075000D02*
Y1106250D01*
X505000D02*
X520000D01*
X505000Y1075000D02*
Y1106250D01*
Y1075000D02*
X520000D01*
X537500Y1042500D02*
Y1072500D01*
X522500D02*
X537500D01*
X522500Y1042500D02*
Y1072500D01*
Y1042500D02*
X537500D01*
X555000Y1076250D02*
Y1106250D01*
X540000D02*
X555000D01*
X540000Y1075000D02*
Y1106250D01*
Y1076250D02*
X555000D01*
X572500Y1042500D02*
Y1072500D01*
X557500D02*
X572500D01*
X557500Y1042500D02*
Y1072500D01*
Y1042500D02*
X572500D01*
X627500Y1042500D02*
X642500D01*
X627500D02*
Y1072500D01*
X642500D01*
Y1042500D02*
Y1072500D01*
X610000Y1076250D02*
X625000D01*
X610000D02*
Y1106250D01*
X625000D01*
Y1076250D02*
Y1106250D01*
X592500Y1042500D02*
X607500D01*
X592500D02*
Y1072500D01*
X607500D01*
Y1042500D02*
Y1072500D01*
X577500Y1077500D02*
X587500D01*
X575000D02*
Y1106250D01*
X590000D01*
Y1077500D02*
Y1106250D01*
X697500Y1041250D02*
X712500D01*
X697500D02*
Y1071250D01*
X712500D01*
Y1041250D02*
Y1071250D01*
X680000Y1075000D02*
X695000D01*
X680000D02*
Y1106250D01*
X695000D01*
X662500Y1041250D02*
X677500D01*
X662500D02*
Y1071250D01*
X677500D01*
Y1041250D02*
Y1071250D01*
X645000Y1076250D02*
X660000D01*
X645000D02*
Y1106250D01*
X660000D01*
Y1076250D02*
Y1106250D01*
X697500Y1040000D02*
Y1041250D01*
Y1040000D02*
X707500Y1030000D01*
Y1022500D02*
Y1030000D01*
Y957500D02*
Y1030000D01*
X697500Y1071250D02*
Y1072500D01*
X695000Y1075000D02*
X697500Y1072500D01*
X681250Y1075000D02*
X695000D01*
X677500Y1071250D02*
X681250Y1075000D01*
X665000Y1071250D02*
X677500D01*
X660000Y1076250D02*
X665000Y1071250D01*
X646250Y1076250D02*
X660000D01*
X642500Y1072500D02*
X646250Y1076250D01*
X628750Y1072500D02*
X642500D01*
X625000Y1076250D02*
X628750Y1072500D01*
X611250Y1076250D02*
X625000D01*
X607500Y1072500D02*
X611250Y1076250D01*
X592500Y1072500D02*
X607500D01*
X572500Y1072500D02*
X577500Y1077500D01*
X558750Y1072500D02*
X572500D01*
X555000Y1076250D02*
X558750Y1072500D01*
X540000Y1076250D02*
X555000D01*
X537500Y1072500D02*
X540000Y1075000D01*
X430000Y1182500D02*
X505000Y1107500D01*
X522500Y1072500D02*
Y1072500D01*
X520000Y1075000D02*
X522500Y1072500D01*
X515000Y1138750D02*
X725000D01*
X515000Y1110000D02*
Y1138750D01*
Y1110000D02*
X725000D01*
Y1138750D01*
X587500Y1077500D02*
X592500Y1072500D01*
X587500Y1077500D02*
X590000D01*
X575000D02*
X578750D01*
X695000Y1075000D02*
Y1106250D01*
X725000Y1110000D02*
X733750D01*
Y1035000D02*
Y1110000D01*
X711250Y1035000D02*
X733750D01*
X498750D02*
X693750D01*
X498750D02*
Y1105000D01*
X507500Y1110000D02*
X515000D01*
X724620Y779946D02*
X729185D01*
X726902D01*
Y768533D01*
X729185Y766250D01*
X731467D01*
X733750Y768533D01*
X717772Y766250D02*
X713207D01*
X710924Y768533D01*
Y773098D01*
X713207Y775380D01*
X717772D01*
X720054Y773098D01*
Y768533D01*
X717772Y766250D01*
X706359Y775380D02*
Y766250D01*
Y770815D01*
X704076Y773098D01*
X701794Y775380D01*
X699511D01*
X692663Y766250D02*
X688098D01*
X690381D01*
Y775380D01*
X692663D01*
X681250Y766250D02*
Y779946D01*
Y770815D02*
X674402Y775380D01*
X681250Y770815D02*
X674402Y766250D01*
X653859Y779946D02*
Y766250D01*
X649294Y770815D01*
X644729Y766250D01*
Y779946D01*
X640163Y766250D02*
X635598D01*
X637881D01*
Y775380D01*
X640163D01*
X626468Y777663D02*
Y775380D01*
X628751D01*
X624185D01*
X626468D01*
Y768533D01*
X624185Y766250D01*
X615055Y777663D02*
Y775380D01*
X617338D01*
X612772D01*
X615055D01*
Y768533D01*
X612772Y766250D01*
X599077D02*
X603642D01*
X605925Y768533D01*
Y773098D01*
X603642Y775380D01*
X599077D01*
X596794Y773098D01*
Y770815D01*
X605925D01*
X592229Y775380D02*
X587664Y766250D01*
X583099Y775380D01*
X578533D02*
Y766250D01*
Y770815D01*
X576251Y773098D01*
X573968Y775380D01*
X571686D01*
X562555Y766250D02*
X557990D01*
X555708Y768533D01*
Y773098D01*
X557990Y775380D01*
X562555D01*
X564838Y773098D01*
Y768533D01*
X562555Y766250D01*
X551142D02*
Y775380D01*
X544295D01*
X542012Y773098D01*
Y766250D01*
X532882Y761685D02*
X530599D01*
X528316Y763967D01*
Y775380D01*
X535164D01*
X537447Y773098D01*
Y768533D01*
X535164Y766250D01*
X528316D01*
X516903D02*
X521469D01*
X523751Y768533D01*
Y773098D01*
X521469Y775380D01*
X516903D01*
X514621Y773098D01*
Y770815D01*
X523751D01*
X510056Y766250D02*
X505490D01*
X507773D01*
Y779946D01*
X510056D01*
D31*
X423900Y1100750D02*
X426100D01*
X423900Y1091750D02*
X426100D01*
X388900Y1100750D02*
X391100D01*
X388900Y1091750D02*
X391100D01*
X460500Y790950D02*
Y836550D01*
X497000Y792250D02*
Y835250D01*
X448000Y933900D02*
Y936100D01*
X457000Y933900D02*
Y936100D01*
X478000Y933900D02*
Y936100D01*
X487000Y933900D02*
Y936100D01*
X727000Y933900D02*
Y936100D01*
X718000Y933900D02*
Y936100D01*
X406980Y1075490D02*
X409180D01*
X406980Y1084490D02*
X409180D01*
X398930Y1052890D02*
Y1055090D01*
X389930Y1052890D02*
Y1055090D01*
X426230Y1052990D02*
Y1055190D01*
X417230Y1052990D02*
Y1055190D01*
X648080Y1091390D02*
Y1093590D01*
X657080Y1091390D02*
Y1093590D01*
X613080Y1091390D02*
Y1093590D01*
X622080Y1091390D02*
Y1093590D01*
X578080Y1091390D02*
Y1093590D01*
X587080Y1091390D02*
Y1093590D01*
X543080Y1091390D02*
Y1093590D01*
X552080Y1091390D02*
Y1093590D01*
X508000Y1091400D02*
Y1093600D01*
X517000Y1091400D02*
Y1093600D01*
X692080Y1056390D02*
Y1058590D01*
X683080Y1056390D02*
Y1058590D01*
X657080Y1056390D02*
Y1058590D01*
X648080Y1056390D02*
Y1058590D01*
X622080Y1056390D02*
Y1058590D01*
X613080Y1056390D02*
Y1058590D01*
X587080Y1056390D02*
Y1058590D01*
X578080Y1056390D02*
Y1058590D01*
X552080Y1056390D02*
Y1058590D01*
X543080Y1056390D02*
Y1058590D01*
X517080Y1056390D02*
Y1058590D01*
X508080Y1056390D02*
Y1058590D01*
X695080Y1131240D02*
X700080D01*
X695080Y1121240D02*
Y1131240D01*
X710080D02*
X715080D01*
Y1121240D02*
Y1131240D01*
X660080D02*
X665080D01*
X660080Y1121240D02*
Y1131240D01*
X675080D02*
X680080D01*
Y1121240D02*
Y1131240D01*
X625080D02*
X630080D01*
X625080Y1121240D02*
Y1131240D01*
X640080D02*
X645080D01*
Y1121240D02*
Y1131240D01*
X590080D02*
X595080D01*
X590080Y1121240D02*
Y1131240D01*
X605080D02*
X610080D01*
Y1121240D02*
Y1131240D01*
X555080D02*
X560080D01*
X555080Y1121240D02*
Y1131240D01*
X570080D02*
X575080D01*
Y1121240D02*
Y1131240D01*
X520080D02*
X525080D01*
X520080Y1121240D02*
Y1131240D01*
X535080D02*
X540080D01*
Y1121240D02*
Y1131240D01*
X700580Y1056390D02*
Y1058590D01*
X709580Y1056390D02*
Y1058590D01*
X665580Y1056390D02*
Y1058590D01*
X674580Y1056390D02*
Y1058590D01*
X630580Y1056390D02*
Y1058590D01*
X639580Y1056390D02*
Y1058590D01*
X595580Y1056390D02*
Y1058590D01*
X604580Y1056390D02*
Y1058590D01*
X560580Y1056390D02*
Y1058590D01*
X569580Y1056390D02*
Y1058590D01*
X525580Y1056390D02*
Y1058590D01*
X534580Y1056390D02*
Y1058590D01*
X709580Y1091390D02*
Y1093590D01*
X700580Y1091390D02*
Y1093590D01*
X674580Y1091390D02*
Y1093590D01*
X665580Y1091390D02*
Y1093590D01*
X639580Y1091390D02*
Y1093590D01*
X630580Y1091390D02*
Y1093590D01*
X604580Y1091390D02*
Y1093590D01*
X595580Y1091390D02*
Y1093590D01*
X569580Y1091390D02*
Y1093590D01*
X560580Y1091390D02*
Y1093590D01*
X534580Y1091390D02*
Y1093590D01*
X525580Y1091390D02*
Y1093590D01*
X692080Y933890D02*
Y936090D01*
X683080Y933890D02*
Y936090D01*
X657080Y933890D02*
Y936090D01*
X648080Y933890D02*
Y936090D01*
X622080Y933890D02*
Y936090D01*
X613080Y933890D02*
Y936090D01*
X587080Y933890D02*
Y936090D01*
X578080Y933890D02*
Y936090D01*
X552080Y933890D02*
Y936090D01*
X543080Y933890D02*
Y936090D01*
X517080Y933890D02*
Y936090D01*
X508080Y933890D02*
Y936090D01*
X727080Y1056390D02*
Y1058590D01*
X718080Y1056390D02*
Y1058590D01*
X683000Y1091400D02*
Y1093600D01*
X692000Y1091400D02*
Y1093600D01*
X718080Y813890D02*
Y816090D01*
X727080Y813890D02*
Y816090D01*
Y876390D02*
Y878590D01*
X718080Y876390D02*
Y878590D01*
D32*
X715000Y1143750D02*
Y1153747D01*
X708335Y1143750D01*
Y1153747D01*
X705003Y1148748D02*
X698339D01*
X693340Y1143750D02*
Y1152081D01*
Y1148748D01*
X695006D01*
X691674D01*
X693340D01*
Y1152081D01*
X691674Y1153747D01*
X681677Y1143750D02*
X685010D01*
X686676Y1145416D01*
Y1148748D01*
X685010Y1150415D01*
X681677D01*
X680011Y1148748D01*
Y1147082D01*
X686676D01*
X675013Y1152081D02*
Y1150415D01*
X676679D01*
X673347D01*
X675013D01*
Y1145416D01*
X673347Y1143750D01*
X695000Y953750D02*
X702069Y960819D01*
X698534Y964353D01*
X696178D01*
X693822Y961997D01*
Y959641D01*
X697356Y956106D01*
X695000Y958463D02*
X690287D01*
X685575Y958463D02*
X692644Y965531D01*
X689109Y969066D01*
X686753D01*
X684397Y966709D01*
Y964353D01*
X687931Y960819D01*
X685575Y972600D02*
X682041Y969066D01*
X679684D01*
X676150Y972600D01*
X680862Y977313D01*
X673794Y974956D02*
Y984381D01*
X664369Y979669D02*
X671437Y986738D01*
X667903Y990272D01*
X665547D01*
X663191Y987916D01*
X663190Y985560D01*
X666725Y982025D01*
X662012Y1000875D02*
X654943Y993807D01*
X658478Y990272D01*
X660834D01*
X663190Y992628D01*
X663190Y994985D01*
X659656Y998519D01*
X430000Y1021250D02*
Y1031247D01*
X425002D01*
X423335Y1029581D01*
Y1026248D01*
X425002Y1024582D01*
X430000D01*
X426668D02*
X423335Y1021250D01*
X420003D02*
X415005D01*
X413339Y1022916D01*
X415005Y1024582D01*
X418337D01*
X420003Y1026248D01*
X418337Y1027915D01*
X413339D01*
X405008Y1021250D02*
Y1031247D01*
X410006Y1026248D01*
X403342D01*
X400010Y1029581D02*
X398344Y1031247D01*
X395011D01*
X393345Y1029581D01*
Y1027915D01*
X395011Y1026248D01*
X393345Y1024582D01*
Y1022916D01*
X395011Y1021250D01*
X398344D01*
X400010Y1022916D01*
Y1024582D01*
X398344Y1026248D01*
X400010Y1027915D01*
Y1029581D01*
X398344Y1026248D02*
X395011D01*
X383348Y1031247D02*
X390013D01*
Y1026248D01*
X386681Y1027915D01*
X385014D01*
X383348Y1026248D01*
Y1022916D01*
X385014Y1021250D01*
X388347D01*
X390013Y1022916D01*
X380016Y1019584D02*
X373352D01*
X365021Y1021250D02*
X368353D01*
X370019Y1022916D01*
Y1026248D01*
X368353Y1027915D01*
X365021D01*
X363355Y1026248D01*
Y1024582D01*
X370019D01*
X360023Y1021250D02*
Y1027915D01*
X355024D01*
X353358Y1026248D01*
Y1021250D01*
X708750Y882497D02*
Y872500D01*
X703752D01*
X702085Y874166D01*
Y875832D01*
X703752Y877498D01*
X708750D01*
X703752D01*
X702085Y879165D01*
Y880831D01*
X703752Y882497D01*
X708750D01*
X698753Y879165D02*
Y874166D01*
X697087Y872500D01*
X692089D01*
Y879165D01*
X687090Y880831D02*
Y879165D01*
X688756D01*
X685424D01*
X687090D01*
Y874166D01*
X685424Y872500D01*
X678760Y880831D02*
Y879165D01*
X680426D01*
X677094D01*
X678760D01*
Y874166D01*
X677094Y872500D01*
X670429D02*
X667097D01*
X665431Y874166D01*
Y877498D01*
X667097Y879165D01*
X670429D01*
X672095Y877498D01*
Y874166D01*
X670429Y872500D01*
X662098D02*
Y879165D01*
X657100D01*
X655434Y877498D01*
Y872500D01*
X652102Y870834D02*
X645437D01*
X642105Y869168D02*
Y879165D01*
X637106D01*
X635440Y877498D01*
Y874166D01*
X637106Y872500D01*
X642105D01*
X625443Y882497D02*
Y872500D01*
X630442D01*
X632108Y874166D01*
Y877498D01*
X630442Y879165D01*
X625443D01*
X708750Y821247D02*
Y811250D01*
X703752D01*
X702085Y812916D01*
Y814582D01*
X703752Y816248D01*
X708750D01*
X703752D01*
X702085Y817915D01*
Y819581D01*
X703752Y821247D01*
X708750D01*
X698753Y817915D02*
Y812916D01*
X697087Y811250D01*
X692089D01*
Y817915D01*
X687090Y819581D02*
Y817915D01*
X688756D01*
X685424D01*
X687090D01*
Y812916D01*
X685424Y811250D01*
X678760Y819581D02*
Y817915D01*
X680426D01*
X677094D01*
X678760D01*
Y812916D01*
X677094Y811250D01*
X670429D02*
X667097D01*
X665431Y812916D01*
Y816248D01*
X667097Y817915D01*
X670429D01*
X672095Y816248D01*
Y812916D01*
X670429Y811250D01*
X662098D02*
Y817915D01*
X657100D01*
X655434Y816248D01*
Y811250D01*
X652102Y809584D02*
X645437D01*
X642105Y807918D02*
Y817915D01*
X637106D01*
X635440Y816248D01*
Y812916D01*
X637106Y811250D01*
X642105D01*
X632108Y817915D02*
Y812916D01*
X630442Y811250D01*
X625443D01*
Y817915D01*
X372500Y1110000D02*
X379569Y1117069D01*
X376034Y1120603D01*
X373678D01*
X371322Y1118247D01*
Y1115891D01*
X374856Y1112356D01*
X372500Y1114713D02*
X367788D01*
X365431Y1117069D02*
X361897Y1120603D01*
Y1122959D01*
X364253D01*
X366609Y1120603D01*
X368966D01*
X368966Y1122959D01*
X365431Y1126494D01*
X354828Y1127672D02*
X361897Y1134741D01*
Y1127672D01*
X357184Y1132384D01*
X357184Y1137097D02*
Y1139453D01*
X354828Y1141810D01*
X352472Y1141809D01*
X351294Y1140631D01*
Y1138275D01*
X348937D01*
X347759Y1137097D01*
X347759Y1134741D01*
X350116Y1132384D01*
X352472D01*
X353650Y1133563D01*
Y1135919D01*
X356006D01*
X357184Y1137097D01*
X353650Y1135919D02*
X351294Y1138275D01*
X346581Y1150057D02*
X351294Y1145344D01*
X347759Y1141810D01*
X346581Y1145344D01*
X345403Y1146522D01*
X343047D01*
X340690Y1144166D01*
X340690Y1141810D01*
X343047Y1139453D01*
X345403D01*
X335978Y1144166D02*
X331265Y1148878D01*
X326553Y1155947D02*
X328909Y1153591D01*
X331265D01*
X333622Y1155947D01*
Y1158303D01*
X331265Y1160660D01*
X328909D01*
X327731Y1159482D01*
X332444Y1154769D01*
X323018Y1159482D02*
X327731Y1164194D01*
X324197Y1167728D01*
X321840D01*
X318306Y1164194D01*
Y1178332D02*
X311237Y1171263D01*
X314771Y1167728D01*
X317128D01*
X319484Y1170085D01*
X319484Y1172441D01*
X315950Y1175975D01*
X503750Y1115000D02*
X500216Y1118534D01*
Y1120891D01*
X502572D01*
X504928Y1118534D01*
X507284D01*
Y1120891D01*
X503750Y1124425D01*
X493147Y1125603D02*
X495503Y1123247D01*
X497859D01*
X500216Y1125603D01*
X500216Y1127959D01*
X497859Y1130316D01*
X495503D01*
X494325Y1129138D01*
X499038Y1124425D01*
X494325Y1136206D02*
X493147Y1135028D01*
X494325Y1133850D01*
X491969Y1136206D01*
X493147Y1135028D01*
X489612Y1131494D01*
X487256D01*
X482544Y1133850D02*
X477831Y1138563D01*
X476653Y1151522D02*
X480187Y1147988D01*
Y1145631D01*
X477831Y1143275D01*
X475475D01*
X471940Y1146809D01*
X468406Y1150344D02*
X466050Y1152700D01*
Y1155057D01*
X468406Y1157413D01*
X470762D01*
X473119Y1155057D01*
X473119Y1152700D01*
X470762Y1150344D01*
X468406D01*
X462515Y1156235D02*
X467228Y1160947D01*
X466050Y1162125D01*
X463694D01*
X460159Y1158591D01*
X463694Y1162125D01*
X463694Y1164482D01*
X461337D01*
X457803Y1160947D01*
X454268Y1162125D02*
X449556Y1166838D01*
X443665Y1175085D02*
X448378Y1170372D01*
Y1179797D01*
X449556Y1180975D01*
X451912Y1180975D01*
X454268Y1178619D01*
Y1176263D01*
X437775Y1180975D02*
X444843Y1188044D01*
Y1180975D01*
X440131Y1185688D01*
D48*
X566550Y799894D02*
Y845106D01*
X528450Y799894D02*
Y845106D01*
X547285Y816459D02*
X557500Y827980D01*
X537500D02*
X547285Y816459D01*
X537500Y827980D02*
X557500D01*
X528460Y816410D02*
X566557Y816406D01*
M02*
