G04*
G04 #@! TF.GenerationSoftware,Altium Limited,CircuitStudio,1.5.2 (30)*
G04*
G04 Layer_Color=8150272*
%FSLAX44Y44*%
%MOMM*%
G71*
G01*
G75*
%ADD33R,1.1332X0.9932*%
%ADD38R,0.9932X1.1332*%
%ADD41C,1.7272*%
%ADD42C,1.6112*%
%ADD43C,3.3732*%
%ADD44C,2.0032*%
%ADD45R,2.6032X2.6032*%
G04:AMPARAMS|DCode=46|XSize=1.5432mm|YSize=3.4932mm|CornerRadius=0.2691mm|HoleSize=0mm|Usage=FLASHONLY|Rotation=90.000|XOffset=0mm|YOffset=0mm|HoleType=Round|Shape=RoundedRectangle|*
%AMROUNDEDRECTD46*
21,1,1.5432,2.9550,0,0,90.0*
21,1,1.0050,3.4932,0,0,90.0*
1,1,0.5382,1.4775,0.5025*
1,1,0.5382,1.4775,-0.5025*
1,1,0.5382,-1.4775,-0.5025*
1,1,0.5382,-1.4775,0.5025*
%
%ADD46ROUNDEDRECTD46*%
%ADD47R,0.8032X0.8032*%
D33*
X452500Y943200D02*
D03*
Y926800D02*
D03*
X482500Y943200D02*
D03*
Y926800D02*
D03*
X722500D02*
D03*
Y943200D02*
D03*
X394430Y1045790D02*
D03*
Y1062190D02*
D03*
X421730Y1045890D02*
D03*
Y1062290D02*
D03*
X652580Y1100690D02*
D03*
Y1084290D02*
D03*
X617580Y1100690D02*
D03*
Y1084290D02*
D03*
X582580Y1100690D02*
D03*
Y1084290D02*
D03*
X547580Y1100690D02*
D03*
Y1084290D02*
D03*
X512500Y1100700D02*
D03*
Y1084300D02*
D03*
X687580Y1049290D02*
D03*
Y1065690D02*
D03*
X652580Y1049290D02*
D03*
Y1065690D02*
D03*
X617580Y1049290D02*
D03*
Y1065690D02*
D03*
X582580Y1049290D02*
D03*
Y1065690D02*
D03*
X547580Y1049290D02*
D03*
Y1065690D02*
D03*
X512580Y1049290D02*
D03*
Y1065690D02*
D03*
X705080D02*
D03*
Y1049290D02*
D03*
X670080Y1065690D02*
D03*
Y1049290D02*
D03*
X635080Y1065690D02*
D03*
Y1049290D02*
D03*
X600080Y1065690D02*
D03*
Y1049290D02*
D03*
X565080Y1065690D02*
D03*
Y1049290D02*
D03*
X530080Y1065690D02*
D03*
Y1049290D02*
D03*
X705080Y1084290D02*
D03*
Y1100690D02*
D03*
X670080Y1084290D02*
D03*
Y1100690D02*
D03*
X635080Y1084290D02*
D03*
Y1100690D02*
D03*
X600080Y1084290D02*
D03*
Y1100690D02*
D03*
X565080Y1084290D02*
D03*
Y1100690D02*
D03*
X530080Y1084290D02*
D03*
Y1100690D02*
D03*
X687580Y926790D02*
D03*
Y943190D02*
D03*
X652580Y926790D02*
D03*
Y943190D02*
D03*
X617580Y926790D02*
D03*
Y943190D02*
D03*
X582580Y926790D02*
D03*
Y943190D02*
D03*
X547580Y926790D02*
D03*
Y943190D02*
D03*
X512580Y926790D02*
D03*
Y943190D02*
D03*
X722580Y1049290D02*
D03*
Y1065690D02*
D03*
X687500Y1100700D02*
D03*
Y1084300D02*
D03*
X722580Y823190D02*
D03*
Y806790D02*
D03*
Y869290D02*
D03*
Y885690D02*
D03*
D38*
X433200Y1096250D02*
D03*
X416800D02*
D03*
X398200D02*
D03*
X381800D02*
D03*
X399880Y1079990D02*
D03*
X416280D02*
D03*
D41*
X720000Y1170000D02*
D03*
D42*
X363330Y980990D02*
D03*
X388730D02*
D03*
X414130D02*
D03*
X439530D02*
D03*
X426830Y955590D02*
D03*
X401430D02*
D03*
X376030D02*
D03*
X350630D02*
D03*
X363330Y810990D02*
D03*
X388730D02*
D03*
X414130D02*
D03*
X439530D02*
D03*
X426830Y785590D02*
D03*
X401430D02*
D03*
X376030D02*
D03*
X350630D02*
D03*
D43*
X452230Y1044490D02*
D03*
X337930D02*
D03*
X452230Y874490D02*
D03*
X337930D02*
D03*
D44*
X722500Y969000D02*
D03*
X687500Y1021000D02*
D03*
X652500Y969000D02*
D03*
X617500Y1021000D02*
D03*
X582500Y969000D02*
D03*
X547500Y1021000D02*
D03*
X512500Y969000D02*
D03*
X512580Y846490D02*
D03*
X547580Y898490D02*
D03*
X582580Y846490D02*
D03*
X617580Y898490D02*
D03*
X652580Y846490D02*
D03*
X687580Y898490D02*
D03*
X722580Y846490D02*
D03*
D45*
X547500Y800500D02*
D03*
Y844500D02*
D03*
D46*
X478750Y835250D02*
D03*
Y792250D02*
D03*
D47*
X698580Y1115740D02*
D03*
X711580D02*
D03*
X705080Y1134240D02*
D03*
X663580Y1115740D02*
D03*
X676580D02*
D03*
X670080Y1134240D02*
D03*
X628580Y1115740D02*
D03*
X641580D02*
D03*
X635080Y1134240D02*
D03*
X593580Y1115740D02*
D03*
X606580D02*
D03*
X600080Y1134240D02*
D03*
X558580Y1115740D02*
D03*
X571580D02*
D03*
X565080Y1134240D02*
D03*
X523580Y1115740D02*
D03*
X536580D02*
D03*
X530080Y1134240D02*
D03*
M02*
