G04*
G04 #@! TF.GenerationSoftware,Altium Limited,CircuitStudio,1.5.2 (30)*
G04*
G04 Layer_Color=20142*
%FSLAX44Y44*%
%MOMM*%
G71*
G01*
G75*
%ADD33R,1.1332X0.9932*%
G04:AMPARAMS|DCode=34|XSize=0.8032mm|YSize=2.4032mm|CornerRadius=0.2516mm|HoleSize=0mm|Usage=FLASHONLY|Rotation=90.000|XOffset=0mm|YOffset=0mm|HoleType=Round|Shape=RoundedRectangle|*
%AMROUNDEDRECTD34*
21,1,0.8032,1.9000,0,0,90.0*
21,1,0.3000,2.4032,0,0,90.0*
1,1,0.5032,0.9500,0.1500*
1,1,0.5032,0.9500,-0.1500*
1,1,0.5032,-0.9500,-0.1500*
1,1,0.5032,-0.9500,0.1500*
%
%ADD34ROUNDEDRECTD34*%
%ADD35R,2.4032X0.8032*%
%ADD36R,1.9652X0.5580*%
G04:AMPARAMS|DCode=37|XSize=1.9652mm|YSize=0.558mm|CornerRadius=0.1903mm|HoleSize=0mm|Usage=FLASHONLY|Rotation=0.000|XOffset=0mm|YOffset=0mm|HoleType=Round|Shape=RoundedRectangle|*
%AMROUNDEDRECTD37*
21,1,1.9652,0.1774,0,0,0.0*
21,1,1.5846,0.5580,0,0,0.0*
1,1,0.3806,0.7923,-0.0887*
1,1,0.3806,-0.7923,-0.0887*
1,1,0.3806,-0.7923,0.0887*
1,1,0.3806,0.7923,0.0887*
%
%ADD37ROUNDEDRECTD37*%
%ADD38R,0.9932X1.1332*%
%ADD39R,0.7032X0.7032*%
G04:AMPARAMS|DCode=40|XSize=1.4132mm|YSize=0.7932mm|CornerRadius=0.2491mm|HoleSize=0mm|Usage=FLASHONLY|Rotation=0.000|XOffset=0mm|YOffset=0mm|HoleType=Round|Shape=RoundedRectangle|*
%AMROUNDEDRECTD40*
21,1,1.4132,0.2950,0,0,0.0*
21,1,0.9150,0.7932,0,0,0.0*
1,1,0.4982,0.4575,-0.1475*
1,1,0.4982,-0.4575,-0.1475*
1,1,0.4982,-0.4575,0.1475*
1,1,0.4982,0.4575,0.1475*
%
%ADD40ROUNDEDRECTD40*%
%ADD41C,1.7272*%
%ADD42C,1.6112*%
%ADD43C,3.3732*%
%ADD44C,2.0032*%
D33*
X442580Y1168190D02*
D03*
Y1184590D02*
D03*
X462580Y1168190D02*
D03*
Y1184590D02*
D03*
X382500Y1184450D02*
D03*
Y1168050D02*
D03*
X442580Y1144990D02*
D03*
Y1128590D02*
D03*
X422580Y1144990D02*
D03*
Y1128590D02*
D03*
X402580Y1144990D02*
D03*
Y1128590D02*
D03*
X615000Y1091800D02*
D03*
Y1108200D02*
D03*
X402500Y1168050D02*
D03*
Y1184450D02*
D03*
X422580Y1168190D02*
D03*
Y1184590D02*
D03*
X382580Y1129290D02*
D03*
Y1145690D02*
D03*
D34*
X521500Y1154050D02*
D03*
Y1141350D02*
D03*
Y1115950D02*
D03*
X573500Y1154050D02*
D03*
Y1141350D02*
D03*
X521500Y1128650D02*
D03*
X573500D02*
D03*
D35*
Y1115950D02*
D03*
D36*
X635370Y1124241D02*
D03*
D37*
Y1117741D02*
D03*
Y1111241D02*
D03*
Y1104741D02*
D03*
Y1098241D02*
D03*
Y1091739D02*
D03*
Y1085239D02*
D03*
Y1078739D02*
D03*
Y1072239D02*
D03*
Y1065739D02*
D03*
X694790D02*
D03*
Y1072239D02*
D03*
Y1078739D02*
D03*
Y1085239D02*
D03*
Y1091739D02*
D03*
Y1098241D02*
D03*
Y1104741D02*
D03*
Y1111241D02*
D03*
Y1117741D02*
D03*
Y1124241D02*
D03*
D38*
X628200Y1142500D02*
D03*
X611800D02*
D03*
X481800Y1108750D02*
D03*
X498200D02*
D03*
D39*
X478830Y1148490D02*
D03*
Y1126490D02*
D03*
X461250Y1148500D02*
D03*
Y1126500D02*
D03*
X496250Y1148500D02*
D03*
Y1126500D02*
D03*
D40*
X334950Y1144500D02*
D03*
Y1135000D02*
D03*
Y1125500D02*
D03*
X360050D02*
D03*
Y1144500D02*
D03*
X334950Y1184500D02*
D03*
Y1175000D02*
D03*
Y1165500D02*
D03*
X360050D02*
D03*
Y1184500D02*
D03*
D41*
X720000Y1170000D02*
D03*
D42*
X363330Y980990D02*
D03*
X388730D02*
D03*
X414130D02*
D03*
X439530D02*
D03*
X426830Y955590D02*
D03*
X401430D02*
D03*
X376030D02*
D03*
X350630D02*
D03*
X363330Y810990D02*
D03*
X388730D02*
D03*
X414130D02*
D03*
X439530D02*
D03*
X426830Y785590D02*
D03*
X401430D02*
D03*
X376030D02*
D03*
X350630D02*
D03*
D43*
X452230Y1044490D02*
D03*
X337930D02*
D03*
X452230Y874490D02*
D03*
X337930D02*
D03*
D44*
X722500Y969000D02*
D03*
X687500Y1021000D02*
D03*
X652500Y969000D02*
D03*
X617500Y1021000D02*
D03*
X582500Y969000D02*
D03*
X547500Y1021000D02*
D03*
X512500Y969000D02*
D03*
X512580Y846490D02*
D03*
X547580Y898490D02*
D03*
X582580Y846490D02*
D03*
X617580Y898490D02*
D03*
X652580Y846490D02*
D03*
X687580Y898490D02*
D03*
X722580Y846490D02*
D03*
M02*
