G04*
G04 #@! TF.GenerationSoftware,Altium Limited,CircuitStudio,1.5.2 (30)*
G04*
G04 Layer_Color=7318015*
%FSLAX44Y44*%
%MOMM*%
G71*
G01*
G75*
%ADD10R,0.9300X0.7900*%
G04:AMPARAMS|DCode=11|XSize=0.6mm|YSize=2.2mm|CornerRadius=0.15mm|HoleSize=0mm|Usage=FLASHONLY|Rotation=90.000|XOffset=0mm|YOffset=0mm|HoleType=Round|Shape=RoundedRectangle|*
%AMROUNDEDRECTD11*
21,1,0.6000,1.9000,0,0,90.0*
21,1,0.3000,2.2000,0,0,90.0*
1,1,0.3000,0.9500,0.1500*
1,1,0.3000,0.9500,-0.1500*
1,1,0.3000,-0.9500,-0.1500*
1,1,0.3000,-0.9500,0.1500*
%
%ADD11ROUNDEDRECTD11*%
%ADD12R,2.2000X0.6000*%
%ADD13R,1.7620X0.3548*%
G04:AMPARAMS|DCode=14|XSize=1.762mm|YSize=0.3548mm|CornerRadius=0.0887mm|HoleSize=0mm|Usage=FLASHONLY|Rotation=0.000|XOffset=0mm|YOffset=0mm|HoleType=Round|Shape=RoundedRectangle|*
%AMROUNDEDRECTD14*
21,1,1.7620,0.1774,0,0,0.0*
21,1,1.5846,0.3548,0,0,0.0*
1,1,0.1774,0.7923,-0.0887*
1,1,0.1774,-0.7923,-0.0887*
1,1,0.1774,-0.7923,0.0887*
1,1,0.1774,0.7923,0.0887*
%
%ADD14ROUNDEDRECTD14*%
%ADD15R,0.7900X0.9300*%
%ADD16R,0.5000X0.5000*%
G04:AMPARAMS|DCode=17|XSize=1.21mm|YSize=0.59mm|CornerRadius=0.1475mm|HoleSize=0mm|Usage=FLASHONLY|Rotation=0.000|XOffset=0mm|YOffset=0mm|HoleType=Round|Shape=RoundedRectangle|*
%AMROUNDEDRECTD17*
21,1,1.2100,0.2950,0,0,0.0*
21,1,0.9150,0.5900,0,0,0.0*
1,1,0.2950,0.4575,-0.1475*
1,1,0.2950,-0.4575,-0.1475*
1,1,0.2950,-0.4575,0.1475*
1,1,0.2950,0.4575,0.1475*
%
%ADD17ROUNDEDRECTD17*%
D10*
X442580Y1168190D02*
D03*
Y1184590D02*
D03*
X462580Y1168190D02*
D03*
Y1184590D02*
D03*
X382500Y1184450D02*
D03*
Y1168050D02*
D03*
X442580Y1144990D02*
D03*
Y1128590D02*
D03*
X422580Y1144990D02*
D03*
Y1128590D02*
D03*
X402580Y1144990D02*
D03*
Y1128590D02*
D03*
X615000Y1091800D02*
D03*
Y1108200D02*
D03*
X402500Y1168050D02*
D03*
Y1184450D02*
D03*
X422580Y1168190D02*
D03*
Y1184590D02*
D03*
X382580Y1129290D02*
D03*
Y1145690D02*
D03*
D11*
X521500Y1154050D02*
D03*
Y1141350D02*
D03*
Y1115950D02*
D03*
X573500Y1154050D02*
D03*
Y1141350D02*
D03*
X521500Y1128650D02*
D03*
X573500D02*
D03*
D12*
Y1115950D02*
D03*
D13*
X635370Y1124241D02*
D03*
D14*
Y1117741D02*
D03*
Y1111241D02*
D03*
Y1104741D02*
D03*
Y1098241D02*
D03*
Y1091739D02*
D03*
Y1085239D02*
D03*
Y1078739D02*
D03*
Y1072239D02*
D03*
Y1065739D02*
D03*
X694790D02*
D03*
Y1072239D02*
D03*
Y1078739D02*
D03*
Y1085239D02*
D03*
Y1091739D02*
D03*
Y1098241D02*
D03*
Y1104741D02*
D03*
Y1111241D02*
D03*
Y1117741D02*
D03*
Y1124241D02*
D03*
D15*
X628200Y1142500D02*
D03*
X611800D02*
D03*
X481800Y1108750D02*
D03*
X498200D02*
D03*
D16*
X478830Y1148490D02*
D03*
Y1126490D02*
D03*
X461250Y1148500D02*
D03*
Y1126500D02*
D03*
X496250Y1148500D02*
D03*
Y1126500D02*
D03*
D17*
X334950Y1144500D02*
D03*
Y1135000D02*
D03*
Y1125500D02*
D03*
X360050D02*
D03*
Y1144500D02*
D03*
X334950Y1184500D02*
D03*
Y1175000D02*
D03*
Y1165500D02*
D03*
X360050D02*
D03*
Y1184500D02*
D03*
M02*
