G04*
G04 #@! TF.GenerationSoftware,Altium Limited,CircuitStudio,1.5.2 (30)*
G04*
G04 Layer_Physical_Order=1*
G04 Layer_Color=11767835*
%FSLAX44Y44*%
%MOMM*%
G71*
G01*
G75*
%ADD10R,0.9300X0.7900*%
G04:AMPARAMS|DCode=11|XSize=0.6mm|YSize=2.2mm|CornerRadius=0.15mm|HoleSize=0mm|Usage=FLASHONLY|Rotation=90.000|XOffset=0mm|YOffset=0mm|HoleType=Round|Shape=RoundedRectangle|*
%AMROUNDEDRECTD11*
21,1,0.6000,1.9000,0,0,90.0*
21,1,0.3000,2.2000,0,0,90.0*
1,1,0.3000,0.9500,0.1500*
1,1,0.3000,0.9500,-0.1500*
1,1,0.3000,-0.9500,-0.1500*
1,1,0.3000,-0.9500,0.1500*
%
%ADD11ROUNDEDRECTD11*%
%ADD12R,2.2000X0.6000*%
%ADD13R,1.7620X0.3548*%
G04:AMPARAMS|DCode=14|XSize=1.762mm|YSize=0.3548mm|CornerRadius=0.0887mm|HoleSize=0mm|Usage=FLASHONLY|Rotation=0.000|XOffset=0mm|YOffset=0mm|HoleType=Round|Shape=RoundedRectangle|*
%AMROUNDEDRECTD14*
21,1,1.7620,0.1774,0,0,0.0*
21,1,1.5846,0.3548,0,0,0.0*
1,1,0.1774,0.7923,-0.0887*
1,1,0.1774,-0.7923,-0.0887*
1,1,0.1774,-0.7923,0.0887*
1,1,0.1774,0.7923,0.0887*
%
%ADD14ROUNDEDRECTD14*%
%ADD15R,0.7900X0.9300*%
%ADD16R,0.5000X0.5000*%
G04:AMPARAMS|DCode=17|XSize=1.21mm|YSize=0.59mm|CornerRadius=0.1475mm|HoleSize=0mm|Usage=FLASHONLY|Rotation=0.000|XOffset=0mm|YOffset=0mm|HoleType=Round|Shape=RoundedRectangle|*
%AMROUNDEDRECTD17*
21,1,1.2100,0.2950,0,0,0.0*
21,1,0.9150,0.5900,0,0,0.0*
1,1,0.2950,0.4575,-0.1475*
1,1,0.2950,-0.4575,-0.1475*
1,1,0.2950,-0.4575,0.1475*
1,1,0.2950,0.4575,0.1475*
%
%ADD17ROUNDEDRECTD17*%
%ADD18C,0.2540*%
%ADD19C,0.2550*%
%ADD20C,0.5000*%
%ADD21C,1.5240*%
%ADD22C,1.4080*%
%ADD23C,3.1700*%
%ADD24C,1.8000*%
%ADD25C,0.7500*%
G36*
X750000Y750000D02*
X300000D01*
Y1201250D01*
X750000D01*
Y750000D01*
D02*
G37*
%LPC*%
G36*
X483870Y1125220D02*
X480100D01*
Y1121450D01*
X483870D01*
Y1125220D01*
D02*
G37*
G36*
X459980Y1125230D02*
X456210D01*
Y1121460D01*
X459980D01*
Y1125230D01*
D02*
G37*
G36*
X466290D02*
X462520D01*
Y1121460D01*
X466290D01*
Y1125230D01*
D02*
G37*
G36*
X477560Y1125220D02*
X473790D01*
Y1121450D01*
X477560D01*
Y1125220D01*
D02*
G37*
G36*
X488290Y1115940D02*
X483070D01*
Y1110020D01*
X488290D01*
Y1115940D01*
D02*
G37*
G36*
X343619Y1133730D02*
X326281D01*
Y1133525D01*
X326593Y1131958D01*
X327148Y1131127D01*
X327509Y1129841D01*
X326631Y1128526D01*
X326322Y1126975D01*
Y1124025D01*
X326631Y1122474D01*
X327509Y1121159D01*
X328824Y1120281D01*
X330375Y1119972D01*
X339525D01*
X341076Y1120281D01*
X342391Y1121159D01*
X343269Y1122474D01*
X343578Y1124025D01*
Y1126975D01*
X343269Y1128526D01*
X342391Y1129841D01*
X342752Y1131127D01*
X343307Y1131958D01*
X343619Y1133525D01*
Y1133730D01*
D02*
G37*
G36*
X364625Y1131028D02*
X355475D01*
X353924Y1130719D01*
X352609Y1129841D01*
X351731Y1128526D01*
X351422Y1126975D01*
Y1124025D01*
X351731Y1122474D01*
X352609Y1121159D01*
X353924Y1120281D01*
X355475Y1119972D01*
X364625D01*
X366176Y1120281D01*
X367491Y1121159D01*
X368369Y1122474D01*
X368678Y1124025D01*
Y1126975D01*
X368369Y1128526D01*
X367491Y1129841D01*
X366176Y1130719D01*
X364625Y1131028D01*
D02*
G37*
G36*
Y1150028D02*
X355475D01*
X353924Y1149719D01*
X352609Y1148841D01*
X351731Y1147526D01*
X351422Y1145975D01*
Y1143025D01*
X351731Y1141474D01*
X352609Y1140159D01*
X353924Y1139281D01*
X355475Y1138972D01*
X360212D01*
X372612Y1126572D01*
X372612Y1126572D01*
X373859Y1125739D01*
X375330Y1125446D01*
X375430D01*
Y1122840D01*
X389730D01*
Y1135740D01*
X375430D01*
X375430Y1135740D01*
Y1135740D01*
X374194Y1135862D01*
X368405Y1141651D01*
X368678Y1143025D01*
Y1145975D01*
X368369Y1147526D01*
X367491Y1148841D01*
X366176Y1149719D01*
X364625Y1150028D01*
D02*
G37*
G36*
X626930Y1141230D02*
X621710D01*
Y1135310D01*
X626930D01*
Y1141230D01*
D02*
G37*
G36*
X401310Y1143720D02*
X395390D01*
Y1138500D01*
X401310D01*
Y1143720D01*
D02*
G37*
G36*
X409770D02*
X403850D01*
Y1138500D01*
X409770D01*
Y1143720D01*
D02*
G37*
G36*
X466290Y1131540D02*
X462520D01*
Y1127770D01*
X466290D01*
Y1131540D01*
D02*
G37*
G36*
X477560Y1131530D02*
X473790D01*
Y1127760D01*
X477560D01*
Y1131530D01*
D02*
G37*
G36*
X483870D02*
X480100D01*
Y1127760D01*
X483870D01*
Y1131530D01*
D02*
G37*
G36*
X459980Y1131540D02*
X456210D01*
Y1127770D01*
X459980D01*
Y1131540D01*
D02*
G37*
G36*
X722580Y858089D02*
X719578Y857694D01*
X716780Y856535D01*
X714378Y854692D01*
X712535Y852290D01*
X711376Y849492D01*
X710981Y846490D01*
X711376Y843488D01*
X712535Y840690D01*
X714378Y838288D01*
X716780Y836445D01*
X719578Y835286D01*
X722580Y834891D01*
X725582Y835286D01*
X728380Y836445D01*
X730782Y838288D01*
X732625Y840690D01*
X733784Y843488D01*
X734179Y846490D01*
X733784Y849492D01*
X732625Y852290D01*
X730782Y854692D01*
X728380Y856535D01*
X725582Y857694D01*
X722580Y858089D01*
D02*
G37*
G36*
X582500Y980599D02*
X579498Y980204D01*
X576700Y979045D01*
X574298Y977202D01*
X572455Y974800D01*
X571296Y972002D01*
X570901Y969000D01*
X571296Y965998D01*
X572455Y963200D01*
X574298Y960798D01*
X576700Y958955D01*
X579498Y957796D01*
X582500Y957401D01*
X585502Y957796D01*
X588300Y958955D01*
X590702Y960798D01*
X592545Y963200D01*
X593704Y965998D01*
X594099Y969000D01*
X593704Y972002D01*
X592545Y974800D01*
X590702Y977202D01*
X588300Y979045D01*
X585502Y980204D01*
X582500Y980599D01*
D02*
G37*
G36*
X652500D02*
X649498Y980204D01*
X646700Y979045D01*
X644298Y977202D01*
X642455Y974800D01*
X641296Y972002D01*
X640901Y969000D01*
X641296Y965998D01*
X642455Y963200D01*
X644298Y960798D01*
X646700Y958955D01*
X649498Y957796D01*
X652500Y957401D01*
X655502Y957796D01*
X658300Y958955D01*
X660702Y960798D01*
X662545Y963200D01*
X663704Y965998D01*
X664099Y969000D01*
X663704Y972002D01*
X662545Y974800D01*
X660702Y977202D01*
X658300Y979045D01*
X655502Y980204D01*
X652500Y980599D01*
D02*
G37*
G36*
X428100Y795085D02*
Y786860D01*
X436325D01*
X436163Y788091D01*
X435198Y790421D01*
X433662Y792422D01*
X431661Y793958D01*
X429331Y794923D01*
X428100Y795085D01*
D02*
G37*
G36*
X425560Y784320D02*
X417335D01*
X417496Y783089D01*
X418462Y780759D01*
X419997Y778757D01*
X421999Y777222D01*
X424329Y776256D01*
X425560Y776095D01*
Y784320D01*
D02*
G37*
G36*
X436325D02*
X428100D01*
Y776095D01*
X429331Y776256D01*
X431661Y777222D01*
X433662Y778757D01*
X435198Y780759D01*
X436163Y783089D01*
X436325Y784320D01*
D02*
G37*
G36*
X425560Y795085D02*
X424329Y794923D01*
X421999Y793958D01*
X419997Y792422D01*
X418462Y790421D01*
X417496Y788091D01*
X417335Y786860D01*
X425560D01*
Y795085D01*
D02*
G37*
G36*
X722500Y980599D02*
X719498Y980204D01*
X716700Y979045D01*
X714298Y977202D01*
X712455Y974800D01*
X711296Y972002D01*
X710901Y969000D01*
X711296Y965998D01*
X712455Y963200D01*
X714298Y960798D01*
X716700Y958955D01*
X719498Y957796D01*
X722500Y957401D01*
X725502Y957796D01*
X728300Y958955D01*
X730702Y960798D01*
X732545Y963200D01*
X733704Y965998D01*
X734099Y969000D01*
X733704Y972002D01*
X732545Y974800D01*
X730702Y977202D01*
X728300Y979045D01*
X725502Y980204D01*
X722500Y980599D01*
D02*
G37*
G36*
X480530Y1107480D02*
X475310D01*
Y1101560D01*
X480530D01*
Y1107480D01*
D02*
G37*
G36*
X488290D02*
X483070D01*
Y1101560D01*
X488290D01*
Y1107480D01*
D02*
G37*
G36*
X480530Y1115940D02*
X475310D01*
Y1110020D01*
X480530D01*
Y1115940D01*
D02*
G37*
G36*
X337930Y1062929D02*
X334333Y1062574D01*
X330874Y1061525D01*
X327686Y1059821D01*
X324892Y1057528D01*
X322599Y1054734D01*
X320895Y1051546D01*
X319846Y1048087D01*
X319491Y1044490D01*
X319846Y1040893D01*
X320895Y1037434D01*
X322599Y1034246D01*
X324892Y1031452D01*
X327686Y1029159D01*
X330874Y1027455D01*
X334333Y1026405D01*
X337930Y1026051D01*
X341527Y1026405D01*
X344986Y1027455D01*
X348174Y1029159D01*
X350968Y1031452D01*
X353261Y1034246D01*
X354965Y1037434D01*
X356015Y1040893D01*
X356369Y1044490D01*
X356015Y1048087D01*
X354965Y1051546D01*
X353261Y1054734D01*
X350968Y1057528D01*
X348174Y1059821D01*
X344986Y1061525D01*
X341527Y1062574D01*
X337930Y1062929D01*
D02*
G37*
G36*
X414130Y990612D02*
X411640Y990284D01*
X409319Y989323D01*
X407326Y987794D01*
X405797Y985801D01*
X404836Y983480D01*
X404508Y980990D01*
X404836Y978500D01*
X405797Y976179D01*
X407326Y974186D01*
X409319Y972657D01*
X411640Y971695D01*
X411786Y971676D01*
Y958836D01*
X410516Y958583D01*
X409763Y960401D01*
X408234Y962394D01*
X406241Y963923D01*
X403920Y964884D01*
X401430Y965212D01*
X398940Y964884D01*
X396619Y963923D01*
X394626Y962394D01*
X393844Y961375D01*
X392574Y961806D01*
Y972256D01*
X393541Y972657D01*
X395534Y974186D01*
X397063Y976179D01*
X398024Y978500D01*
X398352Y980990D01*
X398024Y983480D01*
X397063Y985801D01*
X395534Y987794D01*
X393541Y989323D01*
X391220Y990284D01*
X388730Y990612D01*
X386240Y990284D01*
X383919Y989323D01*
X381926Y987794D01*
X380397Y985801D01*
X379436Y983480D01*
X379108Y980990D01*
X379436Y978500D01*
X380397Y976179D01*
X381926Y974186D01*
X383919Y972657D01*
X384886Y972256D01*
Y961806D01*
X383616Y961375D01*
X382834Y962394D01*
X380841Y963923D01*
X378520Y964884D01*
X376030Y965212D01*
X373540Y964884D01*
X371219Y963923D01*
X369226Y962394D01*
X367697Y960401D01*
X366735Y958080D01*
X366554Y956700D01*
X365284Y956784D01*
Y971625D01*
X365820Y971695D01*
X368141Y972657D01*
X370134Y974186D01*
X371663Y976179D01*
X372624Y978500D01*
X372952Y980990D01*
X372624Y983480D01*
X371663Y985801D01*
X370134Y987794D01*
X368141Y989323D01*
X365820Y990284D01*
X363330Y990612D01*
X360840Y990284D01*
X358519Y989323D01*
X356526Y987794D01*
X354997Y985801D01*
X354035Y983480D01*
X353708Y980990D01*
X354035Y978500D01*
X354997Y976179D01*
X356526Y974186D01*
X357596Y973365D01*
Y963870D01*
X356326Y963244D01*
X355441Y963923D01*
X353120Y964884D01*
X350630Y965212D01*
X348139Y964884D01*
X345819Y963923D01*
X343826Y962394D01*
X342297Y960401D01*
X341335Y958080D01*
X341008Y955590D01*
X341335Y953100D01*
X342297Y950779D01*
X343826Y948786D01*
X345819Y947257D01*
X346236Y947084D01*
Y892092D01*
X345147Y891439D01*
X344986Y891525D01*
X341527Y892574D01*
X337930Y892929D01*
X334333Y892574D01*
X330874Y891525D01*
X327686Y889821D01*
X324892Y887528D01*
X322599Y884734D01*
X320895Y881546D01*
X319846Y878087D01*
X319491Y874490D01*
X319846Y870893D01*
X320895Y867434D01*
X322599Y864246D01*
X324892Y861452D01*
X327686Y859159D01*
X330874Y857455D01*
X334333Y856405D01*
X337930Y856051D01*
X341527Y856405D01*
X344986Y857455D01*
X345697Y857835D01*
X346786Y857182D01*
Y794324D01*
X345819Y793923D01*
X343826Y792394D01*
X342297Y790401D01*
X341335Y788080D01*
X341008Y785590D01*
X341335Y783100D01*
X342297Y780779D01*
X343826Y778786D01*
X345819Y777257D01*
X348139Y776295D01*
X350630Y775968D01*
X353120Y776295D01*
X355441Y777257D01*
X357434Y778786D01*
X358963Y780779D01*
X359924Y783100D01*
X360252Y785590D01*
X359924Y788080D01*
X358963Y790401D01*
X357434Y792394D01*
X355441Y793923D01*
X354474Y794324D01*
Y804774D01*
X355744Y805205D01*
X356526Y804186D01*
X358519Y802657D01*
X360840Y801695D01*
X363330Y801368D01*
X365820Y801695D01*
X368141Y802657D01*
X370134Y804186D01*
X370916Y805205D01*
X372186Y804774D01*
Y794324D01*
X371219Y793923D01*
X369226Y792394D01*
X367697Y790401D01*
X366735Y788080D01*
X366408Y785590D01*
X366735Y783100D01*
X367697Y780779D01*
X369226Y778786D01*
X371219Y777257D01*
X373540Y776295D01*
X376030Y775968D01*
X378520Y776295D01*
X380841Y777257D01*
X382834Y778786D01*
X384363Y780779D01*
X385324Y783100D01*
X385652Y785590D01*
X385324Y788080D01*
X384363Y790401D01*
X382834Y792394D01*
X380841Y793923D01*
X379874Y794324D01*
Y804774D01*
X381144Y805205D01*
X381926Y804186D01*
X383919Y802657D01*
X386240Y801695D01*
X388730Y801368D01*
X391220Y801695D01*
X393541Y802657D01*
X395066Y803827D01*
X396336Y803229D01*
Y793706D01*
X394626Y792394D01*
X393097Y790401D01*
X392136Y788080D01*
X391808Y785590D01*
X392136Y783100D01*
X393097Y780779D01*
X394626Y778786D01*
X396619Y777257D01*
X398940Y776295D01*
X401430Y775968D01*
X403920Y776295D01*
X406241Y777257D01*
X408234Y778786D01*
X409763Y780779D01*
X410724Y783100D01*
X411052Y785590D01*
X410724Y788080D01*
X409763Y790401D01*
X408234Y792394D01*
X406241Y793923D01*
X404024Y794842D01*
Y807140D01*
X405294Y807393D01*
X405797Y806179D01*
X407326Y804186D01*
X409319Y802657D01*
X411640Y801695D01*
X414130Y801368D01*
X416620Y801695D01*
X418941Y802657D01*
X420934Y804186D01*
X422463Y806179D01*
X423424Y808500D01*
X423752Y810990D01*
X423424Y813480D01*
X422463Y815801D01*
X420934Y817794D01*
X419474Y818914D01*
Y947558D01*
X420744Y948185D01*
X421999Y947222D01*
X424329Y946256D01*
X425560Y946095D01*
Y955590D01*
Y965085D01*
X424329Y964923D01*
X421999Y963958D01*
X420744Y962995D01*
X419474Y963622D01*
Y973065D01*
X420934Y974186D01*
X422463Y976179D01*
X423424Y978500D01*
X423752Y980990D01*
X423424Y983480D01*
X422463Y985801D01*
X420934Y987794D01*
X418941Y989323D01*
X416620Y990284D01*
X414130Y990612D01*
D02*
G37*
G36*
X617500Y1032599D02*
X614498Y1032204D01*
X611700Y1031045D01*
X609298Y1029202D01*
X607455Y1026800D01*
X606296Y1024002D01*
X605901Y1021000D01*
X606296Y1017998D01*
X607455Y1015200D01*
X609298Y1012798D01*
X611700Y1010955D01*
X614498Y1009796D01*
X617500Y1009401D01*
X620502Y1009796D01*
X623300Y1010955D01*
X625702Y1012798D01*
X627545Y1015200D01*
X628704Y1017998D01*
X629099Y1021000D01*
X628704Y1024002D01*
X627545Y1026800D01*
X625702Y1029202D01*
X623300Y1031045D01*
X620502Y1032204D01*
X617500Y1032599D01*
D02*
G37*
G36*
X687500D02*
X684498Y1032204D01*
X681700Y1031045D01*
X679298Y1029202D01*
X677455Y1026800D01*
X676296Y1024002D01*
X675901Y1021000D01*
X676296Y1017998D01*
X677455Y1015200D01*
X679298Y1012798D01*
X681700Y1010955D01*
X684498Y1009796D01*
X687500Y1009401D01*
X690502Y1009796D01*
X693300Y1010955D01*
X695702Y1012798D01*
X697545Y1015200D01*
X698704Y1017998D01*
X699099Y1021000D01*
X698704Y1024002D01*
X697545Y1026800D01*
X695702Y1029202D01*
X693300Y1031045D01*
X690502Y1032204D01*
X687500Y1032599D01*
D02*
G37*
G36*
X421310Y1143720D02*
X415390D01*
Y1138500D01*
X421310D01*
Y1143720D01*
D02*
G37*
G36*
X449770Y1166920D02*
X443850D01*
Y1161700D01*
X449770D01*
Y1166920D01*
D02*
G37*
G36*
X461310D02*
X455390D01*
Y1161700D01*
X461310D01*
Y1166920D01*
D02*
G37*
G36*
X409690Y1174540D02*
X403770D01*
Y1169320D01*
X409690D01*
Y1174540D01*
D02*
G37*
G36*
X441310Y1166920D02*
X435390D01*
Y1161700D01*
X441310D01*
Y1166920D01*
D02*
G37*
G36*
X409690Y1166780D02*
X403770D01*
Y1161560D01*
X409690D01*
Y1166780D01*
D02*
G37*
G36*
X421310Y1166920D02*
X415390D01*
Y1161700D01*
X421310D01*
Y1166920D01*
D02*
G37*
G36*
X429770D02*
X423850D01*
Y1161700D01*
X429770D01*
Y1166920D01*
D02*
G37*
G36*
X421310Y1174680D02*
X415390D01*
Y1169460D01*
X421310D01*
Y1174680D01*
D02*
G37*
G36*
X469770D02*
X463850D01*
Y1169460D01*
X469770D01*
Y1174680D01*
D02*
G37*
G36*
X339525Y1190028D02*
X330375D01*
X328824Y1189719D01*
X327509Y1188841D01*
X327177Y1188344D01*
X317000D01*
X315529Y1188051D01*
X314282Y1187218D01*
X314282Y1187218D01*
X309862Y1182798D01*
X309029Y1181551D01*
X308980Y1181307D01*
X308736Y1180080D01*
X308736Y1180080D01*
Y1144902D01*
X308656Y1144500D01*
X308736Y1144098D01*
Y774990D01*
X308736Y774990D01*
X308980Y773763D01*
X309029Y773519D01*
X309862Y772272D01*
X319862Y762272D01*
X319862Y762272D01*
X321109Y761439D01*
X322580Y761146D01*
X395052D01*
X395494Y760484D01*
X397561Y759103D01*
X400000Y758617D01*
X402439Y759103D01*
X404506Y760484D01*
X405887Y762551D01*
X406372Y764990D01*
X405887Y767429D01*
X404506Y769496D01*
X402439Y770877D01*
X400000Y771362D01*
X397561Y770877D01*
X395494Y769496D01*
X395052Y768834D01*
X324172D01*
X316424Y776582D01*
Y1106156D01*
X360029D01*
X360130Y1106136D01*
X395070D01*
X395070Y1106136D01*
X396297Y1106380D01*
X396541Y1106429D01*
X397788Y1107262D01*
X405298Y1114772D01*
X405298Y1114772D01*
X405855Y1115605D01*
X406131Y1116019D01*
X406424Y1117490D01*
X406424Y1117490D01*
Y1122140D01*
X409730D01*
Y1124746D01*
X415430D01*
Y1122140D01*
X429730D01*
Y1123636D01*
X435430D01*
Y1122140D01*
X436802D01*
X437608Y1121158D01*
X437378Y1120000D01*
X437863Y1117561D01*
X439244Y1115494D01*
X441311Y1114113D01*
X443750Y1113627D01*
X446189Y1114113D01*
X448256Y1115494D01*
X449637Y1117561D01*
X450122Y1120000D01*
X449703Y1122107D01*
X449730Y1122140D01*
X449730D01*
Y1135040D01*
X435430D01*
Y1131324D01*
X429730D01*
Y1135040D01*
X415430D01*
Y1132434D01*
X409730D01*
Y1135040D01*
X395430D01*
Y1122140D01*
X398736D01*
Y1119082D01*
X393478Y1113824D01*
X365180D01*
X365080Y1113844D01*
X316424D01*
Y1140656D01*
X326407D01*
X327315Y1139467D01*
X327148Y1138873D01*
X326593Y1138042D01*
X326281Y1136475D01*
Y1136270D01*
X343619D01*
Y1136475D01*
X343307Y1138042D01*
X342752Y1138873D01*
X342391Y1140159D01*
X343269Y1141474D01*
X343578Y1143025D01*
Y1145975D01*
X343269Y1147526D01*
X342391Y1148841D01*
X341076Y1149719D01*
X339525Y1150028D01*
X330375D01*
X328824Y1149719D01*
X327509Y1148841D01*
X327177Y1148344D01*
X316424D01*
Y1178488D01*
X318592Y1180656D01*
X326407D01*
X327315Y1179467D01*
X327148Y1178873D01*
X326593Y1178042D01*
X326281Y1176475D01*
Y1176270D01*
X343619D01*
Y1176475D01*
X343307Y1178042D01*
X342752Y1178873D01*
X342391Y1180159D01*
X343269Y1181474D01*
X343578Y1183025D01*
Y1185975D01*
X343269Y1187526D01*
X342391Y1188841D01*
X341076Y1189719D01*
X339525Y1190028D01*
D02*
G37*
G36*
X469730Y1191040D02*
X455430D01*
Y1189688D01*
X449730D01*
Y1191040D01*
X435430D01*
Y1189688D01*
X429730D01*
Y1191040D01*
X415430D01*
Y1189688D01*
X409650D01*
Y1190900D01*
X395350D01*
Y1189688D01*
X389650D01*
Y1190900D01*
X375350D01*
Y1181115D01*
X374177Y1180629D01*
X368640Y1186166D01*
X368369Y1187526D01*
X367491Y1188841D01*
X366176Y1189719D01*
X364625Y1190028D01*
X355475D01*
X353924Y1189719D01*
X352609Y1188841D01*
X351731Y1187526D01*
X351422Y1185975D01*
Y1183025D01*
X351731Y1181474D01*
X352609Y1180159D01*
X353924Y1179281D01*
X355475Y1178972D01*
X364625D01*
X364906Y1179028D01*
X375350Y1168584D01*
Y1161600D01*
X385959D01*
X386445Y1160427D01*
X379862Y1153844D01*
X379029Y1152597D01*
X378980Y1152353D01*
X378938Y1152140D01*
X375430D01*
Y1139240D01*
X389730D01*
Y1152140D01*
X389730Y1152140D01*
X389730D01*
X390149Y1153259D01*
X395298Y1158408D01*
X396131Y1159655D01*
X396180Y1159899D01*
X396424Y1161126D01*
X397545Y1161560D01*
X401230D01*
Y1168050D01*
Y1174540D01*
X396424D01*
Y1178000D01*
X409650D01*
Y1179492D01*
X415430D01*
Y1178140D01*
X429730D01*
Y1179492D01*
X435430D01*
Y1178140D01*
X449730D01*
Y1179492D01*
X455430D01*
Y1178140D01*
X469730D01*
Y1179492D01*
X530868D01*
X542402Y1167958D01*
Y1154612D01*
X536395Y1148605D01*
X535290Y1146951D01*
X535131Y1146153D01*
X534411Y1145911D01*
X533769Y1145811D01*
X532561Y1146618D01*
X531000Y1146928D01*
X512000D01*
X510439Y1146618D01*
X509116Y1145734D01*
X508749Y1145184D01*
X506322D01*
X501250Y1150256D01*
Y1153500D01*
X492451D01*
X491409Y1154770D01*
X491452Y1154990D01*
X490967Y1157429D01*
X489586Y1159496D01*
X487519Y1160877D01*
X485080Y1161362D01*
X482641Y1160877D01*
X480574Y1159496D01*
X479193Y1157429D01*
X478708Y1154990D01*
X478786Y1154598D01*
X477834Y1153490D01*
X473830D01*
Y1143490D01*
X483830D01*
Y1144646D01*
X491250D01*
Y1143500D01*
X497134D01*
X502012Y1138622D01*
X503259Y1137789D01*
X503503Y1137740D01*
X504730Y1137496D01*
X504730Y1137496D01*
X508762D01*
X509116Y1136966D01*
X510439Y1136082D01*
X512000Y1135772D01*
X531000D01*
X532561Y1136082D01*
X533632Y1136798D01*
X534533Y1136500D01*
X534902Y1136235D01*
Y1133765D01*
X534533Y1133500D01*
X533632Y1133202D01*
X532561Y1133918D01*
X531000Y1134228D01*
X512000D01*
X510439Y1133918D01*
X509116Y1133034D01*
X508749Y1132484D01*
X499730D01*
X499730Y1132484D01*
X498503Y1132240D01*
X498259Y1132191D01*
X497693Y1131813D01*
X489298Y1140208D01*
X488051Y1141041D01*
X487807Y1141090D01*
X486580Y1141334D01*
X486580Y1141334D01*
X472672D01*
X466250Y1147756D01*
Y1149224D01*
X481126Y1164100D01*
X481189Y1164113D01*
X483256Y1165494D01*
X484637Y1167561D01*
X485122Y1170000D01*
X484637Y1172439D01*
X483256Y1174506D01*
X481189Y1175887D01*
X478750Y1176373D01*
X476311Y1175887D01*
X474244Y1174506D01*
X472863Y1172439D01*
X472378Y1170000D01*
X472863Y1167561D01*
X473204Y1167050D01*
X470943Y1164789D01*
X469770Y1165275D01*
Y1166920D01*
X463850D01*
Y1161700D01*
X466195D01*
X466681Y1160527D01*
X459654Y1153500D01*
X456250D01*
Y1148560D01*
X456236Y1148490D01*
X456250Y1148420D01*
Y1143500D01*
X459634D01*
X468362Y1134772D01*
X469609Y1133939D01*
X469853Y1133890D01*
X471080Y1133646D01*
X471080Y1133646D01*
X484988D01*
X491250Y1127384D01*
Y1121500D01*
X491250Y1121500D01*
X491250Y1121500D01*
X491250Y1121500D01*
X491667Y1120403D01*
X491732Y1120230D01*
X491395Y1119725D01*
X491201Y1118750D01*
Y1113750D01*
Y1108750D01*
Y1105776D01*
X491156Y1105550D01*
X491201Y1105324D01*
X491201Y1068492D01*
X490303Y1067594D01*
X481250D01*
X479779Y1067301D01*
X478532Y1066468D01*
X478532Y1066468D01*
X469132Y1057068D01*
X468299Y1055821D01*
X467683Y1055540D01*
X466939Y1055493D01*
X465268Y1057528D01*
X462474Y1059821D01*
X459286Y1061525D01*
X455827Y1062574D01*
X452230Y1062929D01*
X448633Y1062574D01*
X445174Y1061525D01*
X441986Y1059821D01*
X439192Y1057528D01*
X436899Y1054734D01*
X435195Y1051546D01*
X434146Y1048087D01*
X433791Y1044490D01*
X434146Y1040893D01*
X435195Y1037434D01*
X436899Y1034246D01*
X439192Y1031452D01*
X441986Y1029159D01*
X445174Y1027455D01*
X448633Y1026405D01*
X452230Y1026051D01*
X455827Y1026405D01*
X459286Y1027455D01*
X462474Y1029159D01*
X465268Y1031452D01*
X466736Y1033241D01*
X468006Y1032786D01*
Y919949D01*
X467344Y919506D01*
X465963Y917439D01*
X465477Y915000D01*
X465963Y912561D01*
X467344Y910494D01*
X468006Y910051D01*
Y886194D01*
X466736Y885739D01*
X465268Y887528D01*
X462474Y889821D01*
X459286Y891525D01*
X455827Y892574D01*
X452230Y892929D01*
X448633Y892574D01*
X445174Y891525D01*
X444463Y891145D01*
X443374Y891798D01*
Y972256D01*
X444341Y972657D01*
X446334Y974186D01*
X447863Y976179D01*
X448824Y978500D01*
X449152Y980990D01*
X448824Y983480D01*
X447863Y985801D01*
X446334Y987794D01*
X444341Y989323D01*
X442020Y990284D01*
X439530Y990612D01*
X437039Y990284D01*
X434719Y989323D01*
X432726Y987794D01*
X431197Y985801D01*
X430235Y983480D01*
X429908Y980990D01*
X430235Y978500D01*
X431197Y976179D01*
X432726Y974186D01*
X434719Y972657D01*
X435686Y972256D01*
Y961871D01*
X434416Y961440D01*
X433662Y962422D01*
X431661Y963958D01*
X429331Y964923D01*
X428100Y965085D01*
Y955590D01*
Y946095D01*
X429331Y946256D01*
X431661Y947222D01*
X433662Y948757D01*
X434416Y949740D01*
X435686Y949308D01*
Y891186D01*
X429852Y885351D01*
X429019Y884104D01*
X428970Y883860D01*
X428726Y882633D01*
X428726Y882633D01*
Y866347D01*
X428726Y866347D01*
X428970Y865120D01*
X429019Y864875D01*
X429852Y863628D01*
X435686Y857794D01*
Y819724D01*
X434719Y819323D01*
X432726Y817794D01*
X431197Y815801D01*
X430235Y813480D01*
X429908Y810990D01*
X430235Y808500D01*
X431197Y806179D01*
X432726Y804186D01*
X434719Y802657D01*
X437039Y801695D01*
X439530Y801368D01*
X442020Y801695D01*
X444341Y802657D01*
X446334Y804186D01*
X447863Y806179D01*
X448824Y808500D01*
X449152Y810990D01*
X448824Y813480D01*
X447863Y815801D01*
X446334Y817794D01*
X444341Y819323D01*
X443374Y819724D01*
Y857182D01*
X444463Y857835D01*
X445174Y857455D01*
X448633Y856405D01*
X452230Y856051D01*
X455827Y856405D01*
X459286Y857455D01*
X462474Y859159D01*
X465268Y861452D01*
X466736Y863241D01*
X468006Y862786D01*
Y813150D01*
X468006Y813150D01*
X468250Y811923D01*
X468299Y811679D01*
X469132Y810432D01*
X478532Y801032D01*
X478532Y801032D01*
X479365Y800475D01*
X479779Y800199D01*
X481250Y799906D01*
X481250Y799906D01*
X693750D01*
X693750Y799906D01*
X694977Y800150D01*
X695221Y800199D01*
X696468Y801032D01*
X705218Y809782D01*
X705218Y809782D01*
X705775Y810615D01*
X706051Y811029D01*
X706344Y812500D01*
X706344Y812500D01*
Y878408D01*
X721719Y893783D01*
X722500Y893627D01*
X724939Y894113D01*
X727006Y895494D01*
X728387Y897561D01*
X728873Y900000D01*
X728387Y902439D01*
X727006Y904506D01*
X724939Y905887D01*
X722500Y906373D01*
X720061Y905887D01*
X717994Y904506D01*
X716613Y902439D01*
X716127Y900000D01*
X716283Y899219D01*
X699782Y882718D01*
X698949Y881471D01*
X698900Y881227D01*
X698656Y880000D01*
X698656Y880000D01*
Y814092D01*
X692158Y807594D01*
X482842D01*
X475694Y814742D01*
Y910051D01*
X476356Y910494D01*
X477737Y912561D01*
X478222Y915000D01*
X477737Y917439D01*
X476356Y919506D01*
X475694Y919949D01*
Y1052758D01*
X482842Y1059906D01*
X491201D01*
Y1054845D01*
X491395Y1053869D01*
X491948Y1053043D01*
X492090Y1051430D01*
X481252Y1040592D01*
X480419Y1039345D01*
X480370Y1039101D01*
X480126Y1037874D01*
X480126Y1037874D01*
Y853770D01*
X480126Y853770D01*
X480370Y852543D01*
X480419Y852299D01*
X481252Y851052D01*
X488532Y843772D01*
X489779Y842939D01*
X490023Y842890D01*
X491250Y842646D01*
X491250Y842646D01*
X501725D01*
X502535Y840690D01*
X504378Y838288D01*
X506780Y836445D01*
X509578Y835286D01*
X512580Y834891D01*
X515582Y835286D01*
X518380Y836445D01*
X520782Y838288D01*
X522625Y840690D01*
X523784Y843488D01*
X524179Y846490D01*
X523784Y849492D01*
X522625Y852290D01*
X520782Y854692D01*
X518380Y856535D01*
X515582Y857694D01*
X512580Y858089D01*
X509578Y857694D01*
X506780Y856535D01*
X504378Y854692D01*
X502535Y852290D01*
X501725Y850334D01*
X492842D01*
X487814Y855362D01*
Y902331D01*
X488987Y902817D01*
X496032Y895772D01*
X496032Y895772D01*
X497279Y894939D01*
X498750Y894646D01*
X536725D01*
X537535Y892690D01*
X539378Y890288D01*
X541780Y888445D01*
X544578Y887286D01*
X547580Y886891D01*
X550582Y887286D01*
X553380Y888445D01*
X555782Y890288D01*
X557625Y892690D01*
X558784Y895488D01*
X559179Y898490D01*
X558784Y901492D01*
X557625Y904290D01*
X555782Y906692D01*
X553380Y908535D01*
X550582Y909694D01*
X547580Y910089D01*
X544578Y909694D01*
X541780Y908535D01*
X539378Y906692D01*
X537535Y904290D01*
X536725Y902334D01*
X500342D01*
X493494Y909182D01*
Y929418D01*
X494667Y929904D01*
X494813Y929758D01*
X494827Y929737D01*
X502282Y922282D01*
X503529Y921449D01*
X503773Y921400D01*
X505000Y921156D01*
X505000Y921156D01*
X572158D01*
X578736Y914578D01*
Y857345D01*
X576780Y856535D01*
X574378Y854692D01*
X572535Y852290D01*
X571376Y849492D01*
X570981Y846490D01*
X571376Y843488D01*
X572535Y840690D01*
X574378Y838288D01*
X576780Y836445D01*
X579578Y835286D01*
X582580Y834891D01*
X585582Y835286D01*
X588380Y836445D01*
X590782Y838288D01*
X592625Y840690D01*
X593784Y843488D01*
X594179Y846490D01*
X593784Y849492D01*
X592625Y852290D01*
X590782Y854692D01*
X588380Y856535D01*
X586424Y857345D01*
Y916170D01*
X586424Y916170D01*
X586180Y917397D01*
X586131Y917641D01*
X585298Y918888D01*
X576468Y927718D01*
X575221Y928551D01*
X574977Y928600D01*
X573750Y928844D01*
X573750Y928844D01*
X506592D01*
X500277Y935159D01*
X500263Y935180D01*
X500263Y935180D01*
X498534Y936909D01*
Y941871D01*
X499707Y942357D01*
X499782Y942282D01*
X499782Y942282D01*
X501029Y941449D01*
X502500Y941156D01*
X605908D01*
X613736Y933328D01*
Y909345D01*
X611780Y908535D01*
X609378Y906692D01*
X607535Y904290D01*
X606376Y901492D01*
X605981Y898490D01*
X606376Y895488D01*
X607535Y892690D01*
X609378Y890288D01*
X611780Y888445D01*
X614578Y887286D01*
X617580Y886891D01*
X620582Y887286D01*
X623380Y888445D01*
X625782Y890288D01*
X627625Y892690D01*
X628784Y895488D01*
X629179Y898490D01*
X628784Y901492D01*
X627625Y904290D01*
X625782Y906692D01*
X623380Y908535D01*
X621424Y909345D01*
Y934920D01*
X621131Y936391D01*
X620298Y937638D01*
X620298Y937638D01*
X610218Y947718D01*
X608971Y948551D01*
X608727Y948600D01*
X607500Y948844D01*
X607500Y948844D01*
X504092D01*
X503574Y949362D01*
Y959753D01*
X504844Y960379D01*
X506700Y958955D01*
X509498Y957796D01*
X512500Y957401D01*
X515502Y957796D01*
X518300Y958955D01*
X520702Y960798D01*
X522545Y963200D01*
X523704Y965998D01*
X524099Y969000D01*
X523704Y972002D01*
X522545Y974800D01*
X520702Y977202D01*
X518300Y979045D01*
X515502Y980204D01*
X512500Y980599D01*
X509498Y980204D01*
X506700Y979045D01*
X504844Y977621D01*
X503574Y978247D01*
Y1030638D01*
X504087Y1031151D01*
X539752D01*
X540183Y1029881D01*
X539298Y1029202D01*
X537455Y1026800D01*
X536296Y1024002D01*
X535901Y1021000D01*
X536296Y1017998D01*
X537455Y1015200D01*
X539298Y1012798D01*
X541700Y1010955D01*
X544498Y1009796D01*
X547500Y1009401D01*
X550502Y1009796D01*
X553300Y1010955D01*
X555702Y1012798D01*
X557545Y1015200D01*
X558704Y1017998D01*
X559099Y1021000D01*
X558704Y1024002D01*
X557545Y1026800D01*
X555702Y1029202D01*
X554817Y1029881D01*
X555248Y1031151D01*
X590000D01*
X591473Y1031444D01*
X592722Y1032278D01*
X622339Y1061896D01*
X625775D01*
X626125Y1061662D01*
X627447Y1061399D01*
X643292D01*
X644614Y1061662D01*
X645734Y1062410D01*
X646483Y1063531D01*
X646746Y1064852D01*
Y1066626D01*
X646483Y1067948D01*
X645787Y1068989D01*
X646483Y1070031D01*
X646746Y1071352D01*
Y1073126D01*
X646483Y1074448D01*
X645787Y1075489D01*
X646483Y1076530D01*
X646746Y1077852D01*
Y1079626D01*
X646483Y1080948D01*
X645787Y1081989D01*
X646483Y1083030D01*
X646746Y1084352D01*
Y1086126D01*
X646483Y1087448D01*
X645787Y1088489D01*
X646483Y1089530D01*
X646746Y1090852D01*
Y1092626D01*
X646483Y1093947D01*
X645810Y1094954D01*
X646521Y1096017D01*
X646711Y1096971D01*
X635370D01*
Y1099511D01*
X646711D01*
X646521Y1100465D01*
X645811Y1101527D01*
X646483Y1102532D01*
X646746Y1103854D01*
Y1105628D01*
X646617Y1106274D01*
X646483Y1106950D01*
X647540Y1107649D01*
X647723Y1107685D01*
X648972Y1108519D01*
X648986Y1108541D01*
X650667Y1110222D01*
X650668Y1110222D01*
X651501Y1111469D01*
X651793Y1112941D01*
Y1121367D01*
X651804Y1121418D01*
Y1128295D01*
X651804Y1128295D01*
X651511Y1129768D01*
X650676Y1131017D01*
X642599Y1139094D01*
Y1142555D01*
X643256Y1142994D01*
X644637Y1145061D01*
X645123Y1147500D01*
X644637Y1149939D01*
X643256Y1152006D01*
X641189Y1153387D01*
X638750Y1153872D01*
X636311Y1153387D01*
X634244Y1152006D01*
X632863Y1149939D01*
X632813Y1149690D01*
X629470D01*
Y1142500D01*
Y1135310D01*
X634690D01*
X634690Y1135310D01*
Y1135310D01*
X635875Y1135007D01*
X636028Y1134778D01*
X641119Y1129688D01*
X640633Y1128515D01*
X624060D01*
Y1128090D01*
X604241D01*
X602768Y1127797D01*
X601519Y1126962D01*
X594346Y1119789D01*
X587000D01*
Y1121450D01*
X563832D01*
X563693Y1121838D01*
X563747Y1122054D01*
X564601Y1123072D01*
X583000D01*
X584561Y1123382D01*
X585884Y1124266D01*
X586238Y1124796D01*
X588704D01*
X588730Y1124791D01*
X590203Y1125084D01*
X591452Y1125918D01*
X595222Y1129688D01*
X596056Y1130937D01*
X596349Y1132410D01*
Y1137500D01*
X596349Y1137500D01*
X596354Y1137506D01*
X605350D01*
Y1135350D01*
X618250D01*
Y1148926D01*
X618250Y1149650D01*
X619294Y1150196D01*
X619294Y1150196D01*
X620264D01*
X620290Y1150191D01*
X620680Y1150268D01*
X621710Y1149178D01*
Y1143770D01*
X626930D01*
Y1149690D01*
X622861D01*
X622475Y1150960D01*
X623012Y1151318D01*
X629094Y1157401D01*
X638716D01*
X638741Y1157406D01*
X643408D01*
X647406Y1153408D01*
Y1139399D01*
X647406Y1139399D01*
X647650Y1138173D01*
X647699Y1137928D01*
X648532Y1136681D01*
X652954Y1132260D01*
X654201Y1131426D01*
X655672Y1131134D01*
X659680D01*
X669291Y1121523D01*
X669291Y1121523D01*
X670125Y1120966D01*
X670538Y1120689D01*
X672009Y1120397D01*
X672010Y1120397D01*
X682565D01*
X683513Y1119127D01*
X683414Y1118628D01*
Y1116854D01*
X683677Y1115532D01*
X684373Y1114491D01*
X683677Y1113449D01*
X683414Y1112128D01*
Y1110354D01*
X683677Y1109032D01*
X684373Y1107991D01*
X683677Y1106950D01*
X683414Y1105628D01*
Y1103854D01*
X683677Y1102532D01*
X684373Y1101491D01*
X683677Y1100450D01*
X683414Y1099128D01*
Y1097354D01*
X683677Y1096032D01*
X684373Y1094990D01*
X683677Y1093947D01*
X683414Y1092626D01*
Y1090852D01*
X683677Y1089530D01*
X684373Y1088489D01*
X683677Y1087448D01*
X683414Y1086126D01*
Y1084352D01*
X683677Y1083030D01*
X684373Y1081989D01*
X683677Y1080948D01*
X683414Y1079626D01*
Y1077852D01*
X683677Y1076530D01*
X684373Y1075489D01*
X683677Y1074448D01*
X683414Y1073126D01*
Y1071352D01*
X683677Y1070031D01*
X684373Y1068989D01*
X683677Y1067948D01*
X683414Y1066626D01*
Y1064852D01*
X683677Y1063531D01*
X684426Y1062410D01*
X685546Y1061662D01*
X686868Y1061399D01*
X701156D01*
Y979092D01*
X649862Y927798D01*
X649029Y926551D01*
X648980Y926307D01*
X648736Y925080D01*
X648736Y925080D01*
Y857345D01*
X646780Y856535D01*
X644378Y854692D01*
X642535Y852290D01*
X641376Y849492D01*
X640981Y846490D01*
X641376Y843488D01*
X642535Y840690D01*
X644378Y838288D01*
X646780Y836445D01*
X649578Y835286D01*
X652580Y834891D01*
X655582Y835286D01*
X658380Y836445D01*
X660782Y838288D01*
X662625Y840690D01*
X663784Y843488D01*
X664179Y846490D01*
X663784Y849492D01*
X662625Y852290D01*
X660782Y854692D01*
X658380Y856535D01*
X656424Y857345D01*
Y923488D01*
X707718Y974782D01*
X708551Y976029D01*
X708600Y976273D01*
X708844Y977500D01*
X708844Y977500D01*
Y1063750D01*
X708844Y1063750D01*
X708551Y1065221D01*
X708275Y1065635D01*
X707718Y1066468D01*
X707718Y1066468D01*
X706965Y1067222D01*
X707451Y1068395D01*
X728669D01*
X738906Y1058158D01*
Y955252D01*
X692538Y908884D01*
X690582Y909694D01*
X687580Y910089D01*
X684578Y909694D01*
X681780Y908535D01*
X679378Y906692D01*
X677535Y904290D01*
X676376Y901492D01*
X675981Y898490D01*
X676376Y895488D01*
X677535Y892690D01*
X679378Y890288D01*
X681780Y888445D01*
X684578Y887286D01*
X687580Y886891D01*
X690582Y887286D01*
X693380Y888445D01*
X695782Y890288D01*
X697625Y892690D01*
X698784Y895488D01*
X699179Y898490D01*
X698784Y901492D01*
X697974Y903448D01*
X745468Y950942D01*
X745468Y950942D01*
X746301Y952189D01*
X746594Y953660D01*
Y1059750D01*
X746594Y1059750D01*
X746301Y1061221D01*
X746025Y1061635D01*
X745468Y1062468D01*
X745468Y1062468D01*
X734219Y1073717D01*
X734705Y1074890D01*
X736398D01*
X737561Y1074113D01*
X740000Y1073627D01*
X742439Y1074113D01*
X744506Y1075494D01*
X745887Y1077561D01*
X746372Y1080000D01*
X745887Y1082439D01*
X744506Y1084506D01*
X742439Y1085887D01*
X740000Y1086373D01*
X737561Y1085887D01*
X735494Y1084506D01*
X734212Y1082588D01*
X728633D01*
X728107Y1083858D01*
X730729Y1086480D01*
X732500Y1086127D01*
X734939Y1086613D01*
X737006Y1087994D01*
X738387Y1090061D01*
X738873Y1092500D01*
X738387Y1094939D01*
X737006Y1097006D01*
X734939Y1098387D01*
X732500Y1098873D01*
X731100Y1098594D01*
X730337Y1099737D01*
X730887Y1100561D01*
X731373Y1103000D01*
X730887Y1105439D01*
X729506Y1107506D01*
X727439Y1108887D01*
X725000Y1109372D01*
X722619Y1108899D01*
X722550Y1108894D01*
X721349Y1109605D01*
Y1117500D01*
X721344Y1117526D01*
Y1134250D01*
X721344Y1134250D01*
X721051Y1135721D01*
X720775Y1136135D01*
X720218Y1136968D01*
X720218Y1136968D01*
X706198Y1150988D01*
X704951Y1151821D01*
X704707Y1151870D01*
X703480Y1152114D01*
X703480Y1152114D01*
X677593D01*
X655757Y1173950D01*
X655742Y1173972D01*
X654493Y1174806D01*
X653020Y1175099D01*
X618750D01*
X617277Y1174806D01*
X616028Y1173972D01*
X616028Y1173972D01*
X614525Y1172468D01*
X613750Y1172622D01*
X611311Y1172137D01*
X609244Y1170756D01*
X607863Y1168689D01*
X607378Y1166250D01*
X607863Y1163811D01*
X609244Y1161744D01*
X611311Y1160363D01*
X613750Y1159877D01*
X616189Y1160363D01*
X618256Y1161744D01*
X619637Y1163811D01*
X620122Y1166250D01*
X621128Y1167401D01*
X651433D01*
X673282Y1145552D01*
X673282Y1145552D01*
X674529Y1144719D01*
X676001Y1144426D01*
X701888D01*
X713656Y1132658D01*
Y1117526D01*
X713651Y1117500D01*
Y1109094D01*
X712405Y1107848D01*
X711315Y1108379D01*
X711224Y1108464D01*
Y1127500D01*
X710931Y1128973D01*
X710097Y1130222D01*
X710075Y1130236D01*
X707593Y1132718D01*
X706346Y1133551D01*
X706102Y1133600D01*
X704875Y1133844D01*
X704875Y1133844D01*
X702401D01*
X702375Y1133849D01*
X701319Y1133639D01*
X684936D01*
X683463Y1133346D01*
X683147Y1133135D01*
X677306D01*
X665981Y1144460D01*
X665886Y1144936D01*
X664505Y1147004D01*
X662437Y1148385D01*
X659999Y1148870D01*
X657560Y1148385D01*
X656364Y1147586D01*
X655094Y1148265D01*
Y1155000D01*
X655094Y1155000D01*
X654801Y1156471D01*
X654525Y1156885D01*
X653968Y1157718D01*
X653968Y1157718D01*
X647718Y1163968D01*
X646471Y1164801D01*
X646227Y1164850D01*
X645000Y1165094D01*
X645000Y1165094D01*
X638741D01*
X638716Y1165099D01*
X627500D01*
X626027Y1164806D01*
X624778Y1163972D01*
X618690Y1157884D01*
X586251D01*
X585884Y1158434D01*
X584561Y1159318D01*
X583000Y1159628D01*
X564000D01*
X562439Y1159318D01*
X561116Y1158434D01*
X560232Y1157111D01*
X559922Y1155550D01*
Y1152550D01*
X560232Y1150989D01*
X561116Y1149666D01*
X562439Y1148782D01*
X564000Y1148472D01*
X583000D01*
X584561Y1148782D01*
X585884Y1149666D01*
X586238Y1150196D01*
X604306D01*
X605350Y1149650D01*
X605350Y1148926D01*
Y1145194D01*
X586245D01*
X585884Y1145734D01*
X584561Y1146618D01*
X583000Y1146928D01*
X564000D01*
X562439Y1146618D01*
X561116Y1145734D01*
X560232Y1144411D01*
X559922Y1142850D01*
Y1139850D01*
X560232Y1138289D01*
X561116Y1136966D01*
X562439Y1136082D01*
X564000Y1135772D01*
X583000D01*
X584561Y1136082D01*
X585884Y1136966D01*
X585958Y1137077D01*
X587376Y1137181D01*
X588651Y1135906D01*
Y1134004D01*
X587395Y1132748D01*
X586010Y1132845D01*
X585884Y1133034D01*
X584561Y1133918D01*
X583000Y1134228D01*
X564000D01*
X562439Y1133918D01*
X561116Y1133034D01*
X560232Y1131711D01*
X560223Y1131662D01*
X559782Y1131368D01*
X559782Y1131368D01*
X556012Y1127598D01*
X555179Y1126351D01*
X555130Y1126107D01*
X554886Y1124880D01*
X554886Y1124880D01*
Y1122368D01*
X553750Y1121299D01*
X545098D01*
Y1142888D01*
X551105Y1148895D01*
X552210Y1150549D01*
X552598Y1152500D01*
Y1170070D01*
X552274Y1171697D01*
X552210Y1172021D01*
X551105Y1173675D01*
X536585Y1188195D01*
X534931Y1189300D01*
X532980Y1189688D01*
X469730D01*
Y1191040D01*
D02*
G37*
G36*
X449770Y1174680D02*
X443850D01*
Y1169460D01*
X449770D01*
Y1174680D01*
D02*
G37*
G36*
X441310D02*
X435390D01*
Y1169460D01*
X441310D01*
Y1174680D01*
D02*
G37*
G36*
X461310D02*
X455390D01*
Y1169460D01*
X461310D01*
Y1174680D01*
D02*
G37*
G36*
X429770D02*
X423850D01*
Y1169460D01*
X429770D01*
Y1174680D01*
D02*
G37*
G36*
X364625Y1171028D02*
X355475D01*
X353924Y1170719D01*
X352609Y1169841D01*
X351731Y1168526D01*
X351422Y1166975D01*
Y1164025D01*
X351731Y1162474D01*
X352609Y1161159D01*
X353924Y1160281D01*
X355475Y1159972D01*
X364625D01*
X366176Y1160281D01*
X367491Y1161159D01*
X368369Y1162474D01*
X368678Y1164025D01*
Y1166975D01*
X368369Y1168526D01*
X367491Y1169841D01*
X366176Y1170719D01*
X364625Y1171028D01*
D02*
G37*
G36*
X421310Y1151480D02*
X415390D01*
Y1146260D01*
X421310D01*
Y1151480D01*
D02*
G37*
G36*
X401310D02*
X395390D01*
Y1146260D01*
X401310D01*
Y1151480D01*
D02*
G37*
G36*
X409770D02*
X403850D01*
Y1146260D01*
X409770D01*
Y1151480D01*
D02*
G37*
G36*
X449770D02*
X443850D01*
Y1146260D01*
X449770D01*
Y1151480D01*
D02*
G37*
G36*
X441310Y1143720D02*
X435390D01*
Y1138500D01*
X441310D01*
Y1143720D01*
D02*
G37*
G36*
X429770D02*
X423850D01*
Y1138500D01*
X429770D01*
Y1143720D01*
D02*
G37*
G36*
X441310Y1151480D02*
X435390D01*
Y1146260D01*
X441310D01*
Y1151480D01*
D02*
G37*
G36*
X449770Y1143720D02*
X443850D01*
Y1138500D01*
X449770D01*
Y1143720D01*
D02*
G37*
G36*
X531000Y1159669D02*
X522770D01*
Y1155320D01*
X535119D01*
Y1155550D01*
X534806Y1157126D01*
X533913Y1158463D01*
X532576Y1159356D01*
X531000Y1159669D01*
D02*
G37*
G36*
X720000Y1185073D02*
X717059Y1184783D01*
X714232Y1183925D01*
X711626Y1182532D01*
X709342Y1180658D01*
X707468Y1178374D01*
X706075Y1175768D01*
X705217Y1172941D01*
X704927Y1170000D01*
X705217Y1167059D01*
X706075Y1164232D01*
X707468Y1161626D01*
X709342Y1159342D01*
X711626Y1157468D01*
X714232Y1156075D01*
X717059Y1155217D01*
X720000Y1154927D01*
X722941Y1155217D01*
X725768Y1156075D01*
X728374Y1157468D01*
X730658Y1159342D01*
X732532Y1161626D01*
X733925Y1164232D01*
X734783Y1167059D01*
X735073Y1170000D01*
X734783Y1172941D01*
X733925Y1175768D01*
X732532Y1178374D01*
X730658Y1180658D01*
X728374Y1182532D01*
X725768Y1183925D01*
X722941Y1184783D01*
X720000Y1185073D01*
D02*
G37*
G36*
X520230Y1159669D02*
X512000D01*
X510424Y1159356D01*
X509087Y1158463D01*
X508194Y1157126D01*
X507881Y1155550D01*
Y1155320D01*
X520230D01*
Y1159669D01*
D02*
G37*
G36*
X343619Y1173730D02*
X326281D01*
Y1173525D01*
X326593Y1171958D01*
X327148Y1171127D01*
X327509Y1169841D01*
X326631Y1168526D01*
X326322Y1166975D01*
Y1164025D01*
X326631Y1162474D01*
X327509Y1161159D01*
X328824Y1160281D01*
X330375Y1159972D01*
X339525D01*
X341076Y1160281D01*
X342391Y1161159D01*
X343269Y1162474D01*
X343578Y1164025D01*
Y1166975D01*
X343269Y1168526D01*
X342391Y1169841D01*
X342752Y1171127D01*
X343307Y1171958D01*
X343619Y1173525D01*
Y1173730D01*
D02*
G37*
G36*
X429770Y1151480D02*
X423850D01*
Y1146260D01*
X429770D01*
Y1151480D01*
D02*
G37*
G36*
X520230Y1152780D02*
X507881D01*
Y1152550D01*
X508194Y1150974D01*
X509087Y1149637D01*
X510424Y1148744D01*
X512000Y1148431D01*
X520230D01*
Y1152780D01*
D02*
G37*
G36*
X535119D02*
X522770D01*
Y1148431D01*
X531000D01*
X532576Y1148744D01*
X533913Y1149637D01*
X534806Y1150974D01*
X535119Y1152550D01*
Y1152780D01*
D02*
G37*
%LPD*%
G36*
X553750Y1108543D02*
X557343Y1105000D01*
X600155D01*
X607500Y1112345D01*
X611250D01*
Y1109470D01*
X615000D01*
Y1106930D01*
X611250D01*
Y1104055D01*
X608750Y1101555D01*
Y1098595D01*
X606250Y1096095D01*
Y1079845D01*
X581250Y1054845D01*
X493750D01*
Y1059906D01*
X493750Y1059906D01*
Y1068492D01*
X493750Y1068492D01*
X493750Y1097934D01*
Y1100662D01*
D01*
Y1108750D01*
Y1113750D01*
Y1115940D01*
Y1117500D01*
Y1118750D01*
X553750D01*
X553750Y1108543D01*
D02*
G37*
G36*
X393797Y949867D02*
X394626Y948786D01*
X396336Y947474D01*
Y818751D01*
X395066Y818153D01*
X393541Y819323D01*
X391220Y820284D01*
X388730Y820612D01*
X386240Y820284D01*
X385272Y819884D01*
X369594Y835562D01*
Y851531D01*
X375428Y857366D01*
X375428Y857366D01*
X376261Y858613D01*
X376554Y860084D01*
Y888896D01*
X376554Y888896D01*
X376261Y890367D01*
X375985Y890781D01*
X375428Y891614D01*
X375428Y891614D01*
X369044Y897999D01*
Y924858D01*
X391448Y947262D01*
X391448Y947262D01*
X392005Y948095D01*
X392281Y948509D01*
X392478Y949499D01*
X393774Y949869D01*
X393797Y949867D01*
D02*
G37*
G36*
X411786Y952344D02*
Y820304D01*
X411640Y820284D01*
X409319Y819323D01*
X407326Y817794D01*
X405797Y815801D01*
X405294Y814587D01*
X404024Y814839D01*
Y946338D01*
X406241Y947257D01*
X408234Y948786D01*
X409763Y950779D01*
X410516Y952597D01*
X411786Y952344D01*
D02*
G37*
D10*
X442580Y1168190D02*
D03*
Y1184590D02*
D03*
X462580Y1168190D02*
D03*
Y1184590D02*
D03*
X382500Y1184450D02*
D03*
Y1168050D02*
D03*
X442580Y1144990D02*
D03*
Y1128590D02*
D03*
X422580Y1144990D02*
D03*
Y1128590D02*
D03*
X402580Y1144990D02*
D03*
Y1128590D02*
D03*
X615000Y1091800D02*
D03*
Y1108200D02*
D03*
X402500Y1168050D02*
D03*
Y1184450D02*
D03*
X422580Y1168190D02*
D03*
Y1184590D02*
D03*
X382580Y1129290D02*
D03*
Y1145690D02*
D03*
D11*
X521500Y1154050D02*
D03*
Y1141350D02*
D03*
Y1115950D02*
D03*
X573500Y1154050D02*
D03*
Y1141350D02*
D03*
X521500Y1128650D02*
D03*
X573500D02*
D03*
D12*
Y1115950D02*
D03*
D13*
X635370Y1124241D02*
D03*
D14*
Y1117741D02*
D03*
Y1111241D02*
D03*
Y1104741D02*
D03*
Y1098241D02*
D03*
Y1091739D02*
D03*
Y1085239D02*
D03*
Y1078739D02*
D03*
Y1072239D02*
D03*
Y1065739D02*
D03*
X694790D02*
D03*
Y1072239D02*
D03*
Y1078739D02*
D03*
Y1085239D02*
D03*
Y1091739D02*
D03*
Y1098241D02*
D03*
Y1104741D02*
D03*
Y1111241D02*
D03*
Y1117741D02*
D03*
Y1124241D02*
D03*
D15*
X628200Y1142500D02*
D03*
X611800D02*
D03*
X481800Y1108750D02*
D03*
X498200D02*
D03*
D16*
X478830Y1148490D02*
D03*
Y1126490D02*
D03*
X461250Y1148500D02*
D03*
Y1126500D02*
D03*
X496250Y1148500D02*
D03*
Y1126500D02*
D03*
D17*
X334950Y1144500D02*
D03*
Y1135000D02*
D03*
Y1125500D02*
D03*
X360050D02*
D03*
Y1144500D02*
D03*
X334950Y1184500D02*
D03*
Y1175000D02*
D03*
Y1165500D02*
D03*
X360050D02*
D03*
Y1184500D02*
D03*
D18*
X432570Y866347D02*
Y882633D01*
Y866347D02*
X439530Y859387D01*
Y810990D02*
Y859387D01*
X360710Y828898D02*
Y855211D01*
X365750Y833970D02*
Y853124D01*
X376030Y949780D02*
Y955590D01*
X360160Y933910D02*
X376030Y949780D01*
X360160Y894319D02*
Y933910D01*
X388730Y949980D02*
Y980990D01*
X365200Y926450D02*
X388730Y949980D01*
X365200Y896406D02*
Y926450D01*
X361440Y946440D02*
Y979100D01*
X355120Y940120D02*
X361440Y946440D01*
X355120Y892231D02*
Y940120D01*
X365200Y896406D02*
X372710Y888896D01*
Y860084D02*
Y888896D01*
X365750Y853124D02*
X372710Y860084D01*
X365750Y833970D02*
X388730Y810990D01*
X355670Y818650D02*
Y857299D01*
Y818650D02*
X363330Y810990D01*
X350630Y785590D02*
Y859387D01*
X357590Y866347D01*
X360160Y894319D02*
X367670Y886809D01*
Y862171D02*
Y886809D01*
X360710Y855211D02*
X367670Y862171D01*
X350080Y890143D02*
Y954990D01*
Y890143D02*
X357590Y882633D01*
Y866347D02*
Y882633D01*
X362630Y864259D02*
Y884721D01*
X355670Y857299D02*
X362630Y864259D01*
X312580Y774990D02*
Y1180080D01*
X360710Y828898D02*
X376030Y813578D01*
Y785590D02*
Y813578D01*
X361440Y979100D02*
X363330Y980990D01*
X355120Y892231D02*
X362630Y884721D01*
X400180Y783090D02*
Y953640D01*
X573500Y1141350D02*
X610650D01*
X573580Y1154040D02*
X620290D01*
X573510Y1128640D02*
X588730D01*
X561029Y1109090D02*
X598849D01*
X607500Y1117741D01*
X605700Y1108200D02*
X615000D01*
X591239Y1093739D02*
X605700Y1108200D01*
X547511Y1093739D02*
X591239D01*
X610650Y1141350D02*
X611800Y1142500D01*
X312580Y1110000D02*
X365080D01*
X312500Y1144500D02*
X334950D01*
X415630Y808740D02*
Y978690D01*
X655672Y1134978D02*
X661272D01*
X651250Y1139399D02*
X655672Y1134978D01*
X432504Y1136254D02*
Y1136259D01*
X432500Y1136250D02*
X432504Y1136254D01*
X471080Y1137490D02*
X486580D01*
X651250Y1139399D02*
Y1155000D01*
X645000Y1161250D02*
X651250Y1155000D01*
X638716Y1161250D02*
X645000D01*
X459440Y1168190D02*
X462580D01*
X442580Y1144990D02*
X445080D01*
X478830Y1148490D02*
X497580D01*
X480080Y1149740D02*
X485080Y1154740D01*
Y1154990D01*
X497580Y1148490D02*
X504730Y1141340D01*
X521580D01*
X460080Y1148490D02*
X471080Y1137490D01*
X616856Y1084040D02*
X621228D01*
X585371Y1052555D02*
X616856Y1084040D01*
X619739Y1072239D02*
X635370D01*
X615080Y1089202D02*
X616339Y1090461D01*
X617449Y1108200D02*
X620908Y1104741D01*
X615000Y1108200D02*
X617449D01*
X620908Y1104741D02*
X635370D01*
X562500Y1128650D02*
X573500D01*
X558730Y1124880D02*
X562500Y1128650D01*
X558730Y1111388D02*
Y1124880D01*
Y1111388D02*
X561029Y1109090D01*
X573500Y1128650D02*
X573510Y1128640D01*
X576250Y1050150D02*
X576255Y1050145D01*
X583003D01*
X585371Y1052513D01*
Y1052555D01*
X583005Y1040050D02*
X587192D01*
X589597Y1042455D01*
X703011Y1065739D02*
X705000Y1063750D01*
X635000Y1037500D02*
X667500D01*
X497545Y932455D02*
X505000Y925000D01*
X498750Y898490D02*
X547580D01*
X489650Y907590D02*
X498750Y898490D01*
X491250Y846490D02*
X512580D01*
X483970Y1037874D02*
X496241Y1050145D01*
X483970Y853770D02*
X491250Y846490D01*
X483970Y853770D02*
Y1037874D01*
X489650Y907590D02*
Y1036426D01*
X498324Y1045100D01*
X494690Y935317D02*
Y1034325D01*
Y935317D02*
X497545Y932462D01*
Y932455D02*
Y932462D01*
X494690Y1034325D02*
X496615Y1036250D01*
X496241Y1050145D02*
X501095D01*
X501100Y1050150D01*
X498324Y1045100D02*
X499008D01*
X499730Y1032230D02*
X502500Y1035000D01*
X499730Y947770D02*
Y1032230D01*
Y947770D02*
X502500Y945000D01*
X694790Y1065739D02*
X703011D01*
X423690Y1127480D02*
X441470D01*
X442580Y1128590D01*
X422580D02*
X423690Y1127480D01*
X486580Y1137490D02*
X497580Y1126490D01*
X471850Y1054350D02*
X481250Y1063750D01*
X495000Y1105550D02*
X498200Y1108750D01*
X672009Y1124241D02*
X694790D01*
X661272Y1134978D02*
X672009Y1124241D01*
X517500Y1063750D02*
X547500Y1093750D01*
X481250Y1063750D02*
X517500D01*
X481880Y1108750D02*
Y1112490D01*
X360130Y1109980D02*
X395070D01*
X402580Y1117490D01*
X521580Y1115940D02*
X547500D01*
X442500Y1128510D02*
X442580Y1128590D01*
X622427Y1085239D02*
X635370D01*
X621228Y1084040D02*
X622427Y1085239D01*
X618241Y1098241D02*
X635370D01*
X696206Y1086195D02*
X725000D01*
X695020Y1085009D02*
X696206Y1086195D01*
X694790Y1085239D02*
X695020Y1085009D01*
X694791Y1072239D02*
X730261D01*
X694790Y1072239D02*
X694791Y1072239D01*
X322580Y764990D02*
X400000D01*
X694790Y1065739D02*
Y1066655D01*
X620739Y1065739D02*
X635370D01*
X479380Y1112490D02*
Y1124690D01*
X312580Y774990D02*
X322580Y764990D01*
X402580Y1117490D02*
Y1128590D01*
X422580D01*
X432570Y882633D02*
X439530Y889593D01*
Y980990D01*
X497580Y1126490D02*
X499730Y1128640D01*
X521580D01*
X460080Y1126490D02*
X477580D01*
X479380Y1124690D01*
X382580Y1145690D02*
Y1151126D01*
X392580Y1161126D01*
Y1182420D01*
X360130Y1144490D02*
X375330Y1129290D01*
X382580D01*
X360050Y1184500D02*
X364870D01*
X382580Y1166790D01*
X312580Y1180080D02*
X317000Y1184500D01*
X334950D01*
X442500Y1128510D02*
X445000Y1126010D01*
X443750Y1124760D02*
X445000Y1126010D01*
X443750Y1120000D02*
Y1124760D01*
X687580Y898490D02*
X742750Y953660D01*
Y1059750D01*
X730261Y1072239D02*
X742750Y1059750D01*
X646250Y1111241D02*
X647950Y1112941D01*
Y1121413D01*
X647955Y1121418D01*
X717500Y1117500D02*
Y1134250D01*
X703480Y1148270D02*
X717500Y1134250D01*
X702375Y1130000D02*
X704875D01*
X707375Y1127500D01*
X653020Y1171250D02*
X676001Y1148270D01*
X703480D01*
X540000Y1101250D02*
X547511Y1093739D01*
X502500Y945000D02*
X607500D01*
X617580Y934920D01*
Y898490D02*
Y934920D01*
X505000Y925000D02*
X573750D01*
X582580Y916170D01*
Y846490D02*
Y916170D01*
X652580Y846490D02*
Y925080D01*
X705000Y977500D01*
Y1063750D01*
X471850Y813150D02*
X481250Y803750D01*
X693750D01*
X702500Y812500D01*
Y880000D01*
X722500Y900000D01*
X590411Y1050425D02*
Y1050467D01*
X618683Y1078739D01*
X635370D01*
X580914Y1045100D02*
X585086D01*
X590411Y1050425D01*
X460080Y1148490D02*
X478750Y1167160D01*
Y1170000D01*
X471850Y813150D02*
Y915000D01*
Y1054350D01*
D19*
X592500Y1132410D02*
Y1137500D01*
X588730Y1128640D02*
X592500Y1132410D01*
X595940Y1115940D02*
X604241Y1124241D01*
X573580Y1115940D02*
X595940D01*
X604241Y1124241D02*
X635370D01*
X607500Y1117741D02*
X635370D01*
X647955Y1121418D02*
Y1128295D01*
X638750Y1137500D02*
X647955Y1128295D01*
X620290Y1154040D02*
X627500Y1161250D01*
X618750Y1171250D02*
X653020D01*
X613750Y1166250D02*
X618750Y1171250D01*
X659999Y1142498D02*
Y1144999D01*
X588730Y1141270D02*
X592500Y1137500D01*
X619374Y1072239D02*
X619739D01*
X595050Y1047915D02*
X619374Y1072239D01*
X501100Y1050150D02*
X576250D01*
X499008Y1045100D02*
X580914D01*
X500408Y1040050D02*
X583005D01*
X497450Y1037092D02*
X500408Y1040050D01*
X497450Y1037085D02*
Y1037092D01*
X496615Y1036250D02*
X497450Y1037085D01*
X502500Y1035000D02*
X590000D01*
X620739Y1065739D01*
X635370Y1111241D02*
X646250D01*
X717500Y1108142D02*
Y1117500D01*
X707375Y1108423D02*
Y1127500D01*
X589597Y1042455D02*
X595050Y1047908D01*
Y1047915D01*
X725000Y1086195D02*
X731305Y1092500D01*
X732500D01*
X714239Y1091739D02*
X725000Y1102500D01*
X694790Y1091739D02*
X714239D01*
X694790Y1098241D02*
X708241D01*
X703694Y1104741D02*
X707375Y1108423D01*
X694790Y1104741D02*
X703694D01*
X694790Y1078739D02*
X738739D01*
X740000Y1080000D01*
X717475Y1108117D02*
X717500Y1108142D01*
X708241Y1098241D02*
X717475Y1107475D01*
Y1108117D01*
X725000Y1102500D02*
Y1103000D01*
X659999Y1144999D02*
X675712Y1129286D01*
X684432D01*
X684936Y1129790D01*
X702165D01*
X702375Y1130000D01*
X627500Y1161250D02*
X638716D01*
X638750Y1137500D02*
Y1147500D01*
D20*
X462580Y1184590D02*
X532980D01*
X383980D02*
X462580D01*
X382580Y1183190D02*
X383980Y1184590D01*
X532980D02*
X547500Y1170070D01*
X540000Y1101250D02*
Y1145000D01*
X547500Y1152500D01*
Y1170070D01*
D21*
X720000Y1170000D02*
D03*
D22*
X363330Y980990D02*
D03*
X388730D02*
D03*
X414130D02*
D03*
X439530D02*
D03*
X426830Y955590D02*
D03*
X401430D02*
D03*
X376030D02*
D03*
X350630D02*
D03*
X363330Y810990D02*
D03*
X388730D02*
D03*
X414130D02*
D03*
X439530D02*
D03*
X426830Y785590D02*
D03*
X401430D02*
D03*
X376030D02*
D03*
X350630D02*
D03*
D23*
X452230Y1044490D02*
D03*
X337930D02*
D03*
X452230Y874490D02*
D03*
X337930D02*
D03*
D24*
X722500Y969000D02*
D03*
X687500Y1021000D02*
D03*
X652500Y969000D02*
D03*
X617500Y1021000D02*
D03*
X582500Y969000D02*
D03*
X547500Y1021000D02*
D03*
X512500Y969000D02*
D03*
X512580Y846490D02*
D03*
X547580Y898490D02*
D03*
X582580Y846490D02*
D03*
X617580Y898490D02*
D03*
X652580Y846490D02*
D03*
X687580Y898490D02*
D03*
X722580Y846490D02*
D03*
D25*
X388750Y828250D02*
D03*
X408000D02*
D03*
X427750D02*
D03*
X678750Y1075000D02*
D03*
X613750Y1166250D02*
D03*
X432500Y1195000D02*
D03*
X446250Y1156250D02*
D03*
X498750Y1136250D02*
D03*
X502500Y1171250D02*
D03*
X538750Y1157500D02*
D03*
X681250D02*
D03*
X738750Y1148750D02*
D03*
X580000Y1167500D02*
D03*
X659999Y1142498D02*
D03*
X485080Y1154990D02*
D03*
X553750Y868750D02*
D03*
X615005Y1097509D02*
D03*
X522500Y1020000D02*
D03*
X371250Y1155000D02*
D03*
X466250Y1113750D02*
D03*
X635000Y1037500D02*
D03*
X667500D02*
D03*
X530000Y935000D02*
D03*
X498750Y916250D02*
D03*
X483750Y1052500D02*
D03*
X466250Y1073750D02*
D03*
X733750Y1037500D02*
D03*
X735000Y1055000D02*
D03*
X412500Y1195000D02*
D03*
X422500Y1156250D02*
D03*
X433750Y1078750D02*
D03*
X487500Y1122500D02*
D03*
X323750Y1135000D02*
D03*
Y1175000D02*
D03*
X331250Y1092500D02*
D03*
X332500Y1007500D02*
D03*
Y925000D02*
D03*
Y820000D02*
D03*
X700000Y758750D02*
D03*
X627500D02*
D03*
X450000Y1007500D02*
D03*
X675000Y928750D02*
D03*
X540000Y868750D02*
D03*
X527500Y855000D02*
D03*
X567500D02*
D03*
X743750Y932500D02*
D03*
X617500Y846250D02*
D03*
X688750D02*
D03*
Y978750D02*
D03*
X616250Y970000D02*
D03*
X547500Y968750D02*
D03*
X387500Y1117500D02*
D03*
X732500Y1092500D02*
D03*
X740000Y1080000D02*
D03*
X400000Y764990D02*
D03*
X311250Y760000D02*
D03*
X305000Y873750D02*
D03*
X303750Y1043750D02*
D03*
X443750Y1120000D02*
D03*
X725000Y1103000D02*
D03*
X655500Y1125000D02*
D03*
X660782Y1152556D02*
D03*
X695000Y1137500D02*
D03*
X550000Y1135000D02*
D03*
X680000Y1193750D02*
D03*
X595000Y1192500D02*
D03*
X722500Y900000D02*
D03*
X630000Y1152500D02*
D03*
X638750Y1147500D02*
D03*
X478750Y1170000D02*
D03*
X402500Y1156250D02*
D03*
X471850Y915000D02*
D03*
X427500Y935750D02*
D03*
X407750D02*
D03*
X388500D02*
D03*
X497750Y1081128D02*
D03*
M02*
