G04*
G04 #@! TF.GenerationSoftware,Altium Limited,CircuitStudio,1.5.2 (30)*
G04*
G04 Layer_Color=15065295*
%FSLAX44Y44*%
%MOMM*%
G71*
G01*
G75*
%ADD18C,0.2540*%
%ADD30C,0.2000*%
%ADD31C,0.1270*%
%ADD32C,0.1800*%
G36*
X595943Y1063931D02*
X596194D01*
Y1063868D01*
X596381D01*
Y1063806D01*
X596506D01*
Y1063743D01*
X596631D01*
Y1063681D01*
X596694D01*
Y1063618D01*
X596819D01*
Y1063556D01*
X596881D01*
Y1063493D01*
X596944D01*
Y1063430D01*
X597006D01*
Y1063368D01*
X597069D01*
Y1063306D01*
X597131D01*
Y1063243D01*
X597194D01*
Y1063180D01*
Y1063118D01*
X597256D01*
Y1063055D01*
X597319D01*
Y1062993D01*
Y1062930D01*
X597381D01*
Y1062868D01*
Y1062805D01*
X597444D01*
Y1062743D01*
Y1062680D01*
Y1062618D01*
X597506D01*
Y1062555D01*
Y1062493D01*
Y1062430D01*
X597569D01*
Y1062368D01*
Y1062305D01*
Y1062243D01*
Y1062180D01*
Y1062118D01*
Y1062055D01*
Y1061992D01*
Y1061930D01*
Y1061868D01*
Y1061805D01*
Y1061742D01*
Y1061680D01*
Y1061617D01*
Y1061555D01*
Y1061492D01*
Y1061430D01*
Y1061367D01*
Y1061305D01*
Y1061242D01*
Y1061180D01*
Y1061117D01*
Y1061055D01*
Y1060992D01*
X594505D01*
Y1060930D01*
Y1060867D01*
Y1060805D01*
Y1060742D01*
X594568D01*
Y1060680D01*
Y1060617D01*
Y1060555D01*
X594630D01*
Y1060492D01*
Y1060430D01*
X594693D01*
Y1060367D01*
Y1060304D01*
X594756D01*
Y1060242D01*
X594818D01*
Y1060179D01*
X594880D01*
Y1060117D01*
X594943D01*
Y1060054D01*
X595006D01*
Y1059992D01*
X595131D01*
Y1059929D01*
X595381D01*
Y1059867D01*
X595943D01*
Y1059929D01*
X596131D01*
Y1059992D01*
X596256D01*
Y1060054D01*
X596381D01*
Y1060117D01*
X596506D01*
Y1060179D01*
X596569D01*
Y1060242D01*
X596631D01*
Y1060304D01*
X596694D01*
Y1060367D01*
X596756D01*
Y1060304D01*
X596819D01*
Y1060242D01*
X596944D01*
Y1060179D01*
X597006D01*
Y1060117D01*
X597069D01*
Y1060054D01*
X597131D01*
Y1059992D01*
X597194D01*
Y1059929D01*
X597319D01*
Y1059867D01*
X597381D01*
Y1059804D01*
X597444D01*
Y1059742D01*
X597506D01*
Y1059679D01*
Y1059617D01*
X597444D01*
Y1059554D01*
X597319D01*
Y1059492D01*
X597256D01*
Y1059429D01*
X597194D01*
Y1059367D01*
X597131D01*
Y1059304D01*
X597069D01*
Y1059242D01*
X596944D01*
Y1059179D01*
X596819D01*
Y1059117D01*
X596756D01*
Y1059054D01*
X596569D01*
Y1058991D01*
X596381D01*
Y1058929D01*
X596131D01*
Y1058866D01*
X595193D01*
Y1058929D01*
X594943D01*
Y1058991D01*
X594756D01*
Y1059054D01*
X594568D01*
Y1059117D01*
X594443D01*
Y1059179D01*
X594380D01*
Y1059242D01*
X594318D01*
Y1059304D01*
X594193D01*
Y1059367D01*
X594130D01*
Y1059429D01*
X594068D01*
Y1059492D01*
X594005D01*
Y1059554D01*
X593943D01*
Y1059617D01*
Y1059679D01*
X593880D01*
Y1059742D01*
X593818D01*
Y1059804D01*
Y1059867D01*
X593755D01*
Y1059929D01*
Y1059992D01*
X593693D01*
Y1060054D01*
Y1060117D01*
X593630D01*
Y1060179D01*
Y1060242D01*
Y1060304D01*
X593568D01*
Y1060367D01*
Y1060430D01*
Y1060492D01*
Y1060555D01*
X593505D01*
Y1060617D01*
Y1060680D01*
Y1060742D01*
Y1060805D01*
Y1060867D01*
Y1060930D01*
Y1060992D01*
Y1061055D01*
X593442D01*
Y1061117D01*
Y1061180D01*
Y1061242D01*
Y1061305D01*
Y1061367D01*
Y1061430D01*
Y1061492D01*
Y1061555D01*
Y1061617D01*
Y1061680D01*
Y1061742D01*
X593505D01*
Y1061805D01*
Y1061868D01*
Y1061930D01*
Y1061992D01*
Y1062055D01*
Y1062118D01*
Y1062180D01*
Y1062243D01*
X593568D01*
Y1062305D01*
Y1062368D01*
Y1062430D01*
Y1062493D01*
X593630D01*
Y1062555D01*
Y1062618D01*
Y1062680D01*
X593693D01*
Y1062743D01*
Y1062805D01*
Y1062868D01*
X593755D01*
Y1062930D01*
Y1062993D01*
X593818D01*
Y1063055D01*
Y1063118D01*
X593880D01*
Y1063180D01*
X593943D01*
Y1063243D01*
X594005D01*
Y1063306D01*
Y1063368D01*
X594068D01*
Y1063430D01*
X594130D01*
Y1063493D01*
X594193D01*
Y1063556D01*
X594318D01*
Y1063618D01*
X594380D01*
Y1063681D01*
X594443D01*
Y1063743D01*
X594568D01*
Y1063806D01*
X594693D01*
Y1063868D01*
X594880D01*
Y1063931D01*
X595131D01*
Y1063993D01*
X595943D01*
Y1063931D01*
D02*
G37*
G36*
X578437D02*
X578688D01*
Y1063868D01*
X578875D01*
Y1063806D01*
X579000D01*
Y1063743D01*
X579125D01*
Y1063681D01*
X579188D01*
Y1063618D01*
X579313D01*
Y1063556D01*
X579375D01*
Y1063493D01*
X579438D01*
Y1063430D01*
X579500D01*
Y1063368D01*
X579563D01*
Y1063306D01*
X579625D01*
Y1063243D01*
X579688D01*
Y1063180D01*
Y1063118D01*
X579750D01*
Y1063055D01*
X579813D01*
Y1062993D01*
Y1062930D01*
X579875D01*
Y1062868D01*
Y1062805D01*
X579938D01*
Y1062743D01*
Y1062680D01*
Y1062618D01*
X580000D01*
Y1062555D01*
Y1062493D01*
Y1062430D01*
Y1062368D01*
Y1062305D01*
X580063D01*
Y1062243D01*
Y1062180D01*
Y1062118D01*
Y1062055D01*
Y1061992D01*
Y1061930D01*
Y1061868D01*
Y1061805D01*
Y1061742D01*
Y1061680D01*
Y1061617D01*
Y1061555D01*
Y1061492D01*
Y1061430D01*
Y1061367D01*
Y1061305D01*
Y1061242D01*
Y1061180D01*
Y1061117D01*
Y1061055D01*
Y1060992D01*
Y1060930D01*
Y1060867D01*
Y1060805D01*
Y1060742D01*
Y1060680D01*
Y1060617D01*
Y1060555D01*
X580000D01*
Y1060492D01*
Y1060430D01*
Y1060367D01*
Y1060304D01*
Y1060242D01*
X579938D01*
Y1060179D01*
Y1060117D01*
Y1060054D01*
X579875D01*
Y1059992D01*
Y1059929D01*
X579813D01*
Y1059867D01*
Y1059804D01*
X579750D01*
Y1059742D01*
X579688D01*
Y1059679D01*
Y1059617D01*
X579625D01*
Y1059554D01*
X579563D01*
Y1059492D01*
X579500D01*
Y1059429D01*
X579438D01*
Y1059367D01*
X579375D01*
Y1059304D01*
X579313D01*
Y1059242D01*
X579188D01*
Y1059179D01*
X579125D01*
Y1059117D01*
X579000D01*
Y1059054D01*
X578875D01*
Y1058991D01*
X578688D01*
Y1058929D01*
X578375D01*
Y1058866D01*
X577625D01*
Y1058929D01*
X577312D01*
Y1058991D01*
X577187D01*
Y1059054D01*
X576999D01*
Y1059117D01*
X576937D01*
Y1059179D01*
X576812D01*
Y1059242D01*
X576749D01*
Y1059304D01*
X576624D01*
Y1059367D01*
X576562D01*
Y1059429D01*
X576499D01*
Y1059492D01*
X576437D01*
Y1059554D01*
Y1059617D01*
X576374D01*
Y1059679D01*
X576312D01*
Y1059742D01*
X576249D01*
Y1059804D01*
Y1059867D01*
X576187D01*
Y1059929D01*
Y1059992D01*
X576124D01*
Y1060054D01*
Y1060117D01*
Y1060179D01*
X576062D01*
Y1060242D01*
Y1060304D01*
Y1060367D01*
Y1060430D01*
X575999D01*
Y1060492D01*
Y1060555D01*
Y1060617D01*
Y1060680D01*
Y1060742D01*
Y1060805D01*
X575937D01*
Y1060867D01*
Y1060930D01*
Y1060992D01*
Y1061055D01*
Y1061117D01*
Y1061180D01*
Y1061242D01*
Y1061305D01*
Y1061367D01*
Y1061430D01*
Y1061492D01*
Y1061555D01*
Y1061617D01*
Y1061680D01*
Y1061742D01*
Y1061805D01*
Y1061868D01*
Y1061930D01*
Y1061992D01*
Y1062055D01*
X575999D01*
Y1062118D01*
Y1062180D01*
Y1062243D01*
Y1062305D01*
Y1062368D01*
Y1062430D01*
X576062D01*
Y1062493D01*
Y1062555D01*
Y1062618D01*
Y1062680D01*
X576124D01*
Y1062743D01*
Y1062805D01*
Y1062868D01*
X576187D01*
Y1062930D01*
Y1062993D01*
X576249D01*
Y1063055D01*
Y1063118D01*
X576312D01*
Y1063180D01*
X576374D01*
Y1063243D01*
X576437D01*
Y1063306D01*
Y1063368D01*
X576499D01*
Y1063430D01*
X576562D01*
Y1063493D01*
X576624D01*
Y1063556D01*
X576749D01*
Y1063618D01*
X576812D01*
Y1063681D01*
X576937D01*
Y1063743D01*
X576999D01*
Y1063806D01*
X577187D01*
Y1063868D01*
X577374D01*
Y1063931D01*
X577562D01*
Y1063993D01*
X578437D01*
Y1063931D01*
D02*
G37*
G36*
X590317Y1056115D02*
X590692D01*
Y1056053D01*
X590942D01*
Y1055991D01*
X591067D01*
Y1055928D01*
X591192D01*
Y1055865D01*
X591317D01*
Y1055803D01*
X591379D01*
Y1055740D01*
X591442D01*
Y1055678D01*
X591567D01*
Y1055615D01*
X591629D01*
Y1055553D01*
X591692D01*
Y1055490D01*
Y1055428D01*
X591754D01*
Y1055365D01*
X591817D01*
Y1055303D01*
X591880D01*
Y1055240D01*
Y1055178D01*
X591942D01*
Y1055115D01*
Y1055053D01*
X592005D01*
Y1054990D01*
Y1054928D01*
X592067D01*
Y1054865D01*
Y1054803D01*
Y1054740D01*
X592130D01*
Y1054678D01*
Y1054615D01*
Y1054553D01*
X592192D01*
Y1054490D01*
Y1054427D01*
Y1054365D01*
Y1054302D01*
Y1054240D01*
Y1054177D01*
Y1054115D01*
Y1054052D01*
Y1053990D01*
Y1053927D01*
Y1053865D01*
Y1053802D01*
Y1053740D01*
Y1053677D01*
Y1053615D01*
Y1053552D01*
Y1053490D01*
Y1053427D01*
Y1053365D01*
Y1053302D01*
Y1053240D01*
Y1053177D01*
X589129D01*
Y1053114D01*
Y1053052D01*
Y1052989D01*
Y1052927D01*
X589191D01*
Y1052864D01*
Y1052802D01*
Y1052739D01*
Y1052677D01*
X589254D01*
Y1052614D01*
Y1052552D01*
X589316D01*
Y1052489D01*
X589379D01*
Y1052427D01*
Y1052364D01*
X589441D01*
Y1052302D01*
X589504D01*
Y1052239D01*
X589629D01*
Y1052177D01*
X589754D01*
Y1052114D01*
X589879D01*
Y1052052D01*
X590629D01*
Y1052114D01*
X590817D01*
Y1052177D01*
X590942D01*
Y1052239D01*
X591067D01*
Y1052302D01*
X591129D01*
Y1052364D01*
X591192D01*
Y1052427D01*
X591254D01*
Y1052489D01*
X591442D01*
Y1052427D01*
X591504D01*
Y1052364D01*
X591567D01*
Y1052302D01*
X591692D01*
Y1052239D01*
X591754D01*
Y1052177D01*
X591817D01*
Y1052114D01*
X591880D01*
Y1052052D01*
X591942D01*
Y1051989D01*
X592005D01*
Y1051927D01*
X592130D01*
Y1051864D01*
Y1051802D01*
X592067D01*
Y1051739D01*
X592005D01*
Y1051676D01*
X591942D01*
Y1051614D01*
X591880D01*
Y1051551D01*
X591817D01*
Y1051489D01*
X591692D01*
Y1051426D01*
X591629D01*
Y1051364D01*
X591504D01*
Y1051301D01*
X591379D01*
Y1051239D01*
X591254D01*
Y1051176D01*
X591067D01*
Y1051114D01*
X590879D01*
Y1051051D01*
X589691D01*
Y1051114D01*
X589441D01*
Y1051176D01*
X589316D01*
Y1051239D01*
X589191D01*
Y1051301D01*
X589066D01*
Y1051364D01*
X588941D01*
Y1051426D01*
X588879D01*
Y1051489D01*
X588816D01*
Y1051551D01*
X588753D01*
Y1051614D01*
X588691D01*
Y1051676D01*
X588628D01*
Y1051739D01*
X588566D01*
Y1051802D01*
X588503D01*
Y1051864D01*
Y1051927D01*
X588441D01*
Y1051989D01*
Y1052052D01*
X588378D01*
Y1052114D01*
X588316D01*
Y1052177D01*
Y1052239D01*
X588253D01*
Y1052302D01*
Y1052364D01*
Y1052427D01*
Y1052489D01*
X588191D01*
Y1052552D01*
Y1052614D01*
Y1052677D01*
X588128D01*
Y1052739D01*
Y1052802D01*
Y1052864D01*
Y1052927D01*
Y1052989D01*
Y1053052D01*
Y1053114D01*
Y1053177D01*
X588066D01*
Y1053240D01*
Y1053302D01*
Y1053365D01*
Y1053427D01*
Y1053490D01*
Y1053552D01*
Y1053615D01*
Y1053677D01*
Y1053740D01*
Y1053802D01*
Y1053865D01*
Y1053927D01*
Y1053990D01*
Y1054052D01*
X588128D01*
Y1054115D01*
Y1054177D01*
Y1054240D01*
Y1054302D01*
Y1054365D01*
Y1054427D01*
X588191D01*
Y1054490D01*
Y1054553D01*
Y1054615D01*
Y1054678D01*
X588253D01*
Y1054740D01*
Y1054803D01*
Y1054865D01*
X588316D01*
Y1054928D01*
Y1054990D01*
X588378D01*
Y1055053D01*
Y1055115D01*
Y1055178D01*
X588441D01*
Y1055240D01*
Y1055303D01*
X588503D01*
Y1055365D01*
X588566D01*
Y1055428D01*
X588628D01*
Y1055490D01*
X588691D01*
Y1055553D01*
Y1055615D01*
X588753D01*
Y1055678D01*
X588879D01*
Y1055740D01*
X588941D01*
Y1055803D01*
X589003D01*
Y1055865D01*
X589129D01*
Y1055928D01*
X589254D01*
Y1055991D01*
X589379D01*
Y1056053D01*
X589566D01*
Y1056115D01*
X589941D01*
Y1056178D01*
X590317D01*
Y1056115D01*
D02*
G37*
G36*
X581939D02*
X582376D01*
Y1056053D01*
X582626D01*
Y1055991D01*
X582814D01*
Y1055928D01*
X582939D01*
Y1055865D01*
X583002D01*
Y1055803D01*
X583126D01*
Y1055740D01*
X583189D01*
Y1055678D01*
X583251D01*
Y1055615D01*
X583314D01*
Y1055553D01*
X583377D01*
Y1055490D01*
X583439D01*
Y1055428D01*
Y1055365D01*
X583502D01*
Y1055303D01*
Y1055240D01*
X583564D01*
Y1055178D01*
Y1055115D01*
Y1055053D01*
X583627D01*
Y1054990D01*
Y1054928D01*
Y1054865D01*
Y1054803D01*
Y1054740D01*
Y1054678D01*
Y1054615D01*
X583689D01*
Y1054553D01*
Y1054490D01*
Y1054427D01*
Y1054365D01*
Y1054302D01*
Y1054240D01*
Y1054177D01*
Y1054115D01*
Y1054052D01*
Y1053990D01*
Y1053927D01*
Y1053865D01*
Y1053802D01*
Y1053740D01*
Y1053677D01*
Y1053615D01*
Y1053552D01*
Y1053490D01*
Y1053427D01*
Y1053365D01*
Y1053302D01*
Y1053240D01*
Y1053177D01*
Y1053114D01*
Y1053052D01*
Y1052989D01*
Y1052927D01*
Y1052864D01*
Y1052802D01*
Y1052739D01*
Y1052677D01*
Y1052614D01*
Y1052552D01*
Y1052489D01*
Y1052427D01*
Y1052364D01*
Y1052302D01*
Y1052239D01*
Y1052177D01*
Y1052114D01*
Y1052052D01*
Y1051989D01*
Y1051927D01*
Y1051864D01*
Y1051802D01*
Y1051739D01*
Y1051676D01*
Y1051614D01*
Y1051551D01*
Y1051489D01*
Y1051426D01*
Y1051364D01*
Y1051301D01*
Y1051239D01*
Y1051176D01*
Y1051114D01*
Y1051051D01*
X582626D01*
Y1051114D01*
Y1051176D01*
Y1051239D01*
Y1051301D01*
Y1051364D01*
Y1051426D01*
Y1051489D01*
X582564D01*
Y1051426D01*
Y1051364D01*
X582501D01*
Y1051301D01*
X582439D01*
Y1051239D01*
X582314D01*
Y1051176D01*
X582189D01*
Y1051114D01*
X582001D01*
Y1051051D01*
X580876D01*
Y1051114D01*
X580626D01*
Y1051176D01*
X580501D01*
Y1051239D01*
X580313D01*
Y1051301D01*
X580251D01*
Y1051364D01*
X580188D01*
Y1051426D01*
X580063D01*
Y1051489D01*
X580000D01*
Y1051551D01*
X579938D01*
Y1051614D01*
Y1051676D01*
X579875D01*
Y1051739D01*
X579813D01*
Y1051802D01*
Y1051864D01*
X579750D01*
Y1051927D01*
Y1051989D01*
X579688D01*
Y1052052D01*
Y1052114D01*
Y1052177D01*
X579625D01*
Y1052239D01*
Y1052302D01*
Y1052364D01*
Y1052427D01*
Y1052489D01*
Y1052552D01*
Y1052614D01*
Y1052677D01*
Y1052739D01*
Y1052802D01*
Y1052864D01*
Y1052927D01*
X579688D01*
Y1052989D01*
Y1053052D01*
Y1053114D01*
Y1053177D01*
X579750D01*
Y1053240D01*
Y1053302D01*
X579813D01*
Y1053365D01*
Y1053427D01*
X579875D01*
Y1053490D01*
X579938D01*
Y1053552D01*
X580000D01*
Y1053615D01*
X580063D01*
Y1053677D01*
X580126D01*
Y1053740D01*
X580188D01*
Y1053802D01*
X580313D01*
Y1053865D01*
X580438D01*
Y1053927D01*
X580563D01*
Y1053990D01*
X580813D01*
Y1054052D01*
X582626D01*
Y1054115D01*
Y1054177D01*
Y1054240D01*
Y1054302D01*
Y1054365D01*
Y1054427D01*
Y1054490D01*
Y1054553D01*
Y1054615D01*
Y1054678D01*
X582564D01*
Y1054740D01*
Y1054803D01*
Y1054865D01*
X582501D01*
Y1054928D01*
X582439D01*
Y1054990D01*
X582376D01*
Y1055053D01*
X582189D01*
Y1055115D01*
X581814D01*
Y1055178D01*
X581376D01*
Y1055115D01*
X581063D01*
Y1055053D01*
X580938D01*
Y1054990D01*
X580876D01*
Y1054928D01*
X580813D01*
Y1054865D01*
X580751D01*
Y1054803D01*
X580563D01*
Y1054865D01*
X580501D01*
Y1054928D01*
X580438D01*
Y1054990D01*
X580313D01*
Y1055053D01*
X580251D01*
Y1055115D01*
X580188D01*
Y1055178D01*
X580063D01*
Y1055240D01*
X580000D01*
Y1055303D01*
X579938D01*
Y1055365D01*
X579875D01*
Y1055428D01*
Y1055490D01*
X579938D01*
Y1055553D01*
X580000D01*
Y1055615D01*
X580063D01*
Y1055678D01*
X580126D01*
Y1055740D01*
X580188D01*
Y1055803D01*
X580251D01*
Y1055865D01*
X580376D01*
Y1055928D01*
X580501D01*
Y1055991D01*
X580688D01*
Y1056053D01*
X580876D01*
Y1056115D01*
X581376D01*
Y1056178D01*
X581939D01*
Y1056115D01*
D02*
G37*
G36*
X584877Y1063868D02*
Y1063806D01*
Y1063743D01*
Y1063681D01*
Y1063618D01*
Y1063556D01*
Y1063493D01*
Y1063430D01*
Y1063368D01*
Y1063306D01*
Y1063243D01*
Y1063180D01*
Y1063118D01*
Y1063055D01*
Y1062993D01*
Y1062930D01*
Y1062868D01*
Y1062805D01*
Y1062743D01*
Y1062680D01*
Y1062618D01*
Y1062555D01*
Y1062493D01*
Y1062430D01*
Y1062368D01*
Y1062305D01*
Y1062243D01*
Y1062180D01*
Y1062118D01*
Y1062055D01*
Y1061992D01*
Y1061930D01*
Y1061868D01*
Y1061805D01*
Y1061742D01*
Y1061680D01*
Y1061617D01*
Y1061555D01*
Y1061492D01*
Y1061430D01*
Y1061367D01*
Y1061305D01*
Y1061242D01*
Y1061180D01*
Y1061117D01*
Y1061055D01*
Y1060992D01*
Y1060930D01*
Y1060867D01*
Y1060805D01*
Y1060742D01*
Y1060680D01*
Y1060617D01*
Y1060555D01*
Y1060492D01*
Y1060430D01*
Y1060367D01*
Y1060304D01*
Y1060242D01*
Y1060179D01*
Y1060117D01*
Y1060054D01*
Y1059992D01*
Y1059929D01*
Y1059867D01*
Y1059804D01*
Y1059742D01*
Y1059679D01*
Y1059617D01*
Y1059554D01*
Y1059492D01*
Y1059429D01*
Y1059367D01*
Y1059304D01*
Y1059242D01*
Y1059179D01*
Y1059117D01*
Y1059054D01*
Y1058991D01*
Y1058929D01*
X583877D01*
Y1058991D01*
Y1059054D01*
Y1059117D01*
Y1059179D01*
Y1059242D01*
Y1059304D01*
Y1059367D01*
Y1059429D01*
X583814D01*
Y1059367D01*
X583752D01*
Y1059304D01*
X583689D01*
Y1059242D01*
X583627D01*
Y1059179D01*
X583564D01*
Y1059117D01*
X583439D01*
Y1059054D01*
X583377D01*
Y1058991D01*
X583189D01*
Y1058929D01*
X583002D01*
Y1058866D01*
X582189D01*
Y1058929D01*
X582001D01*
Y1058991D01*
X581876D01*
Y1059054D01*
X581751D01*
Y1059117D01*
X581626D01*
Y1059179D01*
X581563D01*
Y1059242D01*
X581438D01*
Y1059304D01*
X581376D01*
Y1059367D01*
X581313D01*
Y1059429D01*
X581251D01*
Y1059492D01*
Y1059554D01*
X581188D01*
Y1059617D01*
X581126D01*
Y1059679D01*
Y1059742D01*
X581063D01*
Y1059804D01*
Y1059867D01*
X581001D01*
Y1059929D01*
Y1059992D01*
Y1060054D01*
X580938D01*
Y1060117D01*
Y1060179D01*
Y1060242D01*
Y1060304D01*
Y1060367D01*
X580876D01*
Y1060430D01*
Y1060492D01*
Y1060555D01*
Y1060617D01*
Y1060680D01*
Y1060742D01*
Y1060805D01*
Y1060867D01*
Y1060930D01*
Y1060992D01*
Y1061055D01*
Y1061117D01*
Y1061180D01*
Y1061242D01*
Y1061305D01*
Y1061367D01*
Y1061430D01*
Y1061492D01*
Y1061555D01*
Y1061617D01*
Y1061680D01*
Y1061742D01*
Y1061805D01*
Y1061868D01*
Y1061930D01*
Y1061992D01*
Y1062055D01*
Y1062118D01*
Y1062180D01*
Y1062243D01*
Y1062305D01*
Y1062368D01*
Y1062430D01*
Y1062493D01*
Y1062555D01*
Y1062618D01*
Y1062680D01*
Y1062743D01*
Y1062805D01*
Y1062868D01*
Y1062930D01*
Y1062993D01*
Y1063055D01*
Y1063118D01*
Y1063180D01*
Y1063243D01*
Y1063306D01*
Y1063368D01*
Y1063430D01*
Y1063493D01*
Y1063556D01*
Y1063618D01*
Y1063681D01*
Y1063743D01*
Y1063806D01*
Y1063868D01*
Y1063931D01*
X581939D01*
Y1063868D01*
Y1063806D01*
Y1063743D01*
Y1063681D01*
Y1063618D01*
Y1063556D01*
Y1063493D01*
Y1063430D01*
Y1063368D01*
Y1063306D01*
Y1063243D01*
Y1063180D01*
Y1063118D01*
Y1063055D01*
Y1062993D01*
Y1062930D01*
Y1062868D01*
Y1062805D01*
Y1062743D01*
Y1062680D01*
Y1062618D01*
Y1062555D01*
Y1062493D01*
Y1062430D01*
Y1062368D01*
Y1062305D01*
Y1062243D01*
Y1062180D01*
Y1062118D01*
Y1062055D01*
Y1061992D01*
Y1061930D01*
Y1061868D01*
Y1061805D01*
Y1061742D01*
Y1061680D01*
Y1061617D01*
Y1061555D01*
Y1061492D01*
Y1061430D01*
Y1061367D01*
Y1061305D01*
Y1061242D01*
Y1061180D01*
Y1061117D01*
Y1061055D01*
Y1060992D01*
Y1060930D01*
Y1060867D01*
Y1060805D01*
Y1060742D01*
Y1060680D01*
X582001D01*
Y1060617D01*
Y1060555D01*
Y1060492D01*
X582064D01*
Y1060430D01*
Y1060367D01*
X582126D01*
Y1060304D01*
X582189D01*
Y1060242D01*
Y1060179D01*
X582251D01*
Y1060117D01*
X582376D01*
Y1060054D01*
X582439D01*
Y1059992D01*
X582626D01*
Y1059929D01*
X583189D01*
Y1059992D01*
X583314D01*
Y1060054D01*
X583439D01*
Y1060117D01*
X583502D01*
Y1060179D01*
X583564D01*
Y1060242D01*
X583627D01*
Y1060304D01*
X583689D01*
Y1060367D01*
Y1060430D01*
X583752D01*
Y1060492D01*
Y1060555D01*
X583814D01*
Y1060617D01*
Y1060680D01*
Y1060742D01*
Y1060805D01*
Y1060867D01*
Y1060930D01*
Y1060992D01*
X583877D01*
Y1061055D01*
Y1061117D01*
Y1061180D01*
Y1061242D01*
Y1061305D01*
Y1061367D01*
Y1061430D01*
Y1061492D01*
Y1061555D01*
Y1061617D01*
Y1061680D01*
Y1061742D01*
Y1061805D01*
Y1061868D01*
Y1061930D01*
Y1061992D01*
Y1062055D01*
Y1062118D01*
Y1062180D01*
Y1062243D01*
Y1062305D01*
Y1062368D01*
Y1062430D01*
Y1062493D01*
Y1062555D01*
Y1062618D01*
Y1062680D01*
Y1062743D01*
Y1062805D01*
Y1062868D01*
Y1062930D01*
Y1062993D01*
Y1063055D01*
Y1063118D01*
Y1063180D01*
Y1063243D01*
Y1063306D01*
Y1063368D01*
Y1063430D01*
Y1063493D01*
Y1063556D01*
Y1063618D01*
Y1063681D01*
Y1063743D01*
Y1063806D01*
Y1063868D01*
Y1063931D01*
X584877D01*
Y1063868D01*
D02*
G37*
G36*
X562057Y1063931D02*
X562244D01*
Y1063868D01*
X562432D01*
Y1063806D01*
X562557D01*
Y1063743D01*
X562682D01*
Y1063681D01*
X562807D01*
Y1063618D01*
X562869D01*
Y1063556D01*
X562932D01*
Y1063493D01*
X563057D01*
Y1063430D01*
X563120D01*
Y1063368D01*
Y1063306D01*
X563182D01*
Y1063243D01*
X563245D01*
Y1063180D01*
X563307D01*
Y1063118D01*
X563370D01*
Y1063055D01*
Y1062993D01*
X563432D01*
Y1062930D01*
Y1062868D01*
X563495D01*
Y1062805D01*
Y1062743D01*
X563557D01*
Y1062680D01*
Y1062618D01*
Y1062555D01*
X563620D01*
Y1062493D01*
Y1062430D01*
Y1062368D01*
Y1062305D01*
Y1062243D01*
X563682D01*
Y1062180D01*
Y1062118D01*
Y1062055D01*
Y1061992D01*
Y1061930D01*
Y1061868D01*
Y1061805D01*
Y1061742D01*
Y1061680D01*
Y1061617D01*
Y1061555D01*
Y1061492D01*
Y1061430D01*
Y1061367D01*
Y1061305D01*
Y1061242D01*
Y1061180D01*
Y1061117D01*
Y1061055D01*
Y1060992D01*
X560619D01*
Y1060930D01*
Y1060867D01*
Y1060805D01*
Y1060742D01*
Y1060680D01*
X560681D01*
Y1060617D01*
Y1060555D01*
Y1060492D01*
X560744D01*
Y1060430D01*
Y1060367D01*
X560806D01*
Y1060304D01*
Y1060242D01*
X560869D01*
Y1060179D01*
X560931D01*
Y1060117D01*
X561056D01*
Y1060054D01*
X561119D01*
Y1059992D01*
X561244D01*
Y1059929D01*
X561432D01*
Y1059867D01*
X562057D01*
Y1059929D01*
X562244D01*
Y1059992D01*
X562369D01*
Y1060054D01*
X562494D01*
Y1060117D01*
X562557D01*
Y1060179D01*
X562682D01*
Y1060242D01*
X562744D01*
Y1060304D01*
X562807D01*
Y1060367D01*
X562869D01*
Y1060304D01*
X562932D01*
Y1060242D01*
X562995D01*
Y1060179D01*
X563057D01*
Y1060117D01*
X563182D01*
Y1060054D01*
X563245D01*
Y1059992D01*
X563307D01*
Y1059929D01*
X563370D01*
Y1059867D01*
X563432D01*
Y1059804D01*
X563495D01*
Y1059742D01*
X563557D01*
Y1059679D01*
Y1059617D01*
X563495D01*
Y1059554D01*
X563432D01*
Y1059492D01*
X563370D01*
Y1059429D01*
X563307D01*
Y1059367D01*
X563245D01*
Y1059304D01*
X563120D01*
Y1059242D01*
X563057D01*
Y1059179D01*
X562932D01*
Y1059117D01*
X562807D01*
Y1059054D01*
X562682D01*
Y1058991D01*
X562494D01*
Y1058929D01*
X562182D01*
Y1058866D01*
X561306D01*
Y1058929D01*
X560994D01*
Y1058991D01*
X560806D01*
Y1059054D01*
X560681D01*
Y1059117D01*
X560556D01*
Y1059179D01*
X560494D01*
Y1059242D01*
X560369D01*
Y1059304D01*
X560306D01*
Y1059367D01*
X560244D01*
Y1059429D01*
X560181D01*
Y1059492D01*
X560119D01*
Y1059554D01*
X560056D01*
Y1059617D01*
X559994D01*
Y1059679D01*
X559931D01*
Y1059742D01*
Y1059804D01*
X559869D01*
Y1059867D01*
Y1059929D01*
X559806D01*
Y1059992D01*
Y1060054D01*
X559743D01*
Y1060117D01*
Y1060179D01*
Y1060242D01*
X559681D01*
Y1060304D01*
Y1060367D01*
Y1060430D01*
Y1060492D01*
X559618D01*
Y1060555D01*
Y1060617D01*
Y1060680D01*
X559556D01*
Y1060742D01*
Y1060805D01*
Y1060867D01*
Y1060930D01*
Y1060992D01*
Y1061055D01*
Y1061117D01*
Y1061180D01*
Y1061242D01*
Y1061305D01*
Y1061367D01*
Y1061430D01*
Y1061492D01*
Y1061555D01*
Y1061617D01*
Y1061680D01*
Y1061742D01*
Y1061805D01*
Y1061868D01*
Y1061930D01*
Y1061992D01*
Y1062055D01*
Y1062118D01*
X559618D01*
Y1062180D01*
Y1062243D01*
Y1062305D01*
Y1062368D01*
X559681D01*
Y1062430D01*
Y1062493D01*
Y1062555D01*
Y1062618D01*
X559743D01*
Y1062680D01*
Y1062743D01*
X559806D01*
Y1062805D01*
Y1062868D01*
X559869D01*
Y1062930D01*
Y1062993D01*
Y1063055D01*
X559931D01*
Y1063118D01*
X559994D01*
Y1063180D01*
Y1063243D01*
X560056D01*
Y1063306D01*
X560119D01*
Y1063368D01*
X560181D01*
Y1063430D01*
X560244D01*
Y1063493D01*
X560306D01*
Y1063556D01*
X560369D01*
Y1063618D01*
X560431D01*
Y1063681D01*
X560556D01*
Y1063743D01*
X560681D01*
Y1063806D01*
X560806D01*
Y1063868D01*
X560994D01*
Y1063931D01*
X561181D01*
Y1063993D01*
X562057D01*
Y1063931D01*
D02*
G37*
G36*
X567183Y1056115D02*
X567496D01*
Y1056053D01*
X567621D01*
Y1055991D01*
X567746D01*
Y1055928D01*
X567871D01*
Y1055865D01*
X567996D01*
Y1055803D01*
X568059D01*
Y1055740D01*
Y1055678D01*
X567996D01*
Y1055615D01*
X567934D01*
Y1055553D01*
X567871D01*
Y1055490D01*
X567809D01*
Y1055428D01*
Y1055365D01*
X567746D01*
Y1055303D01*
X567684D01*
Y1055240D01*
X567621D01*
Y1055178D01*
X567559D01*
Y1055115D01*
X567496D01*
Y1055053D01*
Y1054990D01*
X567434D01*
Y1054928D01*
X567371D01*
Y1054865D01*
X567183D01*
Y1054928D01*
X567121D01*
Y1054990D01*
X566996D01*
Y1055053D01*
X566808D01*
Y1055115D01*
X566496D01*
Y1055053D01*
X566246D01*
Y1054990D01*
X566121D01*
Y1054928D01*
X566058D01*
Y1054865D01*
X565996D01*
Y1054803D01*
X565933D01*
Y1054740D01*
X565871D01*
Y1054678D01*
Y1054615D01*
X565808D01*
Y1054553D01*
Y1054490D01*
X565746D01*
Y1054427D01*
Y1054365D01*
Y1054302D01*
Y1054240D01*
Y1054177D01*
X565683D01*
Y1054115D01*
Y1054052D01*
Y1053990D01*
Y1053927D01*
Y1053865D01*
Y1053802D01*
Y1053740D01*
Y1053677D01*
Y1053615D01*
Y1053552D01*
Y1053490D01*
Y1053427D01*
Y1053365D01*
Y1053302D01*
Y1053240D01*
Y1053177D01*
Y1053114D01*
Y1053052D01*
Y1052989D01*
Y1052927D01*
Y1052864D01*
Y1052802D01*
Y1052739D01*
Y1052677D01*
Y1052614D01*
Y1052552D01*
Y1052489D01*
Y1052427D01*
Y1052364D01*
Y1052302D01*
Y1052239D01*
Y1052177D01*
Y1052114D01*
Y1052052D01*
Y1051989D01*
Y1051927D01*
Y1051864D01*
Y1051802D01*
Y1051739D01*
Y1051676D01*
Y1051614D01*
Y1051551D01*
Y1051489D01*
Y1051426D01*
Y1051364D01*
Y1051301D01*
Y1051239D01*
Y1051176D01*
Y1051114D01*
Y1051051D01*
X564683D01*
Y1051114D01*
X564620D01*
Y1051176D01*
Y1051239D01*
Y1051301D01*
Y1051364D01*
Y1051426D01*
Y1051489D01*
Y1051551D01*
Y1051614D01*
Y1051676D01*
Y1051739D01*
Y1051802D01*
Y1051864D01*
Y1051927D01*
Y1051989D01*
Y1052052D01*
Y1052114D01*
Y1052177D01*
Y1052239D01*
Y1052302D01*
Y1052364D01*
Y1052427D01*
Y1052489D01*
Y1052552D01*
Y1052614D01*
Y1052677D01*
Y1052739D01*
Y1052802D01*
Y1052864D01*
Y1052927D01*
Y1052989D01*
Y1053052D01*
Y1053114D01*
Y1053177D01*
Y1053240D01*
Y1053302D01*
Y1053365D01*
Y1053427D01*
Y1053490D01*
Y1053552D01*
Y1053615D01*
Y1053677D01*
Y1053740D01*
Y1053802D01*
Y1053865D01*
Y1053927D01*
Y1053990D01*
Y1054052D01*
Y1054115D01*
Y1054177D01*
Y1054240D01*
Y1054302D01*
Y1054365D01*
Y1054427D01*
Y1054490D01*
Y1054553D01*
Y1054615D01*
Y1054678D01*
Y1054740D01*
Y1054803D01*
Y1054865D01*
Y1054928D01*
Y1054990D01*
Y1055053D01*
Y1055115D01*
Y1055178D01*
Y1055240D01*
Y1055303D01*
Y1055365D01*
Y1055428D01*
Y1055490D01*
Y1055553D01*
Y1055615D01*
Y1055678D01*
Y1055740D01*
Y1055803D01*
Y1055865D01*
Y1055928D01*
Y1055991D01*
Y1056053D01*
Y1056115D01*
X565683D01*
Y1056053D01*
Y1055991D01*
Y1055928D01*
Y1055865D01*
Y1055803D01*
Y1055740D01*
Y1055678D01*
Y1055615D01*
X565746D01*
Y1055678D01*
X565808D01*
Y1055740D01*
X565871D01*
Y1055803D01*
X565933D01*
Y1055865D01*
X566058D01*
Y1055928D01*
X566121D01*
Y1055991D01*
X566246D01*
Y1056053D01*
X566433D01*
Y1056115D01*
X566808D01*
Y1056178D01*
X567183D01*
Y1056115D01*
D02*
G37*
G36*
X579625Y1056053D02*
X579563D01*
Y1055991D01*
Y1055928D01*
Y1055865D01*
X579500D01*
Y1055803D01*
Y1055740D01*
Y1055678D01*
X579438D01*
Y1055615D01*
Y1055553D01*
Y1055490D01*
Y1055428D01*
X579375D01*
Y1055365D01*
Y1055303D01*
Y1055240D01*
X579313D01*
Y1055178D01*
Y1055115D01*
Y1055053D01*
X579250D01*
Y1054990D01*
Y1054928D01*
Y1054865D01*
X579188D01*
Y1054803D01*
Y1054740D01*
Y1054678D01*
X579125D01*
Y1054615D01*
Y1054553D01*
Y1054490D01*
X579063D01*
Y1054427D01*
Y1054365D01*
Y1054302D01*
X579000D01*
Y1054240D01*
Y1054177D01*
Y1054115D01*
Y1054052D01*
X578938D01*
Y1053990D01*
Y1053927D01*
Y1053865D01*
X578875D01*
Y1053802D01*
Y1053740D01*
Y1053677D01*
X578812D01*
Y1053615D01*
Y1053552D01*
Y1053490D01*
X578750D01*
Y1053427D01*
Y1053365D01*
Y1053302D01*
X578688D01*
Y1053240D01*
Y1053177D01*
Y1053114D01*
X578625D01*
Y1053052D01*
Y1052989D01*
Y1052927D01*
X578562D01*
Y1052864D01*
Y1052802D01*
Y1052739D01*
X578500D01*
Y1052677D01*
Y1052614D01*
Y1052552D01*
Y1052489D01*
X578437D01*
Y1052427D01*
Y1052364D01*
Y1052302D01*
X578375D01*
Y1052239D01*
Y1052177D01*
Y1052114D01*
X578312D01*
Y1052052D01*
Y1051989D01*
Y1051927D01*
X578250D01*
Y1051864D01*
Y1051802D01*
Y1051739D01*
X578187D01*
Y1051676D01*
Y1051614D01*
Y1051551D01*
X578125D01*
Y1051489D01*
Y1051426D01*
Y1051364D01*
X578062D01*
Y1051301D01*
Y1051239D01*
Y1051176D01*
Y1051114D01*
X578000D01*
Y1051051D01*
X577062D01*
Y1051114D01*
Y1051176D01*
Y1051239D01*
X576999D01*
Y1051301D01*
Y1051364D01*
Y1051426D01*
X576937D01*
Y1051489D01*
Y1051551D01*
Y1051614D01*
X576874D01*
Y1051676D01*
Y1051739D01*
Y1051802D01*
Y1051864D01*
X576812D01*
Y1051927D01*
Y1051989D01*
Y1052052D01*
X576749D01*
Y1052114D01*
Y1052177D01*
Y1052239D01*
X576687D01*
Y1052302D01*
Y1052364D01*
Y1052427D01*
Y1052489D01*
X576624D01*
Y1052552D01*
Y1052614D01*
Y1052677D01*
X576562D01*
Y1052739D01*
Y1052802D01*
Y1052864D01*
X576499D01*
Y1052927D01*
Y1052989D01*
Y1053052D01*
Y1053114D01*
X576437D01*
Y1053177D01*
Y1053240D01*
Y1053302D01*
X576374D01*
Y1053365D01*
Y1053427D01*
Y1053490D01*
Y1053552D01*
X576312D01*
Y1053615D01*
Y1053677D01*
Y1053740D01*
X576249D01*
Y1053802D01*
Y1053865D01*
Y1053927D01*
X576187D01*
Y1053990D01*
Y1054052D01*
Y1054115D01*
Y1054177D01*
X576124D01*
Y1054240D01*
Y1054302D01*
Y1054365D01*
X576062D01*
Y1054427D01*
X575999D01*
Y1054365D01*
Y1054302D01*
Y1054240D01*
Y1054177D01*
X575937D01*
Y1054115D01*
Y1054052D01*
Y1053990D01*
X575874D01*
Y1053927D01*
Y1053865D01*
Y1053802D01*
X575812D01*
Y1053740D01*
Y1053677D01*
Y1053615D01*
Y1053552D01*
X575749D01*
Y1053490D01*
Y1053427D01*
Y1053365D01*
X575686D01*
Y1053302D01*
Y1053240D01*
Y1053177D01*
X575624D01*
Y1053114D01*
Y1053052D01*
Y1052989D01*
Y1052927D01*
X575561D01*
Y1052864D01*
Y1052802D01*
Y1052739D01*
X575499D01*
Y1052677D01*
Y1052614D01*
Y1052552D01*
X575436D01*
Y1052489D01*
Y1052427D01*
Y1052364D01*
Y1052302D01*
X575374D01*
Y1052239D01*
Y1052177D01*
Y1052114D01*
X575311D01*
Y1052052D01*
Y1051989D01*
Y1051927D01*
X575249D01*
Y1051864D01*
Y1051802D01*
Y1051739D01*
Y1051676D01*
X575186D01*
Y1051614D01*
Y1051551D01*
Y1051489D01*
X575124D01*
Y1051426D01*
Y1051364D01*
Y1051301D01*
X575061D01*
Y1051239D01*
Y1051176D01*
Y1051114D01*
Y1051051D01*
X574123D01*
Y1051114D01*
X574061D01*
Y1051176D01*
Y1051239D01*
Y1051301D01*
X573998D01*
Y1051364D01*
Y1051426D01*
Y1051489D01*
X573936D01*
Y1051551D01*
Y1051614D01*
Y1051676D01*
X573873D01*
Y1051739D01*
Y1051802D01*
Y1051864D01*
X573811D01*
Y1051927D01*
Y1051989D01*
Y1052052D01*
X573748D01*
Y1052114D01*
Y1052177D01*
Y1052239D01*
Y1052302D01*
X573686D01*
Y1052364D01*
Y1052427D01*
Y1052489D01*
X573623D01*
Y1052552D01*
Y1052614D01*
Y1052677D01*
X573561D01*
Y1052739D01*
Y1052802D01*
Y1052864D01*
X573498D01*
Y1052927D01*
Y1052989D01*
Y1053052D01*
X573436D01*
Y1053114D01*
Y1053177D01*
Y1053240D01*
X573373D01*
Y1053302D01*
Y1053365D01*
Y1053427D01*
X573311D01*
Y1053490D01*
Y1053552D01*
Y1053615D01*
Y1053677D01*
X573248D01*
Y1053740D01*
Y1053802D01*
Y1053865D01*
X573186D01*
Y1053927D01*
Y1053990D01*
Y1054052D01*
X573123D01*
Y1054115D01*
Y1054177D01*
Y1054240D01*
X573060D01*
Y1054302D01*
Y1054365D01*
Y1054427D01*
X572998D01*
Y1054490D01*
Y1054553D01*
Y1054615D01*
X572935D01*
Y1054678D01*
Y1054740D01*
Y1054803D01*
X572873D01*
Y1054865D01*
Y1054928D01*
Y1054990D01*
X572811D01*
Y1055053D01*
Y1055115D01*
Y1055178D01*
Y1055240D01*
X572748D01*
Y1055303D01*
Y1055365D01*
Y1055428D01*
X572685D01*
Y1055490D01*
Y1055553D01*
Y1055615D01*
X572623D01*
Y1055678D01*
Y1055740D01*
Y1055803D01*
X572560D01*
Y1055865D01*
Y1055928D01*
Y1055991D01*
X572498D01*
Y1056053D01*
Y1056115D01*
X573623D01*
Y1056053D01*
Y1055991D01*
X573686D01*
Y1055928D01*
Y1055865D01*
Y1055803D01*
Y1055740D01*
X573748D01*
Y1055678D01*
Y1055615D01*
Y1055553D01*
X573811D01*
Y1055490D01*
Y1055428D01*
Y1055365D01*
Y1055303D01*
X573873D01*
Y1055240D01*
Y1055178D01*
Y1055115D01*
X573936D01*
Y1055053D01*
Y1054990D01*
Y1054928D01*
Y1054865D01*
X573998D01*
Y1054803D01*
Y1054740D01*
Y1054678D01*
Y1054615D01*
X574061D01*
Y1054553D01*
Y1054490D01*
Y1054427D01*
X574123D01*
Y1054365D01*
Y1054302D01*
Y1054240D01*
Y1054177D01*
X574186D01*
Y1054115D01*
Y1054052D01*
Y1053990D01*
Y1053927D01*
X574248D01*
Y1053865D01*
Y1053802D01*
Y1053740D01*
X574311D01*
Y1053677D01*
Y1053615D01*
Y1053552D01*
Y1053490D01*
X574374D01*
Y1053427D01*
Y1053365D01*
Y1053302D01*
Y1053240D01*
X574436D01*
Y1053177D01*
Y1053114D01*
Y1053052D01*
X574498D01*
Y1052989D01*
Y1052927D01*
Y1052864D01*
Y1052802D01*
X574624D01*
Y1052864D01*
Y1052927D01*
Y1052989D01*
X574686D01*
Y1053052D01*
Y1053114D01*
Y1053177D01*
X574749D01*
Y1053240D01*
Y1053302D01*
Y1053365D01*
X574811D01*
Y1053427D01*
Y1053490D01*
Y1053552D01*
X574874D01*
Y1053615D01*
Y1053677D01*
Y1053740D01*
X574936D01*
Y1053802D01*
Y1053865D01*
Y1053927D01*
X574999D01*
Y1053990D01*
Y1054052D01*
Y1054115D01*
X575061D01*
Y1054177D01*
Y1054240D01*
Y1054302D01*
Y1054365D01*
X575124D01*
Y1054427D01*
Y1054490D01*
Y1054553D01*
X575186D01*
Y1054615D01*
Y1054678D01*
Y1054740D01*
X575249D01*
Y1054803D01*
Y1054865D01*
Y1054928D01*
X575311D01*
Y1054990D01*
Y1055053D01*
Y1055115D01*
X575374D01*
Y1055178D01*
Y1055240D01*
Y1055303D01*
X575436D01*
Y1055365D01*
Y1055428D01*
Y1055490D01*
X575499D01*
Y1055553D01*
Y1055615D01*
Y1055678D01*
X575561D01*
Y1055740D01*
Y1055803D01*
Y1055865D01*
X575624D01*
Y1055928D01*
Y1055991D01*
Y1056053D01*
X575686D01*
Y1056115D01*
X576437D01*
Y1056053D01*
X576499D01*
Y1055991D01*
Y1055928D01*
Y1055865D01*
X576562D01*
Y1055803D01*
Y1055740D01*
Y1055678D01*
X576624D01*
Y1055615D01*
Y1055553D01*
Y1055490D01*
Y1055428D01*
X576687D01*
Y1055365D01*
Y1055303D01*
Y1055240D01*
X576749D01*
Y1055178D01*
Y1055115D01*
Y1055053D01*
X576812D01*
Y1054990D01*
Y1054928D01*
Y1054865D01*
X576874D01*
Y1054803D01*
Y1054740D01*
Y1054678D01*
X576937D01*
Y1054615D01*
Y1054553D01*
Y1054490D01*
X576999D01*
Y1054427D01*
Y1054365D01*
Y1054302D01*
X577062D01*
Y1054240D01*
Y1054177D01*
Y1054115D01*
X577124D01*
Y1054052D01*
Y1053990D01*
Y1053927D01*
X577187D01*
Y1053865D01*
Y1053802D01*
Y1053740D01*
X577249D01*
Y1053677D01*
Y1053615D01*
Y1053552D01*
Y1053490D01*
X577312D01*
Y1053427D01*
Y1053365D01*
Y1053302D01*
X577374D01*
Y1053240D01*
Y1053177D01*
Y1053114D01*
X577437D01*
Y1053052D01*
Y1052989D01*
Y1052927D01*
X577500D01*
Y1052864D01*
Y1052802D01*
Y1052739D01*
X577562D01*
Y1052802D01*
Y1052864D01*
X577625D01*
Y1052927D01*
Y1052989D01*
Y1053052D01*
X577687D01*
Y1053114D01*
Y1053177D01*
Y1053240D01*
Y1053302D01*
X577750D01*
Y1053365D01*
Y1053427D01*
Y1053490D01*
Y1053552D01*
X577812D01*
Y1053615D01*
Y1053677D01*
Y1053740D01*
X577875D01*
Y1053802D01*
Y1053865D01*
Y1053927D01*
Y1053990D01*
X577937D01*
Y1054052D01*
Y1054115D01*
Y1054177D01*
Y1054240D01*
X578000D01*
Y1054302D01*
Y1054365D01*
Y1054427D01*
X578062D01*
Y1054490D01*
Y1054553D01*
Y1054615D01*
Y1054678D01*
X578125D01*
Y1054740D01*
Y1054803D01*
Y1054865D01*
Y1054928D01*
X578187D01*
Y1054990D01*
Y1055053D01*
Y1055115D01*
X578250D01*
Y1055178D01*
Y1055240D01*
Y1055303D01*
Y1055365D01*
X578312D01*
Y1055428D01*
Y1055490D01*
Y1055553D01*
Y1055615D01*
X578375D01*
Y1055678D01*
Y1055740D01*
Y1055803D01*
X578437D01*
Y1055865D01*
Y1055928D01*
Y1055991D01*
Y1056053D01*
X578500D01*
Y1056115D01*
X579625D01*
Y1056053D01*
D02*
G37*
G36*
X572060Y1058054D02*
Y1057991D01*
Y1057929D01*
Y1057866D01*
Y1057804D01*
Y1057741D01*
Y1057679D01*
Y1057616D01*
Y1057553D01*
Y1057491D01*
Y1057428D01*
Y1057366D01*
Y1057303D01*
Y1057241D01*
Y1057178D01*
Y1057116D01*
Y1057053D01*
Y1056991D01*
Y1056928D01*
Y1056866D01*
Y1056803D01*
Y1056741D01*
Y1056678D01*
Y1056616D01*
Y1056553D01*
Y1056491D01*
Y1056428D01*
Y1056366D01*
Y1056303D01*
Y1056240D01*
Y1056178D01*
Y1056115D01*
Y1056053D01*
Y1055991D01*
Y1055928D01*
Y1055865D01*
Y1055803D01*
Y1055740D01*
Y1055678D01*
Y1055615D01*
Y1055553D01*
Y1055490D01*
Y1055428D01*
Y1055365D01*
Y1055303D01*
Y1055240D01*
Y1055178D01*
Y1055115D01*
Y1055053D01*
Y1054990D01*
Y1054928D01*
Y1054865D01*
Y1054803D01*
Y1054740D01*
Y1054678D01*
Y1054615D01*
Y1054553D01*
Y1054490D01*
Y1054427D01*
Y1054365D01*
Y1054302D01*
Y1054240D01*
Y1054177D01*
Y1054115D01*
Y1054052D01*
Y1053990D01*
Y1053927D01*
Y1053865D01*
Y1053802D01*
Y1053740D01*
Y1053677D01*
Y1053615D01*
Y1053552D01*
Y1053490D01*
Y1053427D01*
Y1053365D01*
Y1053302D01*
Y1053240D01*
Y1053177D01*
Y1053114D01*
Y1053052D01*
Y1052989D01*
Y1052927D01*
Y1052864D01*
Y1052802D01*
Y1052739D01*
Y1052677D01*
Y1052614D01*
Y1052552D01*
Y1052489D01*
Y1052427D01*
Y1052364D01*
Y1052302D01*
Y1052239D01*
Y1052177D01*
Y1052114D01*
Y1052052D01*
Y1051989D01*
Y1051927D01*
Y1051864D01*
Y1051802D01*
Y1051739D01*
Y1051676D01*
Y1051614D01*
Y1051551D01*
Y1051489D01*
Y1051426D01*
Y1051364D01*
Y1051301D01*
Y1051239D01*
Y1051176D01*
Y1051114D01*
Y1051051D01*
X570997D01*
Y1051114D01*
Y1051176D01*
Y1051239D01*
Y1051301D01*
Y1051364D01*
Y1051426D01*
Y1051489D01*
Y1051551D01*
X570935D01*
Y1051489D01*
X570872D01*
Y1051426D01*
X570810D01*
Y1051364D01*
X570747D01*
Y1051301D01*
X570622D01*
Y1051239D01*
X570497D01*
Y1051176D01*
X570372D01*
Y1051114D01*
X570185D01*
Y1051051D01*
X569247D01*
Y1051114D01*
X569059D01*
Y1051176D01*
X568934D01*
Y1051239D01*
X568809D01*
Y1051301D01*
X568747D01*
Y1051364D01*
X568621D01*
Y1051426D01*
X568559D01*
Y1051489D01*
X568497D01*
Y1051551D01*
X568434D01*
Y1051614D01*
X568371D01*
Y1051676D01*
Y1051739D01*
X568309D01*
Y1051802D01*
X568246D01*
Y1051864D01*
Y1051927D01*
X568184D01*
Y1051989D01*
Y1052052D01*
Y1052114D01*
X568121D01*
Y1052177D01*
Y1052239D01*
Y1052302D01*
X568059D01*
Y1052364D01*
Y1052427D01*
Y1052489D01*
Y1052552D01*
Y1052614D01*
Y1052677D01*
Y1052739D01*
Y1052802D01*
Y1052864D01*
Y1052927D01*
Y1052989D01*
Y1053052D01*
X567996D01*
Y1053114D01*
Y1053177D01*
Y1053240D01*
Y1053302D01*
Y1053365D01*
Y1053427D01*
Y1053490D01*
Y1053552D01*
Y1053615D01*
Y1053677D01*
Y1053740D01*
Y1053802D01*
Y1053865D01*
Y1053927D01*
Y1053990D01*
Y1054052D01*
Y1054115D01*
Y1054177D01*
X568059D01*
Y1054240D01*
Y1054302D01*
Y1054365D01*
Y1054427D01*
Y1054490D01*
Y1054553D01*
Y1054615D01*
Y1054678D01*
Y1054740D01*
Y1054803D01*
Y1054865D01*
X568121D01*
Y1054928D01*
Y1054990D01*
Y1055053D01*
Y1055115D01*
X568184D01*
Y1055178D01*
Y1055240D01*
X568246D01*
Y1055303D01*
Y1055365D01*
X568309D01*
Y1055428D01*
Y1055490D01*
X568371D01*
Y1055553D01*
X568434D01*
Y1055615D01*
X568497D01*
Y1055678D01*
X568559D01*
Y1055740D01*
X568621D01*
Y1055803D01*
X568684D01*
Y1055865D01*
X568809D01*
Y1055928D01*
X568872D01*
Y1055991D01*
X569059D01*
Y1056053D01*
X569184D01*
Y1056115D01*
X569559D01*
Y1056178D01*
X569872D01*
Y1056115D01*
X570185D01*
Y1056053D01*
X570372D01*
Y1055991D01*
X570497D01*
Y1055928D01*
X570622D01*
Y1055865D01*
X570747D01*
Y1055803D01*
X570810D01*
Y1055740D01*
X570872D01*
Y1055678D01*
X570935D01*
Y1055615D01*
X570997D01*
Y1055678D01*
Y1055740D01*
Y1055803D01*
Y1055865D01*
Y1055928D01*
Y1055991D01*
Y1056053D01*
Y1056115D01*
Y1056178D01*
Y1056240D01*
Y1056303D01*
Y1056366D01*
Y1056428D01*
Y1056491D01*
Y1056553D01*
Y1056616D01*
Y1056678D01*
Y1056741D01*
Y1056803D01*
Y1056866D01*
Y1056928D01*
Y1056991D01*
Y1057053D01*
Y1057116D01*
Y1057178D01*
Y1057241D01*
Y1057303D01*
Y1057366D01*
Y1057428D01*
Y1057491D01*
Y1057553D01*
Y1057616D01*
Y1057679D01*
Y1057741D01*
Y1057804D01*
Y1057866D01*
Y1057929D01*
Y1057991D01*
Y1058054D01*
Y1058116D01*
X572060D01*
Y1058054D01*
D02*
G37*
G36*
X552491Y1063931D02*
X552678D01*
Y1063868D01*
X552866D01*
Y1063806D01*
X553054D01*
Y1063743D01*
X553116D01*
Y1063681D01*
X553241D01*
Y1063618D01*
X553304D01*
Y1063556D01*
X553366D01*
Y1063493D01*
X553491D01*
Y1063430D01*
X553554D01*
Y1063368D01*
X553616D01*
Y1063306D01*
Y1063243D01*
X553679D01*
Y1063180D01*
X553741D01*
Y1063118D01*
X553804D01*
Y1063055D01*
Y1062993D01*
X553866D01*
Y1062930D01*
Y1062868D01*
X553929D01*
Y1062805D01*
Y1062743D01*
Y1062680D01*
X553992D01*
Y1062618D01*
Y1062555D01*
Y1062493D01*
Y1062430D01*
X554054D01*
Y1062368D01*
Y1062305D01*
Y1062243D01*
Y1062180D01*
Y1062118D01*
Y1062055D01*
Y1061992D01*
X554117D01*
Y1061930D01*
Y1061868D01*
Y1061805D01*
Y1061742D01*
Y1061680D01*
Y1061617D01*
Y1061555D01*
Y1061492D01*
Y1061430D01*
Y1061367D01*
Y1061305D01*
Y1061242D01*
Y1061180D01*
Y1061117D01*
Y1061055D01*
Y1060992D01*
Y1060930D01*
Y1060867D01*
X554054D01*
Y1060805D01*
Y1060742D01*
Y1060680D01*
Y1060617D01*
Y1060555D01*
Y1060492D01*
Y1060430D01*
X553992D01*
Y1060367D01*
Y1060304D01*
Y1060242D01*
Y1060179D01*
X553929D01*
Y1060117D01*
Y1060054D01*
Y1059992D01*
X553866D01*
Y1059929D01*
Y1059867D01*
X553804D01*
Y1059804D01*
Y1059742D01*
X553741D01*
Y1059679D01*
X553679D01*
Y1059617D01*
X553616D01*
Y1059554D01*
Y1059492D01*
X553554D01*
Y1059429D01*
X553491D01*
Y1059367D01*
X553429D01*
Y1059304D01*
X553304D01*
Y1059242D01*
X553241D01*
Y1059179D01*
X553116D01*
Y1059117D01*
X553054D01*
Y1059054D01*
X552866D01*
Y1058991D01*
X552678D01*
Y1058929D01*
X552429D01*
Y1058866D01*
X551678D01*
Y1058929D01*
X551366D01*
Y1058991D01*
X551178D01*
Y1059054D01*
X551053D01*
Y1059117D01*
X550928D01*
Y1059179D01*
X550865D01*
Y1059242D01*
X550740D01*
Y1059304D01*
X550678D01*
Y1059367D01*
X550615D01*
Y1059429D01*
X550553D01*
Y1059492D01*
X550490D01*
Y1059554D01*
X550428D01*
Y1059617D01*
X550365D01*
Y1059679D01*
Y1059742D01*
X550303D01*
Y1059804D01*
X550240D01*
Y1059867D01*
Y1059929D01*
X550178D01*
Y1059992D01*
Y1060054D01*
X550115D01*
Y1060117D01*
Y1060179D01*
Y1060242D01*
X550053D01*
Y1060304D01*
Y1060367D01*
Y1060430D01*
Y1060492D01*
Y1060555D01*
X549990D01*
Y1060617D01*
Y1060680D01*
Y1060742D01*
Y1060805D01*
Y1060867D01*
Y1060930D01*
Y1060992D01*
Y1061055D01*
Y1061117D01*
Y1061180D01*
Y1061242D01*
Y1061305D01*
Y1061367D01*
Y1061430D01*
Y1061492D01*
Y1061555D01*
Y1061617D01*
Y1061680D01*
Y1061742D01*
Y1061805D01*
Y1061868D01*
Y1061930D01*
Y1061992D01*
Y1062055D01*
Y1062118D01*
Y1062180D01*
Y1062243D01*
Y1062305D01*
X550053D01*
Y1062368D01*
Y1062430D01*
Y1062493D01*
Y1062555D01*
Y1062618D01*
X550115D01*
Y1062680D01*
Y1062743D01*
Y1062805D01*
X550178D01*
Y1062868D01*
Y1062930D01*
X550240D01*
Y1062993D01*
Y1063055D01*
X550303D01*
Y1063118D01*
X550365D01*
Y1063180D01*
Y1063243D01*
X550428D01*
Y1063306D01*
X550490D01*
Y1063368D01*
X550553D01*
Y1063430D01*
X550615D01*
Y1063493D01*
X550678D01*
Y1063556D01*
X550740D01*
Y1063618D01*
X550865D01*
Y1063681D01*
X550928D01*
Y1063743D01*
X551053D01*
Y1063806D01*
X551178D01*
Y1063868D01*
X551366D01*
Y1063931D01*
X551616D01*
Y1063993D01*
X552491D01*
Y1063931D01*
D02*
G37*
G36*
X587190Y1056115D02*
X587503D01*
Y1056053D01*
X587691D01*
Y1055991D01*
X587816D01*
Y1055928D01*
X587941D01*
Y1055865D01*
X588003D01*
Y1055803D01*
X588128D01*
Y1055740D01*
X588066D01*
Y1055678D01*
Y1055615D01*
X588003D01*
Y1055553D01*
X587941D01*
Y1055490D01*
X587878D01*
Y1055428D01*
X587816D01*
Y1055365D01*
X587753D01*
Y1055303D01*
Y1055240D01*
X587691D01*
Y1055178D01*
X587628D01*
Y1055115D01*
X587565D01*
Y1055053D01*
X587503D01*
Y1054990D01*
X587440D01*
Y1054928D01*
Y1054865D01*
X587253D01*
Y1054928D01*
X587128D01*
Y1054990D01*
X587065D01*
Y1055053D01*
X586878D01*
Y1055115D01*
X586503D01*
Y1055053D01*
X586315D01*
Y1054990D01*
X586190D01*
Y1054928D01*
X586128D01*
Y1054865D01*
X586065D01*
Y1054803D01*
X586003D01*
Y1054740D01*
X585940D01*
Y1054678D01*
X585877D01*
Y1054615D01*
Y1054553D01*
X585815D01*
Y1054490D01*
Y1054427D01*
Y1054365D01*
Y1054302D01*
X585752D01*
Y1054240D01*
Y1054177D01*
Y1054115D01*
Y1054052D01*
Y1053990D01*
Y1053927D01*
Y1053865D01*
Y1053802D01*
Y1053740D01*
Y1053677D01*
Y1053615D01*
Y1053552D01*
Y1053490D01*
Y1053427D01*
Y1053365D01*
Y1053302D01*
Y1053240D01*
Y1053177D01*
Y1053114D01*
Y1053052D01*
Y1052989D01*
Y1052927D01*
Y1052864D01*
Y1052802D01*
Y1052739D01*
Y1052677D01*
Y1052614D01*
Y1052552D01*
Y1052489D01*
Y1052427D01*
Y1052364D01*
Y1052302D01*
Y1052239D01*
Y1052177D01*
Y1052114D01*
Y1052052D01*
Y1051989D01*
Y1051927D01*
Y1051864D01*
Y1051802D01*
Y1051739D01*
Y1051676D01*
Y1051614D01*
Y1051551D01*
Y1051489D01*
Y1051426D01*
Y1051364D01*
Y1051301D01*
Y1051239D01*
Y1051176D01*
Y1051114D01*
Y1051051D01*
X584689D01*
Y1051114D01*
Y1051176D01*
Y1051239D01*
Y1051301D01*
Y1051364D01*
Y1051426D01*
Y1051489D01*
Y1051551D01*
Y1051614D01*
Y1051676D01*
Y1051739D01*
Y1051802D01*
Y1051864D01*
Y1051927D01*
Y1051989D01*
Y1052052D01*
Y1052114D01*
Y1052177D01*
Y1052239D01*
Y1052302D01*
Y1052364D01*
Y1052427D01*
Y1052489D01*
Y1052552D01*
Y1052614D01*
Y1052677D01*
Y1052739D01*
Y1052802D01*
Y1052864D01*
Y1052927D01*
Y1052989D01*
Y1053052D01*
Y1053114D01*
Y1053177D01*
Y1053240D01*
Y1053302D01*
Y1053365D01*
Y1053427D01*
Y1053490D01*
Y1053552D01*
Y1053615D01*
Y1053677D01*
Y1053740D01*
Y1053802D01*
Y1053865D01*
Y1053927D01*
Y1053990D01*
Y1054052D01*
Y1054115D01*
Y1054177D01*
Y1054240D01*
Y1054302D01*
Y1054365D01*
Y1054427D01*
Y1054490D01*
Y1054553D01*
Y1054615D01*
Y1054678D01*
Y1054740D01*
Y1054803D01*
Y1054865D01*
Y1054928D01*
Y1054990D01*
Y1055053D01*
Y1055115D01*
Y1055178D01*
Y1055240D01*
Y1055303D01*
Y1055365D01*
Y1055428D01*
Y1055490D01*
Y1055553D01*
Y1055615D01*
Y1055678D01*
Y1055740D01*
Y1055803D01*
Y1055865D01*
Y1055928D01*
Y1055991D01*
Y1056053D01*
Y1056115D01*
X585752D01*
Y1056053D01*
Y1055991D01*
Y1055928D01*
Y1055865D01*
Y1055803D01*
Y1055740D01*
Y1055678D01*
Y1055615D01*
X585815D01*
Y1055678D01*
X585877D01*
Y1055740D01*
X585940D01*
Y1055803D01*
X586003D01*
Y1055865D01*
X586065D01*
Y1055928D01*
X586190D01*
Y1055991D01*
X586315D01*
Y1056053D01*
X586503D01*
Y1056115D01*
X586878D01*
Y1056178D01*
X587190D01*
Y1056115D01*
D02*
G37*
G36*
X500327Y1072965D02*
X500737D01*
Y1072554D01*
X501148D01*
Y1072144D01*
X501558D01*
Y1071733D01*
Y1071323D01*
Y1070912D01*
Y1070501D01*
Y1070091D01*
X501148D01*
Y1069680D01*
X500737D01*
Y1069269D01*
X500327D01*
Y1068859D01*
X497863D01*
Y1069269D01*
X497452D01*
Y1069680D01*
X497042D01*
Y1070091D01*
Y1070501D01*
Y1070912D01*
Y1071323D01*
Y1071733D01*
Y1072144D01*
X497452D01*
Y1072554D01*
Y1072965D01*
X498274D01*
Y1073376D01*
X500327D01*
Y1072965D01*
D02*
G37*
G36*
X512235Y1099655D02*
X512645D01*
Y1099245D01*
X513056D01*
Y1098834D01*
X513466D01*
Y1098423D01*
X513877D01*
Y1098013D01*
X514288D01*
Y1097602D01*
X514698D01*
Y1097191D01*
X515109D01*
Y1096781D01*
X515519D01*
Y1096370D01*
X515930D01*
Y1095960D01*
X516341D01*
Y1095549D01*
X516751D01*
Y1095138D01*
X517162D01*
Y1094728D01*
X517573D01*
Y1094317D01*
X517983D01*
Y1093907D01*
X518394D01*
Y1093496D01*
X518804D01*
Y1093085D01*
X519215D01*
Y1092675D01*
X519626D01*
Y1092264D01*
X520036D01*
Y1091853D01*
X520447D01*
Y1091443D01*
X520858D01*
Y1091032D01*
X521268D01*
Y1090622D01*
X521679D01*
Y1090211D01*
X522089D01*
Y1089800D01*
X522500D01*
Y1089390D01*
X522911D01*
Y1088979D01*
X523321D01*
Y1088568D01*
X523732D01*
Y1088158D01*
X524142D01*
Y1087747D01*
X524553D01*
Y1087337D01*
X524964D01*
Y1086926D01*
X525374D01*
Y1086516D01*
X525785D01*
Y1086105D01*
X526196D01*
Y1086516D01*
Y1086926D01*
Y1087337D01*
Y1087747D01*
Y1088158D01*
Y1088568D01*
X526606D01*
Y1088979D01*
X527017D01*
Y1089390D01*
X532355D01*
Y1088979D01*
X532765D01*
Y1088568D01*
Y1088158D01*
Y1087747D01*
Y1087337D01*
Y1086926D01*
Y1086516D01*
Y1086105D01*
Y1085694D01*
Y1085284D01*
Y1084873D01*
Y1084462D01*
Y1084052D01*
Y1083641D01*
Y1083231D01*
Y1082820D01*
Y1082409D01*
Y1081999D01*
Y1081588D01*
Y1081177D01*
Y1080767D01*
Y1080356D01*
Y1079946D01*
Y1079535D01*
Y1079124D01*
X533176D01*
Y1078714D01*
X533587D01*
Y1078303D01*
X533997D01*
Y1077893D01*
X534408D01*
Y1077482D01*
X534818D01*
Y1077071D01*
X535229D01*
Y1076661D01*
X535640D01*
Y1076250D01*
X536050D01*
Y1075839D01*
X536461D01*
Y1075429D01*
X536872D01*
Y1075018D01*
X537282D01*
Y1074607D01*
X537693D01*
Y1074197D01*
X538103D01*
Y1073786D01*
X538514D01*
Y1073376D01*
X538925D01*
Y1072965D01*
X539335D01*
Y1072554D01*
X539746D01*
Y1072144D01*
Y1071733D01*
Y1071323D01*
X539335D01*
Y1070912D01*
X533176D01*
Y1070501D01*
Y1070091D01*
Y1069680D01*
Y1069269D01*
Y1068859D01*
Y1068448D01*
Y1068038D01*
Y1067627D01*
Y1067216D01*
Y1066806D01*
Y1066395D01*
Y1065985D01*
Y1065574D01*
Y1065163D01*
Y1064753D01*
Y1064342D01*
Y1063932D01*
Y1063521D01*
Y1063110D01*
Y1062700D01*
Y1062289D01*
Y1061878D01*
Y1061468D01*
Y1061057D01*
Y1060647D01*
Y1060236D01*
Y1059825D01*
Y1059415D01*
Y1059004D01*
Y1058593D01*
Y1058183D01*
Y1057772D01*
Y1057362D01*
Y1056951D01*
Y1056540D01*
Y1056130D01*
Y1055719D01*
Y1055309D01*
Y1054898D01*
Y1054487D01*
Y1054077D01*
Y1053666D01*
Y1053255D01*
Y1052845D01*
Y1052434D01*
Y1052023D01*
Y1051613D01*
Y1051202D01*
X532765D01*
Y1050792D01*
X532355D01*
Y1050381D01*
X513466D01*
Y1050792D01*
Y1051202D01*
Y1051613D01*
Y1052023D01*
Y1052434D01*
Y1052845D01*
Y1053255D01*
Y1053666D01*
Y1054077D01*
Y1054487D01*
Y1054898D01*
Y1055309D01*
Y1055719D01*
Y1056130D01*
Y1056540D01*
Y1056951D01*
Y1057362D01*
Y1057772D01*
X513877D01*
Y1058183D01*
X514288D01*
Y1058593D01*
X514698D01*
Y1059004D01*
X515109D01*
Y1059415D01*
X515519D01*
Y1059825D01*
X515930D01*
Y1060236D01*
X516341D01*
Y1060647D01*
X516751D01*
Y1061057D01*
X517162D01*
Y1061468D01*
X517573D01*
Y1061878D01*
X517983D01*
Y1062289D01*
X518394D01*
Y1062700D01*
X518804D01*
Y1063110D01*
X519215D01*
Y1063521D01*
X519626D01*
Y1063932D01*
X520036D01*
Y1064342D01*
X520447D01*
Y1064753D01*
X520858D01*
Y1065163D01*
X521268D01*
Y1065574D01*
X521679D01*
Y1065985D01*
X522089D01*
Y1065574D01*
X526196D01*
Y1065985D01*
X527017D01*
Y1066395D01*
X527427D01*
Y1066806D01*
X527838D01*
Y1067216D01*
X528249D01*
Y1067627D01*
X528659D01*
Y1068038D01*
Y1068448D01*
X529070D01*
Y1068859D01*
Y1069269D01*
X529481D01*
Y1069680D01*
Y1070091D01*
Y1070501D01*
Y1070912D01*
Y1071323D01*
Y1071733D01*
Y1072144D01*
Y1072554D01*
X529070D01*
Y1072965D01*
Y1073376D01*
X528659D01*
Y1073786D01*
Y1074197D01*
X528249D01*
Y1074607D01*
X527838D01*
Y1075018D01*
X527427D01*
Y1075429D01*
X526606D01*
Y1075839D01*
X525785D01*
Y1076250D01*
X522500D01*
Y1075839D01*
X521679D01*
Y1075429D01*
X520858D01*
Y1075018D01*
X520447D01*
Y1074607D01*
X520036D01*
Y1074197D01*
X519626D01*
Y1073786D01*
X519215D01*
Y1073376D01*
Y1072965D01*
X518804D01*
Y1072554D01*
Y1072144D01*
Y1071733D01*
Y1071323D01*
X518394D01*
Y1070912D01*
Y1070501D01*
Y1070091D01*
X518804D01*
Y1069680D01*
Y1069269D01*
Y1068859D01*
Y1068448D01*
Y1068038D01*
X518394D01*
Y1067627D01*
X517983D01*
Y1067216D01*
X517573D01*
Y1066806D01*
X517162D01*
Y1066395D01*
X516751D01*
Y1065985D01*
X516341D01*
Y1065574D01*
X515930D01*
Y1065163D01*
X515519D01*
Y1064753D01*
X515109D01*
Y1064342D01*
X514698D01*
Y1063932D01*
X514288D01*
Y1063521D01*
X513466D01*
Y1063932D01*
Y1064342D01*
Y1064753D01*
Y1065163D01*
Y1065574D01*
Y1065985D01*
Y1066395D01*
Y1066806D01*
Y1067216D01*
Y1067627D01*
Y1068038D01*
Y1068448D01*
Y1068859D01*
Y1069269D01*
Y1069680D01*
Y1070091D01*
Y1070501D01*
Y1070912D01*
Y1071323D01*
Y1071733D01*
Y1072144D01*
Y1072554D01*
Y1072965D01*
Y1073376D01*
Y1073786D01*
Y1074197D01*
Y1074607D01*
Y1075018D01*
Y1075429D01*
Y1075839D01*
Y1076250D01*
Y1076661D01*
Y1077071D01*
Y1077482D01*
Y1077893D01*
Y1078303D01*
Y1078714D01*
Y1079124D01*
Y1079535D01*
Y1079946D01*
Y1080356D01*
Y1080767D01*
Y1081177D01*
X513877D01*
Y1081588D01*
X514698D01*
Y1081999D01*
X515109D01*
Y1082409D01*
X515519D01*
Y1082820D01*
X515930D01*
Y1083231D01*
X516341D01*
Y1083641D01*
Y1084052D01*
X516751D01*
Y1084462D01*
Y1084873D01*
Y1085284D01*
Y1085694D01*
Y1086105D01*
Y1086516D01*
Y1086926D01*
Y1087337D01*
Y1087747D01*
Y1088158D01*
X516341D01*
Y1088568D01*
Y1088979D01*
X515930D01*
Y1089390D01*
X515519D01*
Y1089800D01*
X515109D01*
Y1090211D01*
X514698D01*
Y1090622D01*
X514288D01*
Y1091032D01*
X513056D01*
Y1091443D01*
X509771D01*
Y1091032D01*
X508950D01*
Y1090622D01*
X508128D01*
Y1090211D01*
X507718D01*
Y1089800D01*
X507307D01*
Y1089390D01*
X506897D01*
Y1088979D01*
Y1088568D01*
X506486D01*
Y1088158D01*
Y1087747D01*
X506075D01*
Y1087337D01*
Y1086926D01*
Y1086516D01*
Y1086105D01*
Y1085694D01*
Y1085284D01*
Y1084873D01*
Y1084462D01*
X506486D01*
Y1084052D01*
Y1083641D01*
X506897D01*
Y1083231D01*
Y1082820D01*
X507307D01*
Y1082409D01*
X507718D01*
Y1081999D01*
X508128D01*
Y1081588D01*
X508950D01*
Y1081177D01*
X509360D01*
Y1080767D01*
Y1080356D01*
Y1079946D01*
Y1079535D01*
Y1079124D01*
Y1078714D01*
Y1078303D01*
Y1077893D01*
Y1077482D01*
Y1077071D01*
Y1076661D01*
Y1076250D01*
Y1075839D01*
Y1075429D01*
Y1075018D01*
Y1074607D01*
Y1074197D01*
Y1073786D01*
Y1073376D01*
Y1072965D01*
Y1072554D01*
Y1072144D01*
Y1071733D01*
Y1071323D01*
Y1070912D01*
Y1070501D01*
Y1070091D01*
Y1069680D01*
Y1069269D01*
Y1068859D01*
Y1068448D01*
Y1068038D01*
Y1067627D01*
Y1067216D01*
Y1066806D01*
Y1066395D01*
Y1065985D01*
Y1065574D01*
Y1065163D01*
Y1064753D01*
Y1064342D01*
Y1063932D01*
Y1063521D01*
X508950D01*
Y1063932D01*
X508539D01*
Y1064342D01*
X508128D01*
Y1064753D01*
X507718D01*
Y1065163D01*
X507307D01*
Y1065574D01*
X506897D01*
Y1065985D01*
X506486D01*
Y1066395D01*
X506075D01*
Y1066806D01*
X505665D01*
Y1067216D01*
X505254D01*
Y1067627D01*
Y1068038D01*
X504843D01*
Y1068448D01*
X504433D01*
Y1068859D01*
Y1069269D01*
Y1069680D01*
Y1070091D01*
X504843D01*
Y1070501D01*
Y1070912D01*
Y1071323D01*
Y1071733D01*
Y1072144D01*
X504433D01*
Y1072554D01*
Y1072965D01*
Y1073376D01*
X504022D01*
Y1073786D01*
Y1074197D01*
X503612D01*
Y1074607D01*
X503201D01*
Y1075018D01*
X502790D01*
Y1075429D01*
X501969D01*
Y1075839D01*
X501148D01*
Y1076250D01*
X497042D01*
Y1075839D01*
X496221D01*
Y1075429D01*
X495810D01*
Y1075018D01*
X495399D01*
Y1074607D01*
X494989D01*
Y1074197D01*
X494578D01*
Y1073786D01*
Y1073376D01*
X494167D01*
Y1072965D01*
Y1072554D01*
X493757D01*
Y1072144D01*
Y1071733D01*
Y1071323D01*
Y1070912D01*
Y1070501D01*
Y1070091D01*
Y1069680D01*
X494167D01*
Y1069269D01*
Y1068859D01*
Y1068448D01*
X494578D01*
Y1068038D01*
Y1067627D01*
X494989D01*
Y1067216D01*
X495399D01*
Y1066806D01*
X496221D01*
Y1066395D01*
X496631D01*
Y1065985D01*
X497863D01*
Y1065574D01*
X500737D01*
Y1065985D01*
X501558D01*
Y1065574D01*
X501969D01*
Y1065163D01*
X502380D01*
Y1064753D01*
X502790D01*
Y1064342D01*
X503201D01*
Y1063932D01*
X503612D01*
Y1063521D01*
X504022D01*
Y1063110D01*
X504433D01*
Y1062700D01*
X504843D01*
Y1062289D01*
X505254D01*
Y1061878D01*
X505665D01*
Y1061468D01*
X506075D01*
Y1061057D01*
X506486D01*
Y1060647D01*
X506897D01*
Y1060236D01*
X507307D01*
Y1059825D01*
X508128D01*
Y1059415D01*
X508539D01*
Y1059004D01*
X508950D01*
Y1058593D01*
X509360D01*
Y1058183D01*
Y1057772D01*
X509771D01*
Y1057362D01*
Y1056951D01*
Y1056540D01*
Y1056130D01*
Y1055719D01*
Y1055309D01*
Y1054898D01*
Y1054487D01*
Y1054077D01*
Y1053666D01*
Y1053255D01*
Y1052845D01*
Y1052434D01*
Y1052023D01*
Y1051613D01*
Y1051202D01*
Y1050792D01*
Y1050381D01*
X490882D01*
Y1050792D01*
X490472D01*
Y1051202D01*
Y1051613D01*
Y1052023D01*
Y1052434D01*
Y1052845D01*
Y1053255D01*
Y1053666D01*
Y1054077D01*
Y1054487D01*
Y1054898D01*
Y1055309D01*
Y1055719D01*
Y1056130D01*
Y1056540D01*
Y1056951D01*
Y1057362D01*
Y1057772D01*
Y1058183D01*
Y1058593D01*
Y1059004D01*
Y1059415D01*
Y1059825D01*
Y1060236D01*
Y1060647D01*
Y1061057D01*
Y1061468D01*
Y1061878D01*
Y1062289D01*
Y1062700D01*
Y1063110D01*
Y1063521D01*
Y1063932D01*
Y1064342D01*
Y1064753D01*
Y1065163D01*
Y1065574D01*
Y1065985D01*
Y1066395D01*
Y1066806D01*
Y1067216D01*
Y1067627D01*
Y1068038D01*
Y1068448D01*
Y1068859D01*
Y1069269D01*
Y1069680D01*
Y1070091D01*
Y1070501D01*
X490061D01*
Y1070912D01*
X483902D01*
Y1071323D01*
X483491D01*
Y1071733D01*
Y1072144D01*
Y1072554D01*
X483902D01*
Y1072965D01*
X484313D01*
Y1073376D01*
X484723D01*
Y1073786D01*
X485134D01*
Y1074197D01*
X485544D01*
Y1074607D01*
X485955D01*
Y1075018D01*
X486366D01*
Y1075429D01*
X486776D01*
Y1075839D01*
X487187D01*
Y1076250D01*
X487598D01*
Y1076661D01*
X488008D01*
Y1077071D01*
X488419D01*
Y1077482D01*
X488829D01*
Y1077893D01*
X489240D01*
Y1078303D01*
X489651D01*
Y1078714D01*
X490061D01*
Y1079124D01*
X490472D01*
Y1079535D01*
X490882D01*
Y1079946D01*
X491293D01*
Y1080356D01*
X491704D01*
Y1080767D01*
X492114D01*
Y1081177D01*
X492525D01*
Y1081588D01*
X492935D01*
Y1081999D01*
X493346D01*
Y1082409D01*
X493757D01*
Y1082820D01*
X494167D01*
Y1083231D01*
X494578D01*
Y1083641D01*
X494989D01*
Y1084052D01*
X495399D01*
Y1084462D01*
X495810D01*
Y1084873D01*
X496221D01*
Y1085284D01*
X496631D01*
Y1085694D01*
X497042D01*
Y1086105D01*
X497452D01*
Y1086516D01*
X497863D01*
Y1086926D01*
X498274D01*
Y1087337D01*
X498684D01*
Y1087747D01*
X499095D01*
Y1088158D01*
X499505D01*
Y1088568D01*
X499916D01*
Y1088979D01*
X500327D01*
Y1089390D01*
X500737D01*
Y1089800D01*
X501148D01*
Y1090211D01*
X501558D01*
Y1090622D01*
X501969D01*
Y1091032D01*
X502380D01*
Y1091443D01*
X502790D01*
Y1091853D01*
X503201D01*
Y1092264D01*
X503612D01*
Y1092675D01*
X504022D01*
Y1093085D01*
X504433D01*
Y1093496D01*
X504843D01*
Y1093907D01*
X505254D01*
Y1094317D01*
X505665D01*
Y1094728D01*
X506075D01*
Y1095138D01*
X506486D01*
Y1095549D01*
X506897D01*
Y1095960D01*
X507307D01*
Y1096370D01*
X507718D01*
Y1096781D01*
X508128D01*
Y1097191D01*
X508539D01*
Y1097602D01*
X508950D01*
Y1098013D01*
X509360D01*
Y1098423D01*
X509771D01*
Y1098834D01*
X510182D01*
Y1099245D01*
X510592D01*
Y1099655D01*
X511413D01*
Y1100066D01*
X512235D01*
Y1099655D01*
D02*
G37*
G36*
X588628Y1063931D02*
X588816D01*
Y1063868D01*
X589003D01*
Y1063806D01*
X589129D01*
Y1063743D01*
X589191D01*
Y1063681D01*
X589316D01*
Y1063618D01*
Y1063556D01*
Y1063493D01*
X589254D01*
Y1063430D01*
X589191D01*
Y1063368D01*
X589129D01*
Y1063306D01*
Y1063243D01*
X589066D01*
Y1063180D01*
X589003D01*
Y1063118D01*
X588941D01*
Y1063055D01*
X588879D01*
Y1062993D01*
X588816D01*
Y1062930D01*
Y1062868D01*
X588753D01*
Y1062805D01*
X588691D01*
Y1062743D01*
X588628D01*
Y1062680D01*
X588566D01*
Y1062743D01*
X588441D01*
Y1062805D01*
X588316D01*
Y1062868D01*
X588191D01*
Y1062930D01*
X587691D01*
Y1062868D01*
X587503D01*
Y1062805D01*
X587378D01*
Y1062743D01*
X587315D01*
Y1062680D01*
X587253D01*
Y1062618D01*
X587190D01*
Y1062555D01*
X587128D01*
Y1062493D01*
Y1062430D01*
X587065D01*
Y1062368D01*
Y1062305D01*
Y1062243D01*
X587003D01*
Y1062180D01*
Y1062118D01*
Y1062055D01*
Y1061992D01*
Y1061930D01*
Y1061868D01*
Y1061805D01*
Y1061742D01*
Y1061680D01*
Y1061617D01*
Y1061555D01*
Y1061492D01*
Y1061430D01*
Y1061367D01*
Y1061305D01*
Y1061242D01*
Y1061180D01*
Y1061117D01*
Y1061055D01*
Y1060992D01*
Y1060930D01*
Y1060867D01*
Y1060805D01*
Y1060742D01*
Y1060680D01*
Y1060617D01*
Y1060555D01*
Y1060492D01*
Y1060430D01*
Y1060367D01*
Y1060304D01*
Y1060242D01*
Y1060179D01*
Y1060117D01*
Y1060054D01*
Y1059992D01*
Y1059929D01*
Y1059867D01*
Y1059804D01*
Y1059742D01*
Y1059679D01*
Y1059617D01*
Y1059554D01*
Y1059492D01*
Y1059429D01*
Y1059367D01*
Y1059304D01*
Y1059242D01*
Y1059179D01*
Y1059117D01*
Y1059054D01*
Y1058991D01*
Y1058929D01*
X585940D01*
Y1058991D01*
Y1059054D01*
Y1059117D01*
Y1059179D01*
Y1059242D01*
Y1059304D01*
Y1059367D01*
Y1059429D01*
Y1059492D01*
Y1059554D01*
Y1059617D01*
Y1059679D01*
Y1059742D01*
Y1059804D01*
Y1059867D01*
Y1059929D01*
Y1059992D01*
Y1060054D01*
Y1060117D01*
Y1060179D01*
Y1060242D01*
Y1060304D01*
Y1060367D01*
Y1060430D01*
Y1060492D01*
Y1060555D01*
Y1060617D01*
Y1060680D01*
Y1060742D01*
Y1060805D01*
Y1060867D01*
Y1060930D01*
Y1060992D01*
Y1061055D01*
Y1061117D01*
Y1061180D01*
Y1061242D01*
Y1061305D01*
Y1061367D01*
Y1061430D01*
Y1061492D01*
Y1061555D01*
Y1061617D01*
Y1061680D01*
Y1061742D01*
Y1061805D01*
Y1061868D01*
Y1061930D01*
Y1061992D01*
Y1062055D01*
Y1062118D01*
Y1062180D01*
Y1062243D01*
Y1062305D01*
Y1062368D01*
Y1062430D01*
Y1062493D01*
Y1062555D01*
Y1062618D01*
Y1062680D01*
Y1062743D01*
Y1062805D01*
Y1062868D01*
Y1062930D01*
Y1062993D01*
Y1063055D01*
Y1063118D01*
Y1063180D01*
Y1063243D01*
Y1063306D01*
Y1063368D01*
Y1063430D01*
Y1063493D01*
Y1063556D01*
Y1063618D01*
Y1063681D01*
Y1063743D01*
Y1063806D01*
Y1063868D01*
Y1063931D01*
X587003D01*
Y1063868D01*
Y1063806D01*
Y1063743D01*
Y1063681D01*
Y1063618D01*
Y1063556D01*
Y1063493D01*
X587065D01*
Y1063556D01*
X587128D01*
Y1063618D01*
X587190D01*
Y1063681D01*
X587315D01*
Y1063743D01*
X587378D01*
Y1063806D01*
X587503D01*
Y1063868D01*
X587691D01*
Y1063931D01*
X587878D01*
Y1063993D01*
X588628D01*
Y1063931D01*
D02*
G37*
G36*
X576312Y1101006D02*
Y1100943D01*
X576374D01*
Y1100881D01*
Y1100818D01*
X576437D01*
Y1100756D01*
Y1100693D01*
Y1100631D01*
Y1100568D01*
Y1100506D01*
Y1100443D01*
X576499D01*
Y1100381D01*
Y1100318D01*
Y1100256D01*
Y1100193D01*
Y1100131D01*
X576562D01*
Y1100068D01*
Y1100006D01*
Y1099943D01*
Y1099881D01*
Y1099818D01*
X576624D01*
Y1099755D01*
Y1099693D01*
Y1099630D01*
Y1099568D01*
Y1099505D01*
Y1099443D01*
X576687D01*
Y1099380D01*
Y1099318D01*
Y1099255D01*
Y1099193D01*
Y1099130D01*
X576749D01*
Y1099068D01*
Y1099005D01*
Y1098943D01*
Y1098880D01*
Y1098818D01*
X576812D01*
Y1098755D01*
Y1098693D01*
Y1098630D01*
Y1098568D01*
Y1098505D01*
Y1098443D01*
X576874D01*
Y1098380D01*
Y1098317D01*
Y1098255D01*
Y1098192D01*
Y1098130D01*
X576937D01*
Y1098067D01*
Y1098005D01*
Y1097942D01*
Y1097880D01*
Y1097817D01*
Y1097755D01*
X576999D01*
Y1097692D01*
Y1097630D01*
Y1097567D01*
Y1097505D01*
Y1097442D01*
X577062D01*
Y1097380D01*
Y1097317D01*
Y1097255D01*
Y1097192D01*
Y1097130D01*
X577124D01*
Y1097067D01*
Y1097004D01*
Y1096942D01*
Y1096880D01*
Y1096817D01*
Y1096755D01*
X577187D01*
Y1096692D01*
Y1096629D01*
Y1096567D01*
Y1096504D01*
Y1096442D01*
X577249D01*
Y1096379D01*
Y1096317D01*
Y1096254D01*
Y1096192D01*
X577312D01*
Y1096129D01*
Y1096067D01*
X577374D01*
Y1096004D01*
X577437D01*
Y1095942D01*
X577562D01*
Y1095879D01*
X577687D01*
Y1095817D01*
X577875D01*
Y1095754D01*
X578000D01*
Y1095692D01*
X578187D01*
Y1095629D01*
X578312D01*
Y1095567D01*
X578437D01*
Y1095504D01*
X578625D01*
Y1095442D01*
X578750D01*
Y1095379D01*
X578938D01*
Y1095316D01*
X579063D01*
Y1095254D01*
X579250D01*
Y1095191D01*
X579375D01*
Y1095129D01*
X579500D01*
Y1095066D01*
X579688D01*
Y1095004D01*
X579813D01*
Y1094941D01*
X580000D01*
Y1094879D01*
X580126D01*
Y1094816D01*
X580313D01*
Y1094754D01*
X580438D01*
Y1094691D01*
X580626D01*
Y1094629D01*
X580938D01*
Y1094691D01*
X581001D01*
Y1094754D01*
X581126D01*
Y1094816D01*
X581188D01*
Y1094879D01*
X581313D01*
Y1094941D01*
X581376D01*
Y1095004D01*
X581501D01*
Y1095066D01*
X581563D01*
Y1095129D01*
X581626D01*
Y1095191D01*
X581751D01*
Y1095254D01*
X581814D01*
Y1095316D01*
X581939D01*
Y1095379D01*
X582001D01*
Y1095442D01*
X582126D01*
Y1095504D01*
X582189D01*
Y1095567D01*
X582314D01*
Y1095629D01*
X582376D01*
Y1095692D01*
X582501D01*
Y1095754D01*
X582564D01*
Y1095817D01*
X582626D01*
Y1095879D01*
X582751D01*
Y1095942D01*
X582814D01*
Y1096004D01*
X582939D01*
Y1096067D01*
X583002D01*
Y1096129D01*
X583126D01*
Y1096192D01*
X583189D01*
Y1096254D01*
X583314D01*
Y1096317D01*
X583377D01*
Y1096379D01*
X583502D01*
Y1096442D01*
X583564D01*
Y1096504D01*
X583689D01*
Y1096567D01*
X583752D01*
Y1096629D01*
X583814D01*
Y1096692D01*
X583939D01*
Y1096755D01*
X584002D01*
Y1096817D01*
X584127D01*
Y1096880D01*
X584189D01*
Y1096942D01*
X584314D01*
Y1097004D01*
X584377D01*
Y1097067D01*
X584502D01*
Y1097130D01*
X584565D01*
Y1097192D01*
X584689D01*
Y1097255D01*
X584752D01*
Y1097317D01*
X584815D01*
Y1097380D01*
X585190D01*
Y1097317D01*
X585252D01*
Y1097255D01*
X585315D01*
Y1097192D01*
X585377D01*
Y1097130D01*
X585440D01*
Y1097067D01*
X585502D01*
Y1097004D01*
X585565D01*
Y1096942D01*
X585627D01*
Y1096880D01*
X585690D01*
Y1096817D01*
X585752D01*
Y1096755D01*
X585815D01*
Y1096692D01*
X585877D01*
Y1096629D01*
X585940D01*
Y1096567D01*
X586003D01*
Y1096504D01*
X586065D01*
Y1096442D01*
X586128D01*
Y1096379D01*
X586190D01*
Y1096317D01*
X586253D01*
Y1096254D01*
X586315D01*
Y1096192D01*
X586378D01*
Y1096129D01*
X586440D01*
Y1096067D01*
X586503D01*
Y1096004D01*
X586565D01*
Y1095942D01*
X586628D01*
Y1095879D01*
X586690D01*
Y1095817D01*
X586753D01*
Y1095754D01*
X586815D01*
Y1095692D01*
X586878D01*
Y1095629D01*
X586940D01*
Y1095567D01*
X587003D01*
Y1095504D01*
X587065D01*
Y1095442D01*
X587128D01*
Y1095379D01*
X587190D01*
Y1095316D01*
X587253D01*
Y1095254D01*
X587315D01*
Y1095191D01*
X587378D01*
Y1095129D01*
X587440D01*
Y1095066D01*
X587503D01*
Y1095004D01*
X587565D01*
Y1094941D01*
X587628D01*
Y1094879D01*
X587691D01*
Y1094816D01*
X587753D01*
Y1094754D01*
X587816D01*
Y1094691D01*
X587878D01*
Y1094629D01*
X587941D01*
Y1094566D01*
X588003D01*
Y1094504D01*
X588066D01*
Y1094441D01*
X588128D01*
Y1094379D01*
X588191D01*
Y1094316D01*
X588253D01*
Y1094254D01*
X588316D01*
Y1094191D01*
X588378D01*
Y1094129D01*
X588441D01*
Y1094066D01*
X588503D01*
Y1094004D01*
X588566D01*
Y1093941D01*
Y1093878D01*
X588628D01*
Y1093816D01*
X588566D01*
Y1093753D01*
Y1093691D01*
Y1093628D01*
X588503D01*
Y1093566D01*
Y1093503D01*
X588441D01*
Y1093441D01*
X588378D01*
Y1093378D01*
Y1093316D01*
X588316D01*
Y1093253D01*
X588253D01*
Y1093191D01*
Y1093128D01*
X588191D01*
Y1093066D01*
X588128D01*
Y1093003D01*
X588066D01*
Y1092941D01*
Y1092878D01*
X588003D01*
Y1092816D01*
X587941D01*
Y1092753D01*
Y1092691D01*
X587878D01*
Y1092628D01*
X587816D01*
Y1092566D01*
Y1092503D01*
X587753D01*
Y1092440D01*
X587691D01*
Y1092378D01*
Y1092315D01*
X587628D01*
Y1092253D01*
X587565D01*
Y1092190D01*
Y1092128D01*
X587503D01*
Y1092065D01*
X587440D01*
Y1092003D01*
Y1091940D01*
X587378D01*
Y1091878D01*
X587315D01*
Y1091815D01*
X587253D01*
Y1091753D01*
Y1091690D01*
X587190D01*
Y1091628D01*
X587128D01*
Y1091565D01*
Y1091503D01*
X587065D01*
Y1091440D01*
X587003D01*
Y1091378D01*
Y1091315D01*
X586940D01*
Y1091253D01*
X586878D01*
Y1091190D01*
Y1091127D01*
X586815D01*
Y1091065D01*
X586753D01*
Y1091003D01*
Y1090940D01*
X586690D01*
Y1090877D01*
X586628D01*
Y1090815D01*
X586565D01*
Y1090752D01*
Y1090690D01*
X586503D01*
Y1090627D01*
X586440D01*
Y1090565D01*
Y1090502D01*
X586378D01*
Y1090440D01*
X586315D01*
Y1090377D01*
Y1090315D01*
X586253D01*
Y1090252D01*
X586190D01*
Y1090190D01*
Y1090127D01*
X586128D01*
Y1090065D01*
X586065D01*
Y1090002D01*
Y1089940D01*
X586003D01*
Y1089877D01*
X585940D01*
Y1089815D01*
Y1089752D01*
X585877D01*
Y1089689D01*
Y1089627D01*
Y1089565D01*
Y1089502D01*
X585940D01*
Y1089439D01*
Y1089377D01*
Y1089314D01*
X586003D01*
Y1089252D01*
Y1089189D01*
X586065D01*
Y1089127D01*
Y1089064D01*
X586128D01*
Y1089002D01*
Y1088939D01*
Y1088877D01*
X586190D01*
Y1088814D01*
Y1088752D01*
X586253D01*
Y1088689D01*
Y1088627D01*
X586315D01*
Y1088564D01*
Y1088502D01*
Y1088439D01*
X586378D01*
Y1088377D01*
Y1088314D01*
X586440D01*
Y1088251D01*
Y1088189D01*
X586503D01*
Y1088127D01*
Y1088064D01*
Y1088001D01*
X586565D01*
Y1087939D01*
Y1087876D01*
X586628D01*
Y1087814D01*
Y1087751D01*
X586690D01*
Y1087689D01*
Y1087626D01*
Y1087564D01*
X586753D01*
Y1087501D01*
Y1087439D01*
X586815D01*
Y1087376D01*
Y1087314D01*
X586878D01*
Y1087251D01*
Y1087189D01*
Y1087126D01*
X586940D01*
Y1087064D01*
Y1087001D01*
X587003D01*
Y1086939D01*
Y1086876D01*
X587065D01*
Y1086814D01*
Y1086751D01*
Y1086689D01*
X587128D01*
Y1086626D01*
Y1086563D01*
X587190D01*
Y1086501D01*
Y1086438D01*
X587253D01*
Y1086376D01*
Y1086313D01*
Y1086251D01*
X587315D01*
Y1086188D01*
X587378D01*
Y1086126D01*
X587440D01*
Y1086063D01*
X587565D01*
Y1086001D01*
X587878D01*
Y1085938D01*
X588191D01*
Y1085876D01*
X588503D01*
Y1085813D01*
X588879D01*
Y1085751D01*
X589191D01*
Y1085688D01*
X589504D01*
Y1085626D01*
X589879D01*
Y1085563D01*
X590191D01*
Y1085501D01*
X590567D01*
Y1085438D01*
X590879D01*
Y1085376D01*
X591192D01*
Y1085313D01*
X591567D01*
Y1085250D01*
X591880D01*
Y1085188D01*
X592130D01*
Y1085126D01*
X592255D01*
Y1085063D01*
Y1085000D01*
X592317D01*
Y1084938D01*
Y1084875D01*
Y1084813D01*
Y1084750D01*
Y1084688D01*
Y1084625D01*
Y1084563D01*
Y1084500D01*
Y1084438D01*
Y1084375D01*
Y1084313D01*
Y1084250D01*
Y1084188D01*
Y1084125D01*
Y1084063D01*
Y1084000D01*
Y1083938D01*
Y1083875D01*
Y1083812D01*
Y1083750D01*
Y1083688D01*
Y1083625D01*
Y1083562D01*
Y1083500D01*
Y1083437D01*
Y1083375D01*
Y1083312D01*
Y1083250D01*
Y1083187D01*
Y1083125D01*
Y1083062D01*
Y1083000D01*
Y1082937D01*
Y1082875D01*
Y1082812D01*
Y1082750D01*
Y1082687D01*
Y1082625D01*
Y1082562D01*
Y1082500D01*
Y1082437D01*
Y1082374D01*
Y1082312D01*
Y1082250D01*
Y1082187D01*
Y1082124D01*
Y1082062D01*
Y1081999D01*
Y1081937D01*
Y1081874D01*
Y1081812D01*
Y1081749D01*
Y1081687D01*
Y1081624D01*
Y1081562D01*
Y1081499D01*
Y1081437D01*
Y1081374D01*
Y1081312D01*
Y1081249D01*
Y1081187D01*
Y1081124D01*
Y1081062D01*
Y1080999D01*
Y1080937D01*
Y1080874D01*
Y1080811D01*
Y1080749D01*
Y1080686D01*
Y1080624D01*
Y1080561D01*
Y1080499D01*
Y1080436D01*
Y1080374D01*
Y1080311D01*
Y1080249D01*
Y1080186D01*
X592255D01*
Y1080124D01*
Y1080061D01*
X592192D01*
Y1079999D01*
X592130D01*
Y1079936D01*
X591817D01*
Y1079874D01*
X591442D01*
Y1079811D01*
X591129D01*
Y1079749D01*
X590817D01*
Y1079686D01*
X590442D01*
Y1079624D01*
X590129D01*
Y1079561D01*
X589816D01*
Y1079499D01*
X589441D01*
Y1079436D01*
X589129D01*
Y1079373D01*
X588753D01*
Y1079311D01*
X588441D01*
Y1079248D01*
X588128D01*
Y1079186D01*
X587753D01*
Y1079123D01*
X587565D01*
Y1079061D01*
X587503D01*
Y1078998D01*
X587440D01*
Y1078936D01*
X587378D01*
Y1078873D01*
Y1078811D01*
Y1078748D01*
X587315D01*
Y1078686D01*
Y1078623D01*
X587253D01*
Y1078561D01*
Y1078498D01*
Y1078436D01*
X587190D01*
Y1078373D01*
Y1078311D01*
X587128D01*
Y1078248D01*
Y1078186D01*
Y1078123D01*
X587065D01*
Y1078061D01*
Y1077998D01*
X587003D01*
Y1077935D01*
Y1077873D01*
Y1077810D01*
X586940D01*
Y1077748D01*
Y1077685D01*
X586878D01*
Y1077623D01*
Y1077560D01*
Y1077498D01*
X586815D01*
Y1077435D01*
Y1077373D01*
X586753D01*
Y1077310D01*
Y1077248D01*
Y1077185D01*
X586690D01*
Y1077123D01*
Y1077060D01*
X586628D01*
Y1076998D01*
Y1076935D01*
Y1076873D01*
X586565D01*
Y1076810D01*
Y1076748D01*
X586503D01*
Y1076685D01*
Y1076622D01*
Y1076560D01*
X586440D01*
Y1076497D01*
Y1076435D01*
X586378D01*
Y1076373D01*
Y1076310D01*
Y1076247D01*
X586315D01*
Y1076185D01*
Y1076122D01*
X586253D01*
Y1076060D01*
Y1075997D01*
Y1075935D01*
X586190D01*
Y1075872D01*
Y1075810D01*
X586128D01*
Y1075747D01*
Y1075685D01*
Y1075622D01*
X586065D01*
Y1075560D01*
Y1075497D01*
X586003D01*
Y1075435D01*
Y1075372D01*
Y1075310D01*
Y1075247D01*
Y1075185D01*
X586065D01*
Y1075122D01*
Y1075060D01*
X586128D01*
Y1074997D01*
X586190D01*
Y1074934D01*
Y1074872D01*
X586253D01*
Y1074809D01*
X586315D01*
Y1074747D01*
X586378D01*
Y1074684D01*
Y1074622D01*
X586440D01*
Y1074559D01*
X586503D01*
Y1074497D01*
Y1074434D01*
X586565D01*
Y1074372D01*
X586628D01*
Y1074309D01*
Y1074247D01*
X586690D01*
Y1074184D01*
X586753D01*
Y1074122D01*
Y1074059D01*
X586815D01*
Y1073997D01*
X586878D01*
Y1073934D01*
Y1073872D01*
X586940D01*
Y1073809D01*
X587003D01*
Y1073747D01*
X587065D01*
Y1073684D01*
Y1073622D01*
X587128D01*
Y1073559D01*
X587190D01*
Y1073496D01*
Y1073434D01*
X587253D01*
Y1073371D01*
X587315D01*
Y1073309D01*
Y1073246D01*
X587378D01*
Y1073184D01*
X587440D01*
Y1073121D01*
Y1073059D01*
X587503D01*
Y1072996D01*
X587565D01*
Y1072934D01*
Y1072871D01*
X587628D01*
Y1072809D01*
X587691D01*
Y1072746D01*
Y1072684D01*
X587753D01*
Y1072621D01*
X587816D01*
Y1072559D01*
X587878D01*
Y1072496D01*
Y1072434D01*
X587941D01*
Y1072371D01*
X588003D01*
Y1072309D01*
Y1072246D01*
X588066D01*
Y1072184D01*
X588128D01*
Y1072121D01*
Y1072058D01*
X588191D01*
Y1071996D01*
X588253D01*
Y1071933D01*
Y1071871D01*
X588316D01*
Y1071808D01*
X588378D01*
Y1071746D01*
Y1071683D01*
X588441D01*
Y1071621D01*
X588503D01*
Y1071558D01*
X588566D01*
Y1071496D01*
Y1071433D01*
Y1071371D01*
X588628D01*
Y1071308D01*
Y1071246D01*
X588566D01*
Y1071183D01*
Y1071121D01*
X588503D01*
Y1071058D01*
X588441D01*
Y1070996D01*
X588378D01*
Y1070933D01*
X588316D01*
Y1070871D01*
X588253D01*
Y1070808D01*
X588191D01*
Y1070745D01*
X588128D01*
Y1070683D01*
X588066D01*
Y1070620D01*
X588003D01*
Y1070558D01*
X587941D01*
Y1070495D01*
X587878D01*
Y1070433D01*
X587816D01*
Y1070370D01*
X587753D01*
Y1070308D01*
X587691D01*
Y1070245D01*
X587628D01*
Y1070183D01*
X587565D01*
Y1070120D01*
X587503D01*
Y1070058D01*
X587440D01*
Y1069995D01*
X587378D01*
Y1069933D01*
X587315D01*
Y1069870D01*
X587253D01*
Y1069808D01*
X587190D01*
Y1069745D01*
X587128D01*
Y1069683D01*
X587065D01*
Y1069620D01*
X587003D01*
Y1069558D01*
X586940D01*
Y1069495D01*
X586878D01*
Y1069433D01*
X586815D01*
Y1069370D01*
X586753D01*
Y1069307D01*
X586690D01*
Y1069245D01*
X586628D01*
Y1069183D01*
X586565D01*
Y1069120D01*
X586503D01*
Y1069057D01*
X586440D01*
Y1068995D01*
X586378D01*
Y1068932D01*
X586315D01*
Y1068870D01*
X586253D01*
Y1068807D01*
X586190D01*
Y1068745D01*
X586128D01*
Y1068682D01*
X586065D01*
Y1068620D01*
X586003D01*
Y1068557D01*
X585940D01*
Y1068495D01*
X585877D01*
Y1068432D01*
X585815D01*
Y1068370D01*
X585752D01*
Y1068307D01*
X585690D01*
Y1068245D01*
X585627D01*
Y1068182D01*
X585565D01*
Y1068120D01*
X585502D01*
Y1068057D01*
X585440D01*
Y1067995D01*
X585377D01*
Y1067932D01*
X585315D01*
Y1067869D01*
X585252D01*
Y1067807D01*
X585190D01*
Y1067745D01*
X584877D01*
Y1067807D01*
X584752D01*
Y1067869D01*
X584689D01*
Y1067932D01*
X584565D01*
Y1067995D01*
X584502D01*
Y1068057D01*
X584377D01*
Y1068120D01*
X584314D01*
Y1068182D01*
X584252D01*
Y1068245D01*
X584127D01*
Y1068307D01*
X584064D01*
Y1068370D01*
X583939D01*
Y1068432D01*
X583877D01*
Y1068495D01*
X583752D01*
Y1068557D01*
X583689D01*
Y1068620D01*
X583564D01*
Y1068682D01*
X583502D01*
Y1068745D01*
X583377D01*
Y1068807D01*
X583314D01*
Y1068870D01*
X583251D01*
Y1068932D01*
X583126D01*
Y1068995D01*
X583064D01*
Y1069057D01*
X582939D01*
Y1069120D01*
X582876D01*
Y1069183D01*
X582751D01*
Y1069245D01*
X582689D01*
Y1069307D01*
X582564D01*
Y1069370D01*
X582501D01*
Y1069433D01*
X582376D01*
Y1069495D01*
X582314D01*
Y1069558D01*
X582251D01*
Y1069620D01*
X582126D01*
Y1069683D01*
X582064D01*
Y1069745D01*
X581939D01*
Y1069808D01*
X581876D01*
Y1069870D01*
X581751D01*
Y1069933D01*
X581688D01*
Y1069995D01*
X581563D01*
Y1070058D01*
X581501D01*
Y1070120D01*
X581376D01*
Y1070183D01*
X581313D01*
Y1070245D01*
X581188D01*
Y1070308D01*
X581063D01*
Y1070245D01*
X580876D01*
Y1070183D01*
X580751D01*
Y1070120D01*
X580626D01*
Y1070058D01*
X580501D01*
Y1069995D01*
X580438D01*
Y1069933D01*
X580313D01*
Y1069870D01*
X580188D01*
Y1069808D01*
X580063D01*
Y1069745D01*
X579938D01*
Y1069683D01*
X579813D01*
Y1069620D01*
X579688D01*
Y1069558D01*
X579563D01*
Y1069495D01*
X579500D01*
Y1069433D01*
X579313D01*
Y1069370D01*
X579188D01*
Y1069433D01*
X579125D01*
Y1069495D01*
X579063D01*
Y1069558D01*
Y1069620D01*
X579000D01*
Y1069683D01*
Y1069745D01*
X578938D01*
Y1069808D01*
Y1069870D01*
X578875D01*
Y1069933D01*
Y1069995D01*
Y1070058D01*
X578812D01*
Y1070120D01*
Y1070183D01*
X578750D01*
Y1070245D01*
Y1070308D01*
Y1070370D01*
X578688D01*
Y1070433D01*
Y1070495D01*
X578625D01*
Y1070558D01*
Y1070620D01*
X578562D01*
Y1070683D01*
Y1070745D01*
Y1070808D01*
X578500D01*
Y1070871D01*
Y1070933D01*
X578437D01*
Y1070996D01*
Y1071058D01*
Y1071121D01*
X578375D01*
Y1071183D01*
Y1071246D01*
X578312D01*
Y1071308D01*
Y1071371D01*
Y1071433D01*
X578250D01*
Y1071496D01*
Y1071558D01*
X578187D01*
Y1071621D01*
Y1071683D01*
X578125D01*
Y1071746D01*
Y1071808D01*
Y1071871D01*
X578062D01*
Y1071933D01*
Y1071996D01*
X578000D01*
Y1072058D01*
Y1072121D01*
Y1072184D01*
X577937D01*
Y1072246D01*
Y1072309D01*
X577875D01*
Y1072371D01*
Y1072434D01*
X577812D01*
Y1072496D01*
Y1072559D01*
Y1072621D01*
X577750D01*
Y1072684D01*
Y1072746D01*
X577687D01*
Y1072809D01*
Y1072871D01*
Y1072934D01*
X577625D01*
Y1072996D01*
Y1073059D01*
X577562D01*
Y1073121D01*
Y1073184D01*
Y1073246D01*
X577500D01*
Y1073309D01*
Y1073371D01*
X577437D01*
Y1073434D01*
Y1073496D01*
X577374D01*
Y1073559D01*
Y1073622D01*
Y1073684D01*
X577312D01*
Y1073747D01*
Y1073809D01*
X577249D01*
Y1073872D01*
Y1073934D01*
Y1073997D01*
X577187D01*
Y1074059D01*
Y1074122D01*
X577124D01*
Y1074184D01*
Y1074247D01*
X577062D01*
Y1074309D01*
Y1074372D01*
Y1074434D01*
X576999D01*
Y1074497D01*
Y1074559D01*
X576937D01*
Y1074622D01*
Y1074684D01*
Y1074747D01*
X576874D01*
Y1074809D01*
Y1074872D01*
X576812D01*
Y1074934D01*
Y1074997D01*
Y1075060D01*
X576749D01*
Y1075122D01*
Y1075185D01*
X576687D01*
Y1075247D01*
Y1075310D01*
X576624D01*
Y1075372D01*
Y1075435D01*
Y1075497D01*
X576562D01*
Y1075560D01*
Y1075622D01*
X576499D01*
Y1075685D01*
Y1075747D01*
Y1075810D01*
X576437D01*
Y1075872D01*
Y1075935D01*
X576374D01*
Y1075997D01*
Y1076060D01*
X576312D01*
Y1076122D01*
Y1076185D01*
Y1076247D01*
X576249D01*
Y1076310D01*
Y1076373D01*
X576187D01*
Y1076435D01*
Y1076497D01*
Y1076560D01*
X576124D01*
Y1076622D01*
Y1076685D01*
X576062D01*
Y1076748D01*
Y1076810D01*
Y1076873D01*
X575999D01*
Y1076935D01*
Y1076998D01*
X575937D01*
Y1077060D01*
Y1077123D01*
X575874D01*
Y1077185D01*
Y1077248D01*
Y1077310D01*
X575812D01*
Y1077373D01*
Y1077435D01*
Y1077498D01*
Y1077560D01*
Y1077623D01*
Y1077685D01*
Y1077748D01*
X575874D01*
Y1077810D01*
X575999D01*
Y1077873D01*
X576062D01*
Y1077935D01*
X576187D01*
Y1077998D01*
X576312D01*
Y1078061D01*
X576374D01*
Y1078123D01*
X576437D01*
Y1078186D01*
X576562D01*
Y1078248D01*
X576624D01*
Y1078311D01*
X576687D01*
Y1078373D01*
X576812D01*
Y1078436D01*
X576874D01*
Y1078498D01*
X576937D01*
Y1078561D01*
X577062D01*
Y1078623D01*
X577124D01*
Y1078686D01*
X577187D01*
Y1078748D01*
X577249D01*
Y1078811D01*
X577312D01*
Y1078873D01*
X577374D01*
Y1078936D01*
X577437D01*
Y1078998D01*
X577500D01*
Y1079061D01*
X577562D01*
Y1079123D01*
X577625D01*
Y1079186D01*
X577687D01*
Y1079248D01*
X577750D01*
Y1079311D01*
Y1079373D01*
X577812D01*
Y1079436D01*
X577875D01*
Y1079499D01*
X577937D01*
Y1079561D01*
Y1079624D01*
X578000D01*
Y1079686D01*
X578062D01*
Y1079749D01*
Y1079811D01*
X578125D01*
Y1079874D01*
X578187D01*
Y1079936D01*
Y1079999D01*
X578250D01*
Y1080061D01*
X578312D01*
Y1080124D01*
Y1080186D01*
X578375D01*
Y1080249D01*
Y1080311D01*
Y1080374D01*
X578437D01*
Y1080436D01*
Y1080499D01*
X578500D01*
Y1080561D01*
Y1080624D01*
X578562D01*
Y1080686D01*
Y1080749D01*
Y1080811D01*
X578625D01*
Y1080874D01*
Y1080937D01*
Y1080999D01*
X578688D01*
Y1081062D01*
Y1081124D01*
Y1081187D01*
X578750D01*
Y1081249D01*
Y1081312D01*
Y1081374D01*
Y1081437D01*
X578812D01*
Y1081499D01*
Y1081562D01*
Y1081624D01*
Y1081687D01*
Y1081749D01*
X578875D01*
Y1081812D01*
Y1081874D01*
Y1081937D01*
Y1081999D01*
Y1082062D01*
Y1082124D01*
Y1082187D01*
Y1082250D01*
Y1082312D01*
Y1082374D01*
X578938D01*
Y1082437D01*
Y1082500D01*
Y1082562D01*
Y1082625D01*
Y1082687D01*
Y1082750D01*
X578875D01*
Y1082812D01*
Y1082875D01*
Y1082937D01*
Y1083000D01*
Y1083062D01*
Y1083125D01*
Y1083187D01*
Y1083250D01*
Y1083312D01*
Y1083375D01*
X578812D01*
Y1083437D01*
Y1083500D01*
Y1083562D01*
Y1083625D01*
Y1083688D01*
X578750D01*
Y1083750D01*
Y1083812D01*
Y1083875D01*
Y1083938D01*
X578688D01*
Y1084000D01*
Y1084063D01*
Y1084125D01*
X578625D01*
Y1084188D01*
Y1084250D01*
Y1084313D01*
X578562D01*
Y1084375D01*
Y1084438D01*
Y1084500D01*
X578500D01*
Y1084563D01*
Y1084625D01*
X578437D01*
Y1084688D01*
Y1084750D01*
X578375D01*
Y1084813D01*
Y1084875D01*
X578312D01*
Y1084938D01*
Y1085000D01*
X578250D01*
Y1085063D01*
Y1085126D01*
X578187D01*
Y1085188D01*
X578125D01*
Y1085250D01*
Y1085313D01*
X578062D01*
Y1085376D01*
Y1085438D01*
X578000D01*
Y1085501D01*
X577937D01*
Y1085563D01*
X577875D01*
Y1085626D01*
Y1085688D01*
X577812D01*
Y1085751D01*
X577750D01*
Y1085813D01*
X577687D01*
Y1085876D01*
X577625D01*
Y1085938D01*
X577562D01*
Y1086001D01*
Y1086063D01*
X577500D01*
Y1086126D01*
X577437D01*
Y1086188D01*
X577374D01*
Y1086251D01*
X577312D01*
Y1086313D01*
X577187D01*
Y1086376D01*
X577124D01*
Y1086438D01*
X577062D01*
Y1086501D01*
X576999D01*
Y1086563D01*
X576937D01*
Y1086626D01*
X576812D01*
Y1086689D01*
X576749D01*
Y1086751D01*
X576687D01*
Y1086814D01*
X576562D01*
Y1086876D01*
X576437D01*
Y1086939D01*
X576374D01*
Y1087001D01*
X576249D01*
Y1087064D01*
X576124D01*
Y1087126D01*
X575999D01*
Y1087189D01*
X575874D01*
Y1087251D01*
X575749D01*
Y1087314D01*
X575561D01*
Y1087376D01*
X575436D01*
Y1087439D01*
X575186D01*
Y1087501D01*
X574999D01*
Y1087564D01*
X574686D01*
Y1087626D01*
X574248D01*
Y1087689D01*
X573311D01*
Y1087626D01*
X572873D01*
Y1087564D01*
X572560D01*
Y1087501D01*
X572373D01*
Y1087439D01*
X572123D01*
Y1087376D01*
X571998D01*
Y1087314D01*
X571810D01*
Y1087251D01*
X571685D01*
Y1087189D01*
X571560D01*
Y1087126D01*
X571435D01*
Y1087064D01*
X571310D01*
Y1087001D01*
X571185D01*
Y1086939D01*
X571122D01*
Y1086876D01*
X570997D01*
Y1086814D01*
X570872D01*
Y1086751D01*
X570810D01*
Y1086689D01*
X570747D01*
Y1086626D01*
X570622D01*
Y1086563D01*
X570560D01*
Y1086501D01*
X570497D01*
Y1086438D01*
X570435D01*
Y1086376D01*
X570372D01*
Y1086313D01*
X570247D01*
Y1086251D01*
X570185D01*
Y1086188D01*
X570122D01*
Y1086126D01*
X570060D01*
Y1086063D01*
X569997D01*
Y1086001D01*
Y1085938D01*
X569935D01*
Y1085876D01*
X569872D01*
Y1085813D01*
X569809D01*
Y1085751D01*
X569747D01*
Y1085688D01*
X569684D01*
Y1085626D01*
Y1085563D01*
X569622D01*
Y1085501D01*
X569559D01*
Y1085438D01*
X569497D01*
Y1085376D01*
Y1085313D01*
X569434D01*
Y1085250D01*
Y1085188D01*
X569372D01*
Y1085126D01*
X569309D01*
Y1085063D01*
Y1085000D01*
X569247D01*
Y1084938D01*
Y1084875D01*
X569184D01*
Y1084813D01*
Y1084750D01*
X569122D01*
Y1084688D01*
Y1084625D01*
X569059D01*
Y1084563D01*
Y1084500D01*
X568997D01*
Y1084438D01*
Y1084375D01*
Y1084313D01*
X568934D01*
Y1084250D01*
Y1084188D01*
Y1084125D01*
X568872D01*
Y1084063D01*
Y1084000D01*
Y1083938D01*
X568809D01*
Y1083875D01*
Y1083812D01*
Y1083750D01*
Y1083688D01*
X568747D01*
Y1083625D01*
Y1083562D01*
Y1083500D01*
Y1083437D01*
Y1083375D01*
X568684D01*
Y1083312D01*
Y1083250D01*
Y1083187D01*
Y1083125D01*
Y1083062D01*
Y1083000D01*
Y1082937D01*
Y1082875D01*
Y1082812D01*
Y1082750D01*
X568621D01*
Y1082687D01*
Y1082625D01*
Y1082562D01*
Y1082500D01*
Y1082437D01*
Y1082374D01*
X568684D01*
Y1082312D01*
Y1082250D01*
Y1082187D01*
Y1082124D01*
Y1082062D01*
Y1081999D01*
Y1081937D01*
Y1081874D01*
Y1081812D01*
Y1081749D01*
X568747D01*
Y1081687D01*
Y1081624D01*
Y1081562D01*
Y1081499D01*
Y1081437D01*
X568809D01*
Y1081374D01*
Y1081312D01*
Y1081249D01*
Y1081187D01*
X568872D01*
Y1081124D01*
Y1081062D01*
Y1080999D01*
X568934D01*
Y1080937D01*
Y1080874D01*
Y1080811D01*
X568997D01*
Y1080749D01*
Y1080686D01*
Y1080624D01*
X569059D01*
Y1080561D01*
Y1080499D01*
X569122D01*
Y1080436D01*
Y1080374D01*
X569184D01*
Y1080311D01*
Y1080249D01*
Y1080186D01*
X569247D01*
Y1080124D01*
Y1080061D01*
X569309D01*
Y1079999D01*
X569372D01*
Y1079936D01*
Y1079874D01*
X569434D01*
Y1079811D01*
X569497D01*
Y1079749D01*
Y1079686D01*
X569559D01*
Y1079624D01*
X569622D01*
Y1079561D01*
Y1079499D01*
X569684D01*
Y1079436D01*
X569747D01*
Y1079373D01*
X569809D01*
Y1079311D01*
Y1079248D01*
X569872D01*
Y1079186D01*
X569935D01*
Y1079123D01*
X569997D01*
Y1079061D01*
X570060D01*
Y1078998D01*
X570122D01*
Y1078936D01*
X570185D01*
Y1078873D01*
X570247D01*
Y1078811D01*
X570310D01*
Y1078748D01*
X570372D01*
Y1078686D01*
X570435D01*
Y1078623D01*
X570497D01*
Y1078561D01*
X570622D01*
Y1078498D01*
X570685D01*
Y1078436D01*
X570747D01*
Y1078373D01*
X570872D01*
Y1078311D01*
X570935D01*
Y1078248D01*
X570997D01*
Y1078186D01*
X571122D01*
Y1078123D01*
X571185D01*
Y1078061D01*
X571247D01*
Y1077998D01*
X571372D01*
Y1077935D01*
X571497D01*
Y1077873D01*
X571560D01*
Y1077810D01*
X571685D01*
Y1077748D01*
X571748D01*
Y1077685D01*
Y1077623D01*
Y1077560D01*
Y1077498D01*
Y1077435D01*
Y1077373D01*
Y1077310D01*
X571685D01*
Y1077248D01*
Y1077185D01*
Y1077123D01*
X571623D01*
Y1077060D01*
Y1076998D01*
X571560D01*
Y1076935D01*
Y1076873D01*
X571497D01*
Y1076810D01*
Y1076748D01*
Y1076685D01*
X571435D01*
Y1076622D01*
Y1076560D01*
X571372D01*
Y1076497D01*
Y1076435D01*
Y1076373D01*
X571310D01*
Y1076310D01*
Y1076247D01*
X571247D01*
Y1076185D01*
Y1076122D01*
Y1076060D01*
X571185D01*
Y1075997D01*
Y1075935D01*
X571122D01*
Y1075872D01*
Y1075810D01*
X571060D01*
Y1075747D01*
Y1075685D01*
Y1075622D01*
X570997D01*
Y1075560D01*
Y1075497D01*
X570935D01*
Y1075435D01*
Y1075372D01*
Y1075310D01*
X570872D01*
Y1075247D01*
Y1075185D01*
X570810D01*
Y1075122D01*
Y1075060D01*
X570747D01*
Y1074997D01*
Y1074934D01*
Y1074872D01*
X570685D01*
Y1074809D01*
Y1074747D01*
X570622D01*
Y1074684D01*
Y1074622D01*
Y1074559D01*
X570560D01*
Y1074497D01*
Y1074434D01*
X570497D01*
Y1074372D01*
Y1074309D01*
Y1074247D01*
X570435D01*
Y1074184D01*
Y1074122D01*
X570372D01*
Y1074059D01*
Y1073997D01*
X570310D01*
Y1073934D01*
Y1073872D01*
Y1073809D01*
X570247D01*
Y1073747D01*
Y1073684D01*
X570185D01*
Y1073622D01*
Y1073559D01*
Y1073496D01*
X570122D01*
Y1073434D01*
Y1073371D01*
X570060D01*
Y1073309D01*
Y1073246D01*
X569997D01*
Y1073184D01*
Y1073121D01*
Y1073059D01*
X569935D01*
Y1072996D01*
Y1072934D01*
X569872D01*
Y1072871D01*
Y1072809D01*
Y1072746D01*
X569809D01*
Y1072684D01*
Y1072621D01*
X569747D01*
Y1072559D01*
Y1072496D01*
Y1072434D01*
X569684D01*
Y1072371D01*
Y1072309D01*
X569622D01*
Y1072246D01*
Y1072184D01*
X569559D01*
Y1072121D01*
Y1072058D01*
Y1071996D01*
X569497D01*
Y1071933D01*
Y1071871D01*
X569434D01*
Y1071808D01*
Y1071746D01*
Y1071683D01*
X569372D01*
Y1071621D01*
Y1071558D01*
X569309D01*
Y1071496D01*
Y1071433D01*
X569247D01*
Y1071371D01*
Y1071308D01*
Y1071246D01*
X569184D01*
Y1071183D01*
Y1071121D01*
X569122D01*
Y1071058D01*
Y1070996D01*
Y1070933D01*
X569059D01*
Y1070871D01*
Y1070808D01*
X568997D01*
Y1070745D01*
Y1070683D01*
Y1070620D01*
X568934D01*
Y1070558D01*
Y1070495D01*
X568872D01*
Y1070433D01*
Y1070370D01*
X568809D01*
Y1070308D01*
Y1070245D01*
Y1070183D01*
X568747D01*
Y1070120D01*
Y1070058D01*
X568684D01*
Y1069995D01*
Y1069933D01*
Y1069870D01*
X568621D01*
Y1069808D01*
Y1069745D01*
X568559D01*
Y1069683D01*
Y1069620D01*
X568497D01*
Y1069558D01*
Y1069495D01*
X568434D01*
Y1069433D01*
X568371D01*
Y1069370D01*
X568246D01*
Y1069433D01*
X568059D01*
Y1069495D01*
X567996D01*
Y1069558D01*
X567871D01*
Y1069620D01*
X567746D01*
Y1069683D01*
X567621D01*
Y1069745D01*
X567496D01*
Y1069808D01*
X567371D01*
Y1069870D01*
X567246D01*
Y1069933D01*
X567121D01*
Y1069995D01*
X567058D01*
Y1070058D01*
X566933D01*
Y1070120D01*
X566808D01*
Y1070183D01*
X566683D01*
Y1070245D01*
X566496D01*
Y1070308D01*
X566371D01*
Y1070245D01*
X566246D01*
Y1070183D01*
X566183D01*
Y1070120D01*
X566058D01*
Y1070058D01*
X565996D01*
Y1069995D01*
X565871D01*
Y1069933D01*
X565808D01*
Y1069870D01*
X565683D01*
Y1069808D01*
X565620D01*
Y1069745D01*
X565495D01*
Y1069683D01*
X565433D01*
Y1069620D01*
X565308D01*
Y1069558D01*
X565245D01*
Y1069495D01*
X565183D01*
Y1069433D01*
X565058D01*
Y1069370D01*
X564995D01*
Y1069307D01*
X564870D01*
Y1069245D01*
X564808D01*
Y1069183D01*
X564683D01*
Y1069120D01*
X564620D01*
Y1069057D01*
X564495D01*
Y1068995D01*
X564433D01*
Y1068932D01*
X564308D01*
Y1068870D01*
X564245D01*
Y1068807D01*
X564183D01*
Y1068745D01*
X564057D01*
Y1068682D01*
X563995D01*
Y1068620D01*
X563870D01*
Y1068557D01*
X563807D01*
Y1068495D01*
X563682D01*
Y1068432D01*
X563620D01*
Y1068370D01*
X563495D01*
Y1068307D01*
X563432D01*
Y1068245D01*
X563307D01*
Y1068182D01*
X563245D01*
Y1068120D01*
X563182D01*
Y1068057D01*
X563057D01*
Y1067995D01*
X562995D01*
Y1067932D01*
X562869D01*
Y1067869D01*
X562807D01*
Y1067807D01*
X562682D01*
Y1067745D01*
X562369D01*
Y1067807D01*
X562307D01*
Y1067869D01*
X562244D01*
Y1067932D01*
X562182D01*
Y1067995D01*
X562119D01*
Y1068057D01*
X562057D01*
Y1068120D01*
X561994D01*
Y1068182D01*
X561932D01*
Y1068245D01*
X561869D01*
Y1068307D01*
X561807D01*
Y1068370D01*
X561744D01*
Y1068432D01*
X561682D01*
Y1068495D01*
X561619D01*
Y1068557D01*
X561557D01*
Y1068620D01*
X561494D01*
Y1068682D01*
X561432D01*
Y1068745D01*
X561369D01*
Y1068807D01*
X561306D01*
Y1068870D01*
X561244D01*
Y1068932D01*
X561181D01*
Y1068995D01*
X561119D01*
Y1069057D01*
X561056D01*
Y1069120D01*
X560994D01*
Y1069183D01*
X560931D01*
Y1069245D01*
X560869D01*
Y1069307D01*
X560806D01*
Y1069370D01*
X560744D01*
Y1069433D01*
X560681D01*
Y1069495D01*
X560619D01*
Y1069558D01*
X560556D01*
Y1069620D01*
X560494D01*
Y1069683D01*
X560431D01*
Y1069745D01*
X560369D01*
Y1069808D01*
X560306D01*
Y1069870D01*
X560244D01*
Y1069933D01*
X560181D01*
Y1069995D01*
X560119D01*
Y1070058D01*
X560056D01*
Y1070120D01*
X559994D01*
Y1070183D01*
X559931D01*
Y1070245D01*
X559869D01*
Y1070308D01*
X559806D01*
Y1070370D01*
X559743D01*
Y1070433D01*
X559681D01*
Y1070495D01*
X559618D01*
Y1070558D01*
X559556D01*
Y1070620D01*
X559493D01*
Y1070683D01*
X559431D01*
Y1070745D01*
X559368D01*
Y1070808D01*
X559306D01*
Y1070871D01*
X559243D01*
Y1070933D01*
X559181D01*
Y1070996D01*
X559118D01*
Y1071058D01*
X559056D01*
Y1071121D01*
X558993D01*
Y1071183D01*
Y1071246D01*
X558931D01*
Y1071308D01*
Y1071371D01*
X558993D01*
Y1071433D01*
Y1071496D01*
Y1071558D01*
X559056D01*
Y1071621D01*
X559118D01*
Y1071683D01*
X559181D01*
Y1071746D01*
Y1071808D01*
X559243D01*
Y1071871D01*
X559306D01*
Y1071933D01*
Y1071996D01*
X559368D01*
Y1072058D01*
X559431D01*
Y1072121D01*
Y1072184D01*
X559493D01*
Y1072246D01*
X559556D01*
Y1072309D01*
Y1072371D01*
X559618D01*
Y1072434D01*
X559681D01*
Y1072496D01*
Y1072559D01*
X559743D01*
Y1072621D01*
X559806D01*
Y1072684D01*
X559869D01*
Y1072746D01*
Y1072809D01*
X559931D01*
Y1072871D01*
X559994D01*
Y1072934D01*
Y1072996D01*
X560056D01*
Y1073059D01*
X560119D01*
Y1073121D01*
Y1073184D01*
X560181D01*
Y1073246D01*
X560244D01*
Y1073309D01*
Y1073371D01*
X560306D01*
Y1073434D01*
X560369D01*
Y1073496D01*
Y1073559D01*
X560431D01*
Y1073622D01*
X560494D01*
Y1073684D01*
Y1073747D01*
X560556D01*
Y1073809D01*
X560619D01*
Y1073872D01*
X560681D01*
Y1073934D01*
Y1073997D01*
X560744D01*
Y1074059D01*
X560806D01*
Y1074122D01*
Y1074184D01*
X560869D01*
Y1074247D01*
X560931D01*
Y1074309D01*
Y1074372D01*
X560994D01*
Y1074434D01*
X561056D01*
Y1074497D01*
Y1074559D01*
X561119D01*
Y1074622D01*
X561181D01*
Y1074684D01*
Y1074747D01*
X561244D01*
Y1074809D01*
X561306D01*
Y1074872D01*
X561369D01*
Y1074934D01*
Y1074997D01*
X561432D01*
Y1075060D01*
X561494D01*
Y1075122D01*
Y1075185D01*
X561557D01*
Y1075247D01*
Y1075310D01*
Y1075372D01*
Y1075435D01*
Y1075497D01*
X561494D01*
Y1075560D01*
Y1075622D01*
X561432D01*
Y1075685D01*
Y1075747D01*
Y1075810D01*
X561369D01*
Y1075872D01*
Y1075935D01*
X561306D01*
Y1075997D01*
Y1076060D01*
Y1076122D01*
X561244D01*
Y1076185D01*
Y1076247D01*
X561181D01*
Y1076310D01*
Y1076373D01*
Y1076435D01*
X561119D01*
Y1076497D01*
Y1076560D01*
X561056D01*
Y1076622D01*
Y1076685D01*
Y1076748D01*
X560994D01*
Y1076810D01*
Y1076873D01*
X560931D01*
Y1076935D01*
Y1076998D01*
Y1077060D01*
X560869D01*
Y1077123D01*
Y1077185D01*
X560806D01*
Y1077248D01*
Y1077310D01*
Y1077373D01*
X560744D01*
Y1077435D01*
Y1077498D01*
X560681D01*
Y1077560D01*
Y1077623D01*
Y1077685D01*
X560619D01*
Y1077748D01*
Y1077810D01*
X560556D01*
Y1077873D01*
Y1077935D01*
Y1077998D01*
X560494D01*
Y1078061D01*
Y1078123D01*
X560431D01*
Y1078186D01*
Y1078248D01*
Y1078311D01*
X560369D01*
Y1078373D01*
Y1078436D01*
X560306D01*
Y1078498D01*
Y1078561D01*
Y1078623D01*
X560244D01*
Y1078686D01*
Y1078748D01*
X560181D01*
Y1078811D01*
Y1078873D01*
Y1078936D01*
X560119D01*
Y1078998D01*
X560056D01*
Y1079061D01*
X559994D01*
Y1079123D01*
X559806D01*
Y1079186D01*
X559431D01*
Y1079248D01*
X559118D01*
Y1079311D01*
X558806D01*
Y1079373D01*
X558430D01*
Y1079436D01*
X558118D01*
Y1079499D01*
X557743D01*
Y1079561D01*
X557430D01*
Y1079624D01*
X557118D01*
Y1079686D01*
X556742D01*
Y1079749D01*
X556430D01*
Y1079811D01*
X556117D01*
Y1079874D01*
X555742D01*
Y1079936D01*
X555429D01*
Y1079999D01*
X555367D01*
Y1080061D01*
X555304D01*
Y1080124D01*
Y1080186D01*
X555242D01*
Y1080249D01*
Y1080311D01*
Y1080374D01*
Y1080436D01*
Y1080499D01*
Y1080561D01*
Y1080624D01*
Y1080686D01*
Y1080749D01*
Y1080811D01*
Y1080874D01*
Y1080937D01*
Y1080999D01*
Y1081062D01*
Y1081124D01*
Y1081187D01*
Y1081249D01*
Y1081312D01*
Y1081374D01*
Y1081437D01*
Y1081499D01*
Y1081562D01*
Y1081624D01*
Y1081687D01*
Y1081749D01*
Y1081812D01*
Y1081874D01*
Y1081937D01*
Y1081999D01*
Y1082062D01*
Y1082124D01*
Y1082187D01*
Y1082250D01*
Y1082312D01*
Y1082374D01*
Y1082437D01*
Y1082500D01*
Y1082562D01*
Y1082625D01*
Y1082687D01*
Y1082750D01*
Y1082812D01*
Y1082875D01*
Y1082937D01*
Y1083000D01*
Y1083062D01*
Y1083125D01*
Y1083187D01*
Y1083250D01*
Y1083312D01*
Y1083375D01*
Y1083437D01*
Y1083500D01*
Y1083562D01*
Y1083625D01*
Y1083688D01*
Y1083750D01*
Y1083812D01*
Y1083875D01*
Y1083938D01*
Y1084000D01*
Y1084063D01*
Y1084125D01*
Y1084188D01*
Y1084250D01*
Y1084313D01*
Y1084375D01*
Y1084438D01*
Y1084500D01*
Y1084563D01*
Y1084625D01*
Y1084688D01*
Y1084750D01*
Y1084813D01*
Y1084875D01*
Y1084938D01*
Y1085000D01*
X555304D01*
Y1085063D01*
Y1085126D01*
X555429D01*
Y1085188D01*
X555680D01*
Y1085250D01*
X555992D01*
Y1085313D01*
X556367D01*
Y1085376D01*
X556680D01*
Y1085438D01*
X556992D01*
Y1085501D01*
X557368D01*
Y1085563D01*
X557680D01*
Y1085626D01*
X558055D01*
Y1085688D01*
X558368D01*
Y1085751D01*
X558681D01*
Y1085813D01*
X559056D01*
Y1085876D01*
X559368D01*
Y1085938D01*
X559681D01*
Y1086001D01*
X559994D01*
Y1086063D01*
X560119D01*
Y1086126D01*
X560181D01*
Y1086188D01*
X560244D01*
Y1086251D01*
X560306D01*
Y1086313D01*
Y1086376D01*
Y1086438D01*
X560369D01*
Y1086501D01*
Y1086563D01*
X560431D01*
Y1086626D01*
Y1086689D01*
X560494D01*
Y1086751D01*
Y1086814D01*
Y1086876D01*
X560556D01*
Y1086939D01*
Y1087001D01*
X560619D01*
Y1087064D01*
Y1087126D01*
X560681D01*
Y1087189D01*
Y1087251D01*
Y1087314D01*
X560744D01*
Y1087376D01*
Y1087439D01*
X560806D01*
Y1087501D01*
Y1087564D01*
X560869D01*
Y1087626D01*
Y1087689D01*
Y1087751D01*
X560931D01*
Y1087814D01*
Y1087876D01*
X560994D01*
Y1087939D01*
Y1088001D01*
X561056D01*
Y1088064D01*
Y1088127D01*
Y1088189D01*
X561119D01*
Y1088251D01*
Y1088314D01*
X561181D01*
Y1088377D01*
Y1088439D01*
X561244D01*
Y1088502D01*
Y1088564D01*
Y1088627D01*
X561306D01*
Y1088689D01*
Y1088752D01*
X561369D01*
Y1088814D01*
Y1088877D01*
X561432D01*
Y1088939D01*
Y1089002D01*
Y1089064D01*
X561494D01*
Y1089127D01*
Y1089189D01*
X561557D01*
Y1089252D01*
Y1089314D01*
X561619D01*
Y1089377D01*
Y1089439D01*
Y1089502D01*
X561682D01*
Y1089565D01*
Y1089627D01*
Y1089689D01*
Y1089752D01*
X561619D01*
Y1089815D01*
Y1089877D01*
X561557D01*
Y1089940D01*
X561494D01*
Y1090002D01*
Y1090065D01*
X561432D01*
Y1090127D01*
X561369D01*
Y1090190D01*
Y1090252D01*
X561306D01*
Y1090315D01*
X561244D01*
Y1090377D01*
Y1090440D01*
X561181D01*
Y1090502D01*
X561119D01*
Y1090565D01*
Y1090627D01*
X561056D01*
Y1090690D01*
X560994D01*
Y1090752D01*
Y1090815D01*
X560931D01*
Y1090877D01*
X560869D01*
Y1090940D01*
X560806D01*
Y1091003D01*
Y1091065D01*
X560744D01*
Y1091127D01*
X560681D01*
Y1091190D01*
Y1091253D01*
X560619D01*
Y1091315D01*
X560556D01*
Y1091378D01*
Y1091440D01*
X560494D01*
Y1091503D01*
X560431D01*
Y1091565D01*
Y1091628D01*
X560369D01*
Y1091690D01*
X560306D01*
Y1091753D01*
Y1091815D01*
X560244D01*
Y1091878D01*
X560181D01*
Y1091940D01*
X560119D01*
Y1092003D01*
Y1092065D01*
X560056D01*
Y1092128D01*
X559994D01*
Y1092190D01*
Y1092253D01*
X559931D01*
Y1092315D01*
X559869D01*
Y1092378D01*
Y1092440D01*
X559806D01*
Y1092503D01*
X559743D01*
Y1092566D01*
Y1092628D01*
X559681D01*
Y1092691D01*
X559618D01*
Y1092753D01*
Y1092816D01*
X559556D01*
Y1092878D01*
X559493D01*
Y1092941D01*
Y1093003D01*
X559431D01*
Y1093066D01*
X559368D01*
Y1093128D01*
X559306D01*
Y1093191D01*
Y1093253D01*
X559243D01*
Y1093316D01*
X559181D01*
Y1093378D01*
Y1093441D01*
X559118D01*
Y1093503D01*
X559056D01*
Y1093566D01*
Y1093628D01*
X558993D01*
Y1093691D01*
Y1093753D01*
Y1093816D01*
X558931D01*
Y1093878D01*
X558993D01*
Y1093941D01*
Y1094004D01*
X559056D01*
Y1094066D01*
X559118D01*
Y1094129D01*
X559181D01*
Y1094191D01*
X559243D01*
Y1094254D01*
X559306D01*
Y1094316D01*
X559368D01*
Y1094379D01*
X559431D01*
Y1094441D01*
X559493D01*
Y1094504D01*
X559556D01*
Y1094566D01*
X559618D01*
Y1094629D01*
X559681D01*
Y1094691D01*
X559743D01*
Y1094754D01*
X559806D01*
Y1094816D01*
X559869D01*
Y1094879D01*
X559931D01*
Y1094941D01*
X559994D01*
Y1095004D01*
X560056D01*
Y1095066D01*
X560119D01*
Y1095129D01*
X560181D01*
Y1095191D01*
X560244D01*
Y1095254D01*
X560306D01*
Y1095316D01*
X560369D01*
Y1095379D01*
X560431D01*
Y1095442D01*
X560494D01*
Y1095504D01*
X560556D01*
Y1095567D01*
X560619D01*
Y1095629D01*
X560681D01*
Y1095692D01*
X560744D01*
Y1095754D01*
X560806D01*
Y1095817D01*
X560869D01*
Y1095879D01*
X560931D01*
Y1095942D01*
X560994D01*
Y1096004D01*
X561056D01*
Y1096067D01*
X561119D01*
Y1096129D01*
X561181D01*
Y1096192D01*
X561244D01*
Y1096254D01*
X561306D01*
Y1096317D01*
X561369D01*
Y1096379D01*
X561432D01*
Y1096442D01*
X561494D01*
Y1096504D01*
X561557D01*
Y1096567D01*
X561619D01*
Y1096629D01*
X561682D01*
Y1096692D01*
X561744D01*
Y1096755D01*
X561807D01*
Y1096817D01*
X561869D01*
Y1096880D01*
X561932D01*
Y1096942D01*
X561994D01*
Y1097004D01*
X562057D01*
Y1097067D01*
X562119D01*
Y1097130D01*
X562182D01*
Y1097192D01*
X562244D01*
Y1097255D01*
X562307D01*
Y1097317D01*
X562369D01*
Y1097380D01*
X562744D01*
Y1097317D01*
X562807D01*
Y1097255D01*
X562869D01*
Y1097192D01*
X562995D01*
Y1097130D01*
X563057D01*
Y1097067D01*
X563182D01*
Y1097004D01*
X563245D01*
Y1096942D01*
X563370D01*
Y1096880D01*
X563432D01*
Y1096817D01*
X563557D01*
Y1096755D01*
X563620D01*
Y1096692D01*
X563745D01*
Y1096629D01*
X563807D01*
Y1096567D01*
X563870D01*
Y1096504D01*
X563995D01*
Y1096442D01*
X564057D01*
Y1096379D01*
X564183D01*
Y1096317D01*
X564245D01*
Y1096254D01*
X564370D01*
Y1096192D01*
X564433D01*
Y1096129D01*
X564558D01*
Y1096067D01*
X564620D01*
Y1096004D01*
X564745D01*
Y1095942D01*
X564808D01*
Y1095879D01*
X564933D01*
Y1095817D01*
X564995D01*
Y1095754D01*
X565058D01*
Y1095692D01*
X565183D01*
Y1095629D01*
X565245D01*
Y1095567D01*
X565370D01*
Y1095504D01*
X565433D01*
Y1095442D01*
X565558D01*
Y1095379D01*
X565620D01*
Y1095316D01*
X565746D01*
Y1095254D01*
X565808D01*
Y1095191D01*
X565933D01*
Y1095129D01*
X565996D01*
Y1095066D01*
X566058D01*
Y1095004D01*
X566183D01*
Y1094941D01*
X566246D01*
Y1094879D01*
X566371D01*
Y1094816D01*
X566433D01*
Y1094754D01*
X566558D01*
Y1094691D01*
X566621D01*
Y1094629D01*
X566933D01*
Y1094691D01*
X567121D01*
Y1094754D01*
X567246D01*
Y1094816D01*
X567434D01*
Y1094879D01*
X567559D01*
Y1094941D01*
X567746D01*
Y1095004D01*
X567871D01*
Y1095066D01*
X568059D01*
Y1095129D01*
X568184D01*
Y1095191D01*
X568309D01*
Y1095254D01*
X568497D01*
Y1095316D01*
X568621D01*
Y1095379D01*
X568809D01*
Y1095442D01*
X568934D01*
Y1095504D01*
X569122D01*
Y1095567D01*
X569247D01*
Y1095629D01*
X569434D01*
Y1095692D01*
X569559D01*
Y1095754D01*
X569684D01*
Y1095817D01*
X569872D01*
Y1095879D01*
X569997D01*
Y1095942D01*
X570122D01*
Y1096004D01*
X570185D01*
Y1096067D01*
X570247D01*
Y1096129D01*
X570310D01*
Y1096192D01*
Y1096254D01*
Y1096317D01*
Y1096379D01*
Y1096442D01*
X570372D01*
Y1096504D01*
Y1096567D01*
Y1096629D01*
Y1096692D01*
Y1096755D01*
X570435D01*
Y1096817D01*
Y1096880D01*
Y1096942D01*
Y1097004D01*
Y1097067D01*
Y1097130D01*
X570497D01*
Y1097192D01*
Y1097255D01*
Y1097317D01*
Y1097380D01*
Y1097442D01*
X570560D01*
Y1097505D01*
Y1097567D01*
Y1097630D01*
Y1097692D01*
Y1097755D01*
X570622D01*
Y1097817D01*
Y1097880D01*
Y1097942D01*
Y1098005D01*
Y1098067D01*
Y1098130D01*
X570685D01*
Y1098192D01*
Y1098255D01*
Y1098317D01*
Y1098380D01*
Y1098443D01*
X570747D01*
Y1098505D01*
Y1098568D01*
Y1098630D01*
Y1098693D01*
Y1098755D01*
X570810D01*
Y1098818D01*
Y1098880D01*
Y1098943D01*
Y1099005D01*
Y1099068D01*
Y1099130D01*
X570872D01*
Y1099193D01*
Y1099255D01*
Y1099318D01*
Y1099380D01*
Y1099443D01*
X570935D01*
Y1099505D01*
Y1099568D01*
Y1099630D01*
Y1099693D01*
Y1099755D01*
Y1099818D01*
X570997D01*
Y1099881D01*
Y1099943D01*
Y1100006D01*
Y1100068D01*
Y1100131D01*
X571060D01*
Y1100193D01*
Y1100256D01*
Y1100318D01*
Y1100381D01*
Y1100443D01*
X571122D01*
Y1100506D01*
Y1100568D01*
Y1100631D01*
Y1100693D01*
Y1100756D01*
Y1100818D01*
X571185D01*
Y1100881D01*
Y1100943D01*
X571247D01*
Y1101006D01*
Y1101068D01*
X576312D01*
Y1101006D01*
D02*
G37*
G36*
X512235Y1088158D02*
X513056D01*
Y1087747D01*
X513466D01*
Y1087337D01*
X513877D01*
Y1086926D01*
Y1086516D01*
Y1086105D01*
Y1085694D01*
Y1085284D01*
Y1084873D01*
X513466D01*
Y1084462D01*
X513056D01*
Y1084052D01*
X512235D01*
Y1083641D01*
X511413D01*
Y1084052D01*
X510182D01*
Y1084462D01*
X509771D01*
Y1084873D01*
Y1085284D01*
X509360D01*
Y1085694D01*
Y1086105D01*
Y1086516D01*
Y1086926D01*
Y1087337D01*
X509771D01*
Y1087747D01*
X510182D01*
Y1088158D01*
X511003D01*
Y1088568D01*
X512235D01*
Y1088158D01*
D02*
G37*
G36*
X525374Y1072965D02*
X525785D01*
Y1072554D01*
X526196D01*
Y1072144D01*
Y1071733D01*
X526606D01*
Y1071323D01*
Y1070912D01*
Y1070501D01*
Y1070091D01*
X526196D01*
Y1069680D01*
X525785D01*
Y1069269D01*
X525374D01*
Y1068859D01*
X522911D01*
Y1069269D01*
X522500D01*
Y1069680D01*
X522089D01*
Y1070091D01*
Y1070501D01*
X521679D01*
Y1070912D01*
Y1071323D01*
X522089D01*
Y1071733D01*
Y1072144D01*
Y1072554D01*
X522500D01*
Y1072965D01*
X523321D01*
Y1073376D01*
X525374D01*
Y1072965D01*
D02*
G37*
G36*
X567183Y1063931D02*
X567371D01*
Y1063868D01*
X567559D01*
Y1063806D01*
X567684D01*
Y1063743D01*
X567746D01*
Y1063681D01*
X567809D01*
Y1063618D01*
X567934D01*
Y1063556D01*
X567996D01*
Y1063493D01*
X568059D01*
Y1063430D01*
X568121D01*
Y1063368D01*
X568184D01*
Y1063306D01*
Y1063243D01*
X568246D01*
Y1063180D01*
Y1063118D01*
X568309D01*
Y1063055D01*
X568371D01*
Y1062993D01*
Y1062930D01*
Y1062868D01*
X568434D01*
Y1062805D01*
Y1062743D01*
Y1062680D01*
Y1062618D01*
X568497D01*
Y1062555D01*
Y1062493D01*
Y1062430D01*
Y1062368D01*
Y1062305D01*
Y1062243D01*
Y1062180D01*
Y1062118D01*
Y1062055D01*
Y1061992D01*
Y1061930D01*
Y1061868D01*
Y1061805D01*
Y1061742D01*
Y1061680D01*
Y1061617D01*
Y1061555D01*
Y1061492D01*
Y1061430D01*
Y1061367D01*
Y1061305D01*
Y1061242D01*
Y1061180D01*
Y1061117D01*
Y1061055D01*
Y1060992D01*
Y1060930D01*
Y1060867D01*
Y1060805D01*
Y1060742D01*
Y1060680D01*
Y1060617D01*
Y1060555D01*
Y1060492D01*
Y1060430D01*
Y1060367D01*
Y1060304D01*
Y1060242D01*
Y1060179D01*
Y1060117D01*
Y1060054D01*
Y1059992D01*
Y1059929D01*
Y1059867D01*
Y1059804D01*
Y1059742D01*
Y1059679D01*
Y1059617D01*
Y1059554D01*
Y1059492D01*
Y1059429D01*
Y1059367D01*
Y1059304D01*
Y1059242D01*
Y1059179D01*
Y1059117D01*
Y1059054D01*
Y1058991D01*
Y1058929D01*
X567434D01*
Y1058991D01*
Y1059054D01*
Y1059117D01*
Y1059179D01*
Y1059242D01*
Y1059304D01*
Y1059367D01*
Y1059429D01*
Y1059492D01*
Y1059554D01*
Y1059617D01*
Y1059679D01*
Y1059742D01*
Y1059804D01*
Y1059867D01*
Y1059929D01*
Y1059992D01*
Y1060054D01*
Y1060117D01*
Y1060179D01*
Y1060242D01*
Y1060304D01*
Y1060367D01*
Y1060430D01*
Y1060492D01*
Y1060555D01*
Y1060617D01*
Y1060680D01*
Y1060742D01*
Y1060805D01*
Y1060867D01*
Y1060930D01*
Y1060992D01*
Y1061055D01*
Y1061117D01*
Y1061180D01*
Y1061242D01*
Y1061305D01*
Y1061367D01*
Y1061430D01*
Y1061492D01*
Y1061555D01*
Y1061617D01*
Y1061680D01*
Y1061742D01*
Y1061805D01*
Y1061868D01*
Y1061930D01*
Y1061992D01*
Y1062055D01*
Y1062118D01*
Y1062180D01*
X567371D01*
Y1062243D01*
Y1062305D01*
Y1062368D01*
X567309D01*
Y1062430D01*
Y1062493D01*
X567246D01*
Y1062555D01*
Y1062618D01*
X567183D01*
Y1062680D01*
X567121D01*
Y1062743D01*
X567058D01*
Y1062805D01*
X566933D01*
Y1062868D01*
X566746D01*
Y1062930D01*
X566246D01*
Y1062868D01*
X566058D01*
Y1062805D01*
X565933D01*
Y1062743D01*
X565871D01*
Y1062680D01*
X565808D01*
Y1062618D01*
X565746D01*
Y1062555D01*
X565683D01*
Y1062493D01*
Y1062430D01*
X565620D01*
Y1062368D01*
Y1062305D01*
Y1062243D01*
X565558D01*
Y1062180D01*
Y1062118D01*
Y1062055D01*
Y1061992D01*
Y1061930D01*
Y1061868D01*
Y1061805D01*
Y1061742D01*
Y1061680D01*
Y1061617D01*
Y1061555D01*
Y1061492D01*
Y1061430D01*
Y1061367D01*
Y1061305D01*
Y1061242D01*
Y1061180D01*
Y1061117D01*
Y1061055D01*
Y1060992D01*
Y1060930D01*
Y1060867D01*
Y1060805D01*
Y1060742D01*
Y1060680D01*
Y1060617D01*
Y1060555D01*
Y1060492D01*
Y1060430D01*
Y1060367D01*
Y1060304D01*
Y1060242D01*
Y1060179D01*
Y1060117D01*
Y1060054D01*
Y1059992D01*
Y1059929D01*
Y1059867D01*
Y1059804D01*
Y1059742D01*
Y1059679D01*
Y1059617D01*
Y1059554D01*
Y1059492D01*
Y1059429D01*
Y1059367D01*
Y1059304D01*
Y1059242D01*
Y1059179D01*
Y1059117D01*
Y1059054D01*
Y1058991D01*
Y1058929D01*
X564495D01*
Y1058991D01*
Y1059054D01*
Y1059117D01*
Y1059179D01*
Y1059242D01*
Y1059304D01*
Y1059367D01*
Y1059429D01*
Y1059492D01*
Y1059554D01*
Y1059617D01*
Y1059679D01*
Y1059742D01*
Y1059804D01*
Y1059867D01*
Y1059929D01*
Y1059992D01*
Y1060054D01*
Y1060117D01*
Y1060179D01*
Y1060242D01*
Y1060304D01*
Y1060367D01*
Y1060430D01*
Y1060492D01*
Y1060555D01*
Y1060617D01*
Y1060680D01*
Y1060742D01*
Y1060805D01*
Y1060867D01*
Y1060930D01*
Y1060992D01*
Y1061055D01*
Y1061117D01*
Y1061180D01*
Y1061242D01*
Y1061305D01*
Y1061367D01*
Y1061430D01*
Y1061492D01*
Y1061555D01*
Y1061617D01*
Y1061680D01*
Y1061742D01*
Y1061805D01*
Y1061868D01*
Y1061930D01*
Y1061992D01*
Y1062055D01*
Y1062118D01*
Y1062180D01*
Y1062243D01*
Y1062305D01*
Y1062368D01*
Y1062430D01*
Y1062493D01*
Y1062555D01*
Y1062618D01*
Y1062680D01*
Y1062743D01*
Y1062805D01*
Y1062868D01*
Y1062930D01*
Y1062993D01*
Y1063055D01*
Y1063118D01*
Y1063180D01*
Y1063243D01*
Y1063306D01*
Y1063368D01*
Y1063430D01*
Y1063493D01*
Y1063556D01*
Y1063618D01*
Y1063681D01*
Y1063743D01*
Y1063806D01*
Y1063868D01*
Y1063931D01*
X565558D01*
Y1063868D01*
Y1063806D01*
Y1063743D01*
Y1063681D01*
Y1063618D01*
Y1063556D01*
Y1063493D01*
X565620D01*
Y1063556D01*
X565683D01*
Y1063618D01*
X565746D01*
Y1063681D01*
X565808D01*
Y1063743D01*
X565933D01*
Y1063806D01*
X566058D01*
Y1063868D01*
X566183D01*
Y1063931D01*
X566433D01*
Y1063993D01*
X567183D01*
Y1063931D01*
D02*
G37*
G36*
X573811D02*
X574186D01*
Y1063868D01*
X574374D01*
Y1063806D01*
X574561D01*
Y1063743D01*
X574686D01*
Y1063681D01*
X574811D01*
Y1063618D01*
X574936D01*
Y1063556D01*
X575061D01*
Y1063493D01*
X575124D01*
Y1063430D01*
X575186D01*
Y1063368D01*
X575311D01*
Y1063306D01*
Y1063243D01*
X575249D01*
Y1063180D01*
X575186D01*
Y1063118D01*
Y1063055D01*
X575124D01*
Y1062993D01*
X575061D01*
Y1062930D01*
X574999D01*
Y1062868D01*
X574936D01*
Y1062805D01*
X574874D01*
Y1062743D01*
Y1062680D01*
X574811D01*
Y1062618D01*
X574749D01*
Y1062555D01*
X574561D01*
Y1062618D01*
X574498D01*
Y1062680D01*
X574374D01*
Y1062743D01*
X574248D01*
Y1062805D01*
X574123D01*
Y1062868D01*
X573936D01*
Y1062930D01*
X573686D01*
Y1062993D01*
X573060D01*
Y1062930D01*
X572873D01*
Y1062868D01*
X572748D01*
Y1062805D01*
X572623D01*
Y1062743D01*
Y1062680D01*
X572560D01*
Y1062618D01*
Y1062555D01*
Y1062493D01*
X572498D01*
Y1062430D01*
X572560D01*
Y1062368D01*
Y1062305D01*
Y1062243D01*
X572623D01*
Y1062180D01*
X572685D01*
Y1062118D01*
X572811D01*
Y1062055D01*
X572998D01*
Y1061992D01*
X573561D01*
Y1061930D01*
X574248D01*
Y1061868D01*
X574498D01*
Y1061805D01*
X574686D01*
Y1061742D01*
X574749D01*
Y1061680D01*
X574874D01*
Y1061617D01*
X574936D01*
Y1061555D01*
X574999D01*
Y1061492D01*
X575124D01*
Y1061430D01*
Y1061367D01*
X575186D01*
Y1061305D01*
X575249D01*
Y1061242D01*
Y1061180D01*
X575311D01*
Y1061117D01*
Y1061055D01*
Y1060992D01*
X575374D01*
Y1060930D01*
Y1060867D01*
Y1060805D01*
Y1060742D01*
X575436D01*
Y1060680D01*
Y1060617D01*
Y1060555D01*
Y1060492D01*
Y1060430D01*
Y1060367D01*
Y1060304D01*
Y1060242D01*
Y1060179D01*
X575374D01*
Y1060117D01*
Y1060054D01*
Y1059992D01*
Y1059929D01*
X575311D01*
Y1059867D01*
Y1059804D01*
Y1059742D01*
X575249D01*
Y1059679D01*
X575186D01*
Y1059617D01*
Y1059554D01*
X575124D01*
Y1059492D01*
X575061D01*
Y1059429D01*
X574999D01*
Y1059367D01*
X574936D01*
Y1059304D01*
X574874D01*
Y1059242D01*
X574749D01*
Y1059179D01*
X574624D01*
Y1059117D01*
X574498D01*
Y1059054D01*
X574374D01*
Y1058991D01*
X574186D01*
Y1058929D01*
X573873D01*
Y1058866D01*
X572935D01*
Y1058929D01*
X572560D01*
Y1058991D01*
X572373D01*
Y1059054D01*
X572185D01*
Y1059117D01*
X572060D01*
Y1059179D01*
X571935D01*
Y1059242D01*
X571810D01*
Y1059304D01*
X571685D01*
Y1059367D01*
X571560D01*
Y1059429D01*
X571497D01*
Y1059492D01*
X571435D01*
Y1059554D01*
X571372D01*
Y1059617D01*
X571247D01*
Y1059679D01*
X571185D01*
Y1059742D01*
X571122D01*
Y1059804D01*
X571185D01*
Y1059867D01*
X571247D01*
Y1059929D01*
X571310D01*
Y1059992D01*
X571372D01*
Y1060054D01*
X571435D01*
Y1060117D01*
X571497D01*
Y1060179D01*
X571560D01*
Y1060242D01*
X571623D01*
Y1060304D01*
X571685D01*
Y1060367D01*
X571748D01*
Y1060430D01*
X571810D01*
Y1060492D01*
X571935D01*
Y1060430D01*
X571998D01*
Y1060367D01*
X572060D01*
Y1060304D01*
X572185D01*
Y1060242D01*
X572248D01*
Y1060179D01*
X572373D01*
Y1060117D01*
X572435D01*
Y1060054D01*
X572560D01*
Y1059992D01*
X572748D01*
Y1059929D01*
X572998D01*
Y1059867D01*
X573811D01*
Y1059929D01*
X573936D01*
Y1059992D01*
X574123D01*
Y1060054D01*
X574186D01*
Y1060117D01*
X574248D01*
Y1060179D01*
X574311D01*
Y1060242D01*
Y1060304D01*
X574374D01*
Y1060367D01*
Y1060430D01*
Y1060492D01*
Y1060555D01*
Y1060617D01*
X574311D01*
Y1060680D01*
Y1060742D01*
X574248D01*
Y1060805D01*
X574123D01*
Y1060867D01*
X573936D01*
Y1060930D01*
X573373D01*
Y1060992D01*
X572748D01*
Y1061055D01*
X572498D01*
Y1061117D01*
X572310D01*
Y1061180D01*
X572185D01*
Y1061242D01*
X572060D01*
Y1061305D01*
X571998D01*
Y1061367D01*
X571873D01*
Y1061430D01*
X571810D01*
Y1061492D01*
X571748D01*
Y1061555D01*
Y1061617D01*
X571685D01*
Y1061680D01*
X571623D01*
Y1061742D01*
Y1061805D01*
X571560D01*
Y1061868D01*
Y1061930D01*
Y1061992D01*
X571497D01*
Y1062055D01*
Y1062118D01*
Y1062180D01*
Y1062243D01*
Y1062305D01*
Y1062368D01*
X571435D01*
Y1062430D01*
Y1062493D01*
Y1062555D01*
X571497D01*
Y1062618D01*
Y1062680D01*
Y1062743D01*
Y1062805D01*
Y1062868D01*
Y1062930D01*
X571560D01*
Y1062993D01*
Y1063055D01*
Y1063118D01*
X571623D01*
Y1063180D01*
Y1063243D01*
X571685D01*
Y1063306D01*
X571748D01*
Y1063368D01*
Y1063430D01*
X571810D01*
Y1063493D01*
X571873D01*
Y1063556D01*
X571998D01*
Y1063618D01*
X572060D01*
Y1063681D01*
X572185D01*
Y1063743D01*
X572248D01*
Y1063806D01*
X572435D01*
Y1063868D01*
X572560D01*
Y1063931D01*
X572873D01*
Y1063993D01*
X573811D01*
Y1063931D01*
D02*
G37*
G36*
X591880D02*
X592067D01*
Y1063868D01*
X592255D01*
Y1063806D01*
X592442D01*
Y1063743D01*
X592567D01*
Y1063681D01*
X592630D01*
Y1063618D01*
X592755D01*
Y1063556D01*
X592817D01*
Y1063493D01*
X592942D01*
Y1063430D01*
X593005D01*
Y1063368D01*
X593067D01*
Y1063306D01*
X593130D01*
Y1063243D01*
X593192D01*
Y1063180D01*
X593255D01*
Y1063118D01*
Y1063055D01*
X593192D01*
Y1062993D01*
X593130D01*
Y1062930D01*
X593067D01*
Y1062868D01*
X593005D01*
Y1062805D01*
X592942D01*
Y1062743D01*
X592817D01*
Y1062680D01*
X592755D01*
Y1062618D01*
X592692D01*
Y1062555D01*
X592630D01*
Y1062493D01*
X592567D01*
Y1062430D01*
X592442D01*
Y1062493D01*
X592380D01*
Y1062555D01*
X592317D01*
Y1062618D01*
X592255D01*
Y1062680D01*
X592130D01*
Y1062743D01*
X592067D01*
Y1062805D01*
X591942D01*
Y1062868D01*
X591754D01*
Y1062930D01*
X591129D01*
Y1062868D01*
X590942D01*
Y1062805D01*
X590817D01*
Y1062743D01*
X590692D01*
Y1062680D01*
X590629D01*
Y1062618D01*
X590567D01*
Y1062555D01*
X590504D01*
Y1062493D01*
Y1062430D01*
X590442D01*
Y1062368D01*
X590379D01*
Y1062305D01*
Y1062243D01*
Y1062180D01*
X590317D01*
Y1062118D01*
Y1062055D01*
Y1061992D01*
X590254D01*
Y1061930D01*
Y1061868D01*
Y1061805D01*
Y1061742D01*
Y1061680D01*
Y1061617D01*
Y1061555D01*
Y1061492D01*
Y1061430D01*
Y1061367D01*
Y1061305D01*
Y1061242D01*
Y1061180D01*
Y1061117D01*
Y1061055D01*
Y1060992D01*
Y1060930D01*
Y1060867D01*
X590317D01*
Y1060805D01*
Y1060742D01*
Y1060680D01*
X590379D01*
Y1060617D01*
Y1060555D01*
Y1060492D01*
X590442D01*
Y1060430D01*
X590504D01*
Y1060367D01*
Y1060304D01*
X590567D01*
Y1060242D01*
X590629D01*
Y1060179D01*
X590692D01*
Y1060117D01*
X590817D01*
Y1060054D01*
X590942D01*
Y1059992D01*
X591129D01*
Y1059929D01*
X591754D01*
Y1059992D01*
X591942D01*
Y1060054D01*
X592067D01*
Y1060117D01*
X592130D01*
Y1060179D01*
X592255D01*
Y1060242D01*
X592317D01*
Y1060304D01*
X592380D01*
Y1060367D01*
X592442D01*
Y1060430D01*
X592567D01*
Y1060367D01*
X592630D01*
Y1060304D01*
X592692D01*
Y1060242D01*
X592755D01*
Y1060179D01*
X592817D01*
Y1060117D01*
X592880D01*
Y1060054D01*
X593005D01*
Y1059992D01*
X593067D01*
Y1059929D01*
X593130D01*
Y1059867D01*
X593192D01*
Y1059804D01*
X593255D01*
Y1059742D01*
Y1059679D01*
X593192D01*
Y1059617D01*
X593130D01*
Y1059554D01*
X593067D01*
Y1059492D01*
X593005D01*
Y1059429D01*
X592942D01*
Y1059367D01*
X592817D01*
Y1059304D01*
X592755D01*
Y1059242D01*
X592630D01*
Y1059179D01*
X592567D01*
Y1059117D01*
X592442D01*
Y1059054D01*
X592255D01*
Y1058991D01*
X592130D01*
Y1058929D01*
X591880D01*
Y1058866D01*
X591004D01*
Y1058929D01*
X590754D01*
Y1058991D01*
X590567D01*
Y1059054D01*
X590379D01*
Y1059117D01*
X590254D01*
Y1059179D01*
X590191D01*
Y1059242D01*
X590066D01*
Y1059304D01*
X590004D01*
Y1059367D01*
X589941D01*
Y1059429D01*
X589879D01*
Y1059492D01*
X589816D01*
Y1059554D01*
X589754D01*
Y1059617D01*
X589691D01*
Y1059679D01*
X589629D01*
Y1059742D01*
X589566D01*
Y1059804D01*
Y1059867D01*
X589504D01*
Y1059929D01*
Y1059992D01*
X589441D01*
Y1060054D01*
Y1060117D01*
X589379D01*
Y1060179D01*
Y1060242D01*
X589316D01*
Y1060304D01*
Y1060367D01*
Y1060430D01*
Y1060492D01*
X589254D01*
Y1060555D01*
Y1060617D01*
Y1060680D01*
Y1060742D01*
X589191D01*
Y1060805D01*
Y1060867D01*
Y1060930D01*
Y1060992D01*
Y1061055D01*
Y1061117D01*
Y1061180D01*
Y1061242D01*
Y1061305D01*
Y1061367D01*
Y1061430D01*
Y1061492D01*
Y1061555D01*
Y1061617D01*
Y1061680D01*
Y1061742D01*
Y1061805D01*
Y1061868D01*
Y1061930D01*
Y1061992D01*
Y1062055D01*
Y1062118D01*
X589254D01*
Y1062180D01*
Y1062243D01*
Y1062305D01*
Y1062368D01*
X589316D01*
Y1062430D01*
Y1062493D01*
Y1062555D01*
X589379D01*
Y1062618D01*
Y1062680D01*
Y1062743D01*
X589441D01*
Y1062805D01*
Y1062868D01*
X589504D01*
Y1062930D01*
Y1062993D01*
X589566D01*
Y1063055D01*
X589629D01*
Y1063118D01*
Y1063180D01*
X589691D01*
Y1063243D01*
X589754D01*
Y1063306D01*
X589816D01*
Y1063368D01*
X589879D01*
Y1063430D01*
X589941D01*
Y1063493D01*
X590004D01*
Y1063556D01*
X590066D01*
Y1063618D01*
X590191D01*
Y1063681D01*
X590254D01*
Y1063743D01*
X590442D01*
Y1063806D01*
X590567D01*
Y1063868D01*
X590754D01*
Y1063931D01*
X591004D01*
Y1063993D01*
X591880D01*
Y1063931D01*
D02*
G37*
G36*
X561869Y1056115D02*
X562369D01*
Y1056053D01*
X562557D01*
Y1055991D01*
X562744D01*
Y1055928D01*
X562869D01*
Y1055865D01*
X562995D01*
Y1055803D01*
X563057D01*
Y1055740D01*
X563120D01*
Y1055678D01*
X563182D01*
Y1055615D01*
X563245D01*
Y1055553D01*
X563307D01*
Y1055490D01*
X563370D01*
Y1055428D01*
Y1055365D01*
X563432D01*
Y1055303D01*
X563495D01*
Y1055240D01*
Y1055178D01*
Y1055115D01*
X563557D01*
Y1055053D01*
Y1054990D01*
Y1054928D01*
Y1054865D01*
Y1054803D01*
X563620D01*
Y1054740D01*
Y1054678D01*
Y1054615D01*
Y1054553D01*
Y1054490D01*
Y1054427D01*
Y1054365D01*
Y1054302D01*
Y1054240D01*
Y1054177D01*
Y1054115D01*
Y1054052D01*
Y1053990D01*
Y1053927D01*
Y1053865D01*
Y1053802D01*
Y1053740D01*
Y1053677D01*
Y1053615D01*
Y1053552D01*
Y1053490D01*
Y1053427D01*
Y1053365D01*
Y1053302D01*
Y1053240D01*
Y1053177D01*
Y1053114D01*
Y1053052D01*
Y1052989D01*
Y1052927D01*
Y1052864D01*
Y1052802D01*
Y1052739D01*
Y1052677D01*
Y1052614D01*
Y1052552D01*
Y1052489D01*
Y1052427D01*
Y1052364D01*
Y1052302D01*
Y1052239D01*
Y1052177D01*
Y1052114D01*
Y1052052D01*
Y1051989D01*
Y1051927D01*
Y1051864D01*
Y1051802D01*
Y1051739D01*
Y1051676D01*
Y1051614D01*
Y1051551D01*
Y1051489D01*
Y1051426D01*
Y1051364D01*
Y1051301D01*
Y1051239D01*
Y1051176D01*
Y1051114D01*
Y1051051D01*
X562557D01*
Y1051114D01*
Y1051176D01*
Y1051239D01*
Y1051301D01*
Y1051364D01*
Y1051426D01*
X562494D01*
Y1051364D01*
X562432D01*
Y1051301D01*
X562369D01*
Y1051239D01*
X562244D01*
Y1051176D01*
X562182D01*
Y1051114D01*
X561932D01*
Y1051051D01*
X560806D01*
Y1051114D01*
X560556D01*
Y1051176D01*
X560431D01*
Y1051239D01*
X560306D01*
Y1051301D01*
X560181D01*
Y1051364D01*
X560119D01*
Y1051426D01*
X560056D01*
Y1051489D01*
X559994D01*
Y1051551D01*
X559931D01*
Y1051614D01*
X559869D01*
Y1051676D01*
X559806D01*
Y1051739D01*
Y1051802D01*
X559743D01*
Y1051864D01*
X559681D01*
Y1051927D01*
Y1051989D01*
Y1052052D01*
X559618D01*
Y1052114D01*
Y1052177D01*
Y1052239D01*
Y1052302D01*
X559556D01*
Y1052364D01*
Y1052427D01*
Y1052489D01*
Y1052552D01*
Y1052614D01*
Y1052677D01*
Y1052739D01*
Y1052802D01*
Y1052864D01*
X559618D01*
Y1052927D01*
Y1052989D01*
Y1053052D01*
Y1053114D01*
X559681D01*
Y1053177D01*
Y1053240D01*
X559743D01*
Y1053302D01*
Y1053365D01*
X559806D01*
Y1053427D01*
Y1053490D01*
X559869D01*
Y1053552D01*
X559931D01*
Y1053615D01*
X559994D01*
Y1053677D01*
X560056D01*
Y1053740D01*
X560119D01*
Y1053802D01*
X560244D01*
Y1053865D01*
X560369D01*
Y1053927D01*
X560494D01*
Y1053990D01*
X560744D01*
Y1054052D01*
X562557D01*
Y1054115D01*
Y1054177D01*
Y1054240D01*
Y1054302D01*
Y1054365D01*
Y1054427D01*
Y1054490D01*
Y1054553D01*
Y1054615D01*
Y1054678D01*
Y1054740D01*
X562494D01*
Y1054803D01*
Y1054865D01*
X562432D01*
Y1054928D01*
X562369D01*
Y1054990D01*
X562307D01*
Y1055053D01*
X562119D01*
Y1055115D01*
X561744D01*
Y1055178D01*
X561369D01*
Y1055115D01*
X560994D01*
Y1055053D01*
X560931D01*
Y1054990D01*
X560806D01*
Y1054928D01*
X560744D01*
Y1054865D01*
X560681D01*
Y1054803D01*
X560556D01*
Y1054865D01*
X560431D01*
Y1054928D01*
X560369D01*
Y1054990D01*
X560306D01*
Y1055053D01*
X560181D01*
Y1055115D01*
X560119D01*
Y1055178D01*
X560056D01*
Y1055240D01*
X559931D01*
Y1055303D01*
X559869D01*
Y1055365D01*
X559806D01*
Y1055428D01*
X559869D01*
Y1055490D01*
Y1055553D01*
X559931D01*
Y1055615D01*
X559994D01*
Y1055678D01*
X560056D01*
Y1055740D01*
X560119D01*
Y1055803D01*
X560244D01*
Y1055865D01*
X560306D01*
Y1055928D01*
X560431D01*
Y1055991D01*
X560619D01*
Y1056053D01*
X560806D01*
Y1056115D01*
X561306D01*
Y1056178D01*
X561869D01*
Y1056115D01*
D02*
G37*
G36*
X557555Y1063931D02*
X557805D01*
Y1063868D01*
X557930D01*
Y1063806D01*
X558055D01*
Y1063743D01*
X558180D01*
Y1063681D01*
X558243D01*
Y1063618D01*
X558368D01*
Y1063556D01*
X558430D01*
Y1063493D01*
X558493D01*
Y1063430D01*
X558556D01*
Y1063368D01*
Y1063306D01*
X558618D01*
Y1063243D01*
X558681D01*
Y1063180D01*
Y1063118D01*
X558743D01*
Y1063055D01*
Y1062993D01*
X558806D01*
Y1062930D01*
Y1062868D01*
Y1062805D01*
Y1062743D01*
X558868D01*
Y1062680D01*
Y1062618D01*
Y1062555D01*
Y1062493D01*
Y1062430D01*
Y1062368D01*
Y1062305D01*
Y1062243D01*
X558931D01*
Y1062180D01*
Y1062118D01*
Y1062055D01*
Y1061992D01*
Y1061930D01*
Y1061868D01*
Y1061805D01*
Y1061742D01*
Y1061680D01*
Y1061617D01*
Y1061555D01*
Y1061492D01*
Y1061430D01*
Y1061367D01*
Y1061305D01*
Y1061242D01*
Y1061180D01*
Y1061117D01*
Y1061055D01*
Y1060992D01*
Y1060930D01*
Y1060867D01*
Y1060805D01*
Y1060742D01*
Y1060680D01*
Y1060617D01*
Y1060555D01*
X558868D01*
Y1060492D01*
Y1060430D01*
Y1060367D01*
Y1060304D01*
Y1060242D01*
Y1060179D01*
Y1060117D01*
X558806D01*
Y1060054D01*
Y1059992D01*
Y1059929D01*
Y1059867D01*
X558743D01*
Y1059804D01*
Y1059742D01*
X558681D01*
Y1059679D01*
Y1059617D01*
X558618D01*
Y1059554D01*
X558556D01*
Y1059492D01*
Y1059429D01*
X558493D01*
Y1059367D01*
X558430D01*
Y1059304D01*
X558368D01*
Y1059242D01*
X558243D01*
Y1059179D01*
X558180D01*
Y1059117D01*
X558118D01*
Y1059054D01*
X557993D01*
Y1058991D01*
X557805D01*
Y1058929D01*
X557555D01*
Y1058866D01*
X556867D01*
Y1058929D01*
X556680D01*
Y1058991D01*
X556492D01*
Y1059054D01*
X556367D01*
Y1059117D01*
X556305D01*
Y1059179D01*
X556180D01*
Y1059242D01*
X556117D01*
Y1059304D01*
X556055D01*
Y1059367D01*
X555930D01*
Y1059304D01*
Y1059242D01*
Y1059179D01*
Y1059117D01*
Y1059054D01*
Y1058991D01*
Y1058929D01*
Y1058866D01*
Y1058804D01*
Y1058741D01*
Y1058679D01*
Y1058616D01*
Y1058554D01*
Y1058491D01*
Y1058429D01*
Y1058366D01*
Y1058304D01*
Y1058241D01*
Y1058179D01*
Y1058116D01*
Y1058054D01*
Y1057991D01*
Y1057929D01*
Y1057866D01*
Y1057804D01*
Y1057741D01*
Y1057679D01*
Y1057616D01*
Y1057553D01*
Y1057491D01*
Y1057428D01*
Y1057366D01*
Y1057303D01*
Y1057241D01*
Y1057178D01*
Y1057116D01*
Y1057053D01*
Y1056991D01*
Y1056928D01*
Y1056866D01*
Y1056803D01*
Y1056741D01*
Y1056678D01*
Y1056616D01*
Y1056553D01*
Y1056491D01*
Y1056428D01*
Y1056366D01*
Y1056303D01*
Y1056240D01*
Y1056178D01*
Y1056115D01*
Y1056053D01*
Y1055991D01*
Y1055928D01*
Y1055865D01*
Y1055803D01*
Y1055740D01*
Y1055678D01*
Y1055615D01*
X555992D01*
Y1055678D01*
X556055D01*
Y1055740D01*
X556117D01*
Y1055803D01*
X556180D01*
Y1055865D01*
X556305D01*
Y1055928D01*
X556367D01*
Y1055991D01*
X556492D01*
Y1056053D01*
X556680D01*
Y1056115D01*
X557055D01*
Y1056178D01*
X557430D01*
Y1056115D01*
X557743D01*
Y1056053D01*
X557930D01*
Y1055991D01*
X558055D01*
Y1055928D01*
X558118D01*
Y1055865D01*
X558243D01*
Y1055803D01*
X558306D01*
Y1055740D01*
X558368D01*
Y1055678D01*
X558430D01*
Y1055615D01*
X558493D01*
Y1055553D01*
X558556D01*
Y1055490D01*
X558618D01*
Y1055428D01*
Y1055365D01*
X558681D01*
Y1055303D01*
X558743D01*
Y1055240D01*
Y1055178D01*
X558806D01*
Y1055115D01*
Y1055053D01*
Y1054990D01*
X558868D01*
Y1054928D01*
Y1054865D01*
Y1054803D01*
Y1054740D01*
Y1054678D01*
Y1054615D01*
X558931D01*
Y1054553D01*
Y1054490D01*
Y1054427D01*
Y1054365D01*
Y1054302D01*
Y1054240D01*
Y1054177D01*
Y1054115D01*
Y1054052D01*
Y1053990D01*
Y1053927D01*
Y1053865D01*
Y1053802D01*
Y1053740D01*
Y1053677D01*
Y1053615D01*
Y1053552D01*
Y1053490D01*
Y1053427D01*
Y1053365D01*
Y1053302D01*
Y1053240D01*
Y1053177D01*
Y1053114D01*
Y1053052D01*
Y1052989D01*
Y1052927D01*
Y1052864D01*
Y1052802D01*
Y1052739D01*
Y1052677D01*
Y1052614D01*
Y1052552D01*
Y1052489D01*
Y1052427D01*
Y1052364D01*
Y1052302D01*
Y1052239D01*
Y1052177D01*
Y1052114D01*
Y1052052D01*
Y1051989D01*
Y1051927D01*
Y1051864D01*
Y1051802D01*
Y1051739D01*
Y1051676D01*
Y1051614D01*
Y1051551D01*
Y1051489D01*
Y1051426D01*
Y1051364D01*
Y1051301D01*
Y1051239D01*
Y1051176D01*
Y1051114D01*
Y1051051D01*
X557868D01*
Y1051114D01*
Y1051176D01*
Y1051239D01*
Y1051301D01*
Y1051364D01*
Y1051426D01*
Y1051489D01*
Y1051551D01*
Y1051614D01*
Y1051676D01*
Y1051739D01*
Y1051802D01*
Y1051864D01*
Y1051927D01*
Y1051989D01*
Y1052052D01*
Y1052114D01*
Y1052177D01*
Y1052239D01*
Y1052302D01*
Y1052364D01*
Y1052427D01*
Y1052489D01*
Y1052552D01*
Y1052614D01*
Y1052677D01*
Y1052739D01*
Y1052802D01*
Y1052864D01*
Y1052927D01*
Y1052989D01*
Y1053052D01*
Y1053114D01*
Y1053177D01*
Y1053240D01*
Y1053302D01*
Y1053365D01*
Y1053427D01*
Y1053490D01*
Y1053552D01*
Y1053615D01*
Y1053677D01*
Y1053740D01*
Y1053802D01*
Y1053865D01*
Y1053927D01*
Y1053990D01*
Y1054052D01*
Y1054115D01*
Y1054177D01*
Y1054240D01*
Y1054302D01*
X557805D01*
Y1054365D01*
Y1054427D01*
Y1054490D01*
X557743D01*
Y1054553D01*
Y1054615D01*
Y1054678D01*
X557680D01*
Y1054740D01*
X557618D01*
Y1054803D01*
X557555D01*
Y1054865D01*
X557493D01*
Y1054928D01*
X557430D01*
Y1054990D01*
X557305D01*
Y1055053D01*
X557118D01*
Y1055115D01*
X556742D01*
Y1055053D01*
X556555D01*
Y1054990D01*
X556430D01*
Y1054928D01*
X556305D01*
Y1054865D01*
X556242D01*
Y1054803D01*
X556180D01*
Y1054740D01*
X556117D01*
Y1054678D01*
Y1054615D01*
X556055D01*
Y1054553D01*
Y1054490D01*
X555992D01*
Y1054427D01*
Y1054365D01*
Y1054302D01*
Y1054240D01*
Y1054177D01*
Y1054115D01*
X555930D01*
Y1054052D01*
Y1053990D01*
Y1053927D01*
Y1053865D01*
Y1053802D01*
Y1053740D01*
Y1053677D01*
Y1053615D01*
Y1053552D01*
Y1053490D01*
Y1053427D01*
Y1053365D01*
Y1053302D01*
Y1053240D01*
Y1053177D01*
Y1053114D01*
Y1053052D01*
Y1052989D01*
Y1052927D01*
Y1052864D01*
Y1052802D01*
Y1052739D01*
Y1052677D01*
Y1052614D01*
Y1052552D01*
Y1052489D01*
Y1052427D01*
Y1052364D01*
Y1052302D01*
Y1052239D01*
Y1052177D01*
Y1052114D01*
Y1052052D01*
Y1051989D01*
Y1051927D01*
Y1051864D01*
Y1051802D01*
Y1051739D01*
Y1051676D01*
Y1051614D01*
Y1051551D01*
Y1051489D01*
Y1051426D01*
Y1051364D01*
Y1051301D01*
Y1051239D01*
Y1051176D01*
Y1051114D01*
Y1051051D01*
X554929D01*
Y1051114D01*
X554867D01*
Y1051176D01*
Y1051239D01*
Y1051301D01*
Y1051364D01*
Y1051426D01*
Y1051489D01*
Y1051551D01*
Y1051614D01*
Y1051676D01*
Y1051739D01*
Y1051802D01*
Y1051864D01*
Y1051927D01*
Y1051989D01*
Y1052052D01*
Y1052114D01*
Y1052177D01*
Y1052239D01*
Y1052302D01*
Y1052364D01*
Y1052427D01*
Y1052489D01*
Y1052552D01*
Y1052614D01*
Y1052677D01*
Y1052739D01*
Y1052802D01*
Y1052864D01*
Y1052927D01*
Y1052989D01*
Y1053052D01*
Y1053114D01*
Y1053177D01*
Y1053240D01*
Y1053302D01*
Y1053365D01*
Y1053427D01*
Y1053490D01*
Y1053552D01*
Y1053615D01*
Y1053677D01*
Y1053740D01*
Y1053802D01*
Y1053865D01*
Y1053927D01*
Y1053990D01*
Y1054052D01*
Y1054115D01*
Y1054177D01*
Y1054240D01*
Y1054302D01*
Y1054365D01*
Y1054427D01*
Y1054490D01*
Y1054553D01*
Y1054615D01*
Y1054678D01*
Y1054740D01*
Y1054803D01*
Y1054865D01*
Y1054928D01*
Y1054990D01*
Y1055053D01*
Y1055115D01*
Y1055178D01*
Y1055240D01*
Y1055303D01*
Y1055365D01*
Y1055428D01*
Y1055490D01*
Y1055553D01*
Y1055615D01*
Y1055678D01*
Y1055740D01*
Y1055803D01*
Y1055865D01*
Y1055928D01*
Y1055991D01*
Y1056053D01*
Y1056115D01*
Y1056178D01*
Y1056240D01*
Y1056303D01*
Y1056366D01*
Y1056428D01*
Y1056491D01*
Y1056553D01*
Y1056616D01*
Y1056678D01*
Y1056741D01*
Y1056803D01*
Y1056866D01*
Y1056928D01*
Y1056991D01*
Y1057053D01*
Y1057116D01*
Y1057178D01*
Y1057241D01*
Y1057303D01*
Y1057366D01*
Y1057428D01*
Y1057491D01*
Y1057553D01*
Y1057616D01*
Y1057679D01*
Y1057741D01*
Y1057804D01*
Y1057866D01*
Y1057929D01*
Y1057991D01*
Y1058054D01*
Y1058116D01*
Y1058179D01*
Y1058241D01*
Y1058304D01*
Y1058366D01*
Y1058429D01*
Y1058491D01*
Y1058554D01*
Y1058616D01*
Y1058679D01*
Y1058741D01*
Y1058804D01*
Y1058866D01*
Y1058929D01*
Y1058991D01*
Y1059054D01*
Y1059117D01*
Y1059179D01*
Y1059242D01*
Y1059304D01*
Y1059367D01*
Y1059429D01*
Y1059492D01*
Y1059554D01*
Y1059617D01*
Y1059679D01*
Y1059742D01*
Y1059804D01*
Y1059867D01*
Y1059929D01*
Y1059992D01*
Y1060054D01*
Y1060117D01*
Y1060179D01*
Y1060242D01*
Y1060304D01*
Y1060367D01*
Y1060430D01*
Y1060492D01*
Y1060555D01*
Y1060617D01*
Y1060680D01*
Y1060742D01*
Y1060805D01*
Y1060867D01*
Y1060930D01*
Y1060992D01*
Y1061055D01*
Y1061117D01*
Y1061180D01*
Y1061242D01*
Y1061305D01*
Y1061367D01*
Y1061430D01*
Y1061492D01*
Y1061555D01*
Y1061617D01*
Y1061680D01*
Y1061742D01*
Y1061805D01*
Y1061868D01*
Y1061930D01*
Y1061992D01*
Y1062055D01*
Y1062118D01*
Y1062180D01*
Y1062243D01*
Y1062305D01*
Y1062368D01*
Y1062430D01*
Y1062493D01*
Y1062555D01*
Y1062618D01*
Y1062680D01*
Y1062743D01*
Y1062805D01*
Y1062868D01*
Y1062930D01*
Y1062993D01*
Y1063055D01*
Y1063118D01*
Y1063180D01*
Y1063243D01*
Y1063306D01*
Y1063368D01*
Y1063430D01*
Y1063493D01*
Y1063556D01*
Y1063618D01*
Y1063681D01*
Y1063743D01*
Y1063806D01*
Y1063868D01*
Y1063931D01*
X555930D01*
Y1063868D01*
Y1063806D01*
Y1063743D01*
Y1063681D01*
Y1063618D01*
Y1063556D01*
Y1063493D01*
X555992D01*
Y1063556D01*
X556117D01*
Y1063618D01*
X556180D01*
Y1063681D01*
X556242D01*
Y1063743D01*
X556367D01*
Y1063806D01*
X556492D01*
Y1063868D01*
X556680D01*
Y1063931D01*
X556867D01*
Y1063993D01*
X557555D01*
Y1063931D01*
D02*
G37*
%LPC*%
G36*
X570185Y1055115D02*
X569872D01*
Y1055053D01*
X569622D01*
Y1054990D01*
X569497D01*
Y1054928D01*
X569434D01*
Y1054865D01*
X569372D01*
Y1054803D01*
X569309D01*
Y1054740D01*
X569247D01*
Y1054678D01*
Y1054615D01*
X569184D01*
Y1054553D01*
Y1054490D01*
Y1054427D01*
X569122D01*
Y1054365D01*
Y1054302D01*
Y1054240D01*
Y1054177D01*
Y1054115D01*
Y1054052D01*
Y1053990D01*
X569059D01*
Y1053927D01*
Y1053865D01*
Y1053802D01*
Y1053740D01*
Y1053677D01*
Y1053615D01*
Y1053552D01*
Y1053490D01*
Y1053427D01*
Y1053365D01*
Y1053302D01*
Y1053240D01*
X569122D01*
Y1053177D01*
Y1053114D01*
Y1053052D01*
Y1052989D01*
Y1052927D01*
Y1052864D01*
Y1052802D01*
Y1052739D01*
X569184D01*
Y1052677D01*
Y1052614D01*
Y1052552D01*
X569247D01*
Y1052489D01*
Y1052427D01*
X569309D01*
Y1052364D01*
X569372D01*
Y1052302D01*
X569434D01*
Y1052239D01*
X569497D01*
Y1052177D01*
X569684D01*
Y1052114D01*
X570372D01*
Y1052177D01*
X570497D01*
Y1052239D01*
X570622D01*
Y1052302D01*
X570685D01*
Y1052364D01*
X570747D01*
Y1052427D01*
Y1052489D01*
X570810D01*
Y1052552D01*
X570872D01*
Y1052614D01*
Y1052677D01*
Y1052739D01*
Y1052802D01*
X570935D01*
Y1052864D01*
Y1052927D01*
Y1052989D01*
Y1053052D01*
Y1053114D01*
Y1053177D01*
Y1053240D01*
Y1053302D01*
X570997D01*
Y1053365D01*
Y1053427D01*
Y1053490D01*
Y1053552D01*
Y1053615D01*
Y1053677D01*
Y1053740D01*
Y1053802D01*
Y1053865D01*
Y1053927D01*
X570935D01*
Y1053990D01*
Y1054052D01*
Y1054115D01*
Y1054177D01*
Y1054240D01*
Y1054302D01*
Y1054365D01*
Y1054427D01*
X570872D01*
Y1054490D01*
Y1054553D01*
Y1054615D01*
X570810D01*
Y1054678D01*
Y1054740D01*
X570747D01*
Y1054803D01*
X570685D01*
Y1054865D01*
X570622D01*
Y1054928D01*
X570560D01*
Y1054990D01*
X570435D01*
Y1055053D01*
X570185D01*
Y1055115D01*
D02*
G37*
G36*
X562557Y1053177D02*
X561056D01*
Y1053114D01*
X560931D01*
Y1053052D01*
X560744D01*
Y1052989D01*
Y1052927D01*
X560681D01*
Y1052864D01*
X560619D01*
Y1052802D01*
Y1052739D01*
X560556D01*
Y1052677D01*
Y1052614D01*
Y1052552D01*
X560619D01*
Y1052489D01*
Y1052427D01*
Y1052364D01*
X560681D01*
Y1052302D01*
Y1052239D01*
X560806D01*
Y1052177D01*
X560869D01*
Y1052114D01*
X561056D01*
Y1052052D01*
X562119D01*
Y1052114D01*
X562307D01*
Y1052177D01*
X562369D01*
Y1052239D01*
X562432D01*
Y1052302D01*
Y1052364D01*
X562494D01*
Y1052427D01*
Y1052489D01*
Y1052552D01*
X562557D01*
Y1052614D01*
Y1052677D01*
Y1052739D01*
Y1052802D01*
Y1052864D01*
Y1052927D01*
Y1052989D01*
Y1053052D01*
Y1053114D01*
Y1053177D01*
D02*
G37*
G36*
X582626D02*
X581126D01*
Y1053114D01*
X580938D01*
Y1053052D01*
X580813D01*
Y1052989D01*
X580751D01*
Y1052927D01*
X580688D01*
Y1052864D01*
Y1052802D01*
X580626D01*
Y1052739D01*
Y1052677D01*
Y1052614D01*
Y1052552D01*
Y1052489D01*
Y1052427D01*
X580688D01*
Y1052364D01*
Y1052302D01*
X580751D01*
Y1052239D01*
X580813D01*
Y1052177D01*
X580938D01*
Y1052114D01*
X581063D01*
Y1052052D01*
X582189D01*
Y1052114D01*
X582314D01*
Y1052177D01*
X582439D01*
Y1052239D01*
X582501D01*
Y1052302D01*
Y1052364D01*
X582564D01*
Y1052427D01*
Y1052489D01*
Y1052552D01*
Y1052614D01*
X582626D01*
Y1052677D01*
Y1052739D01*
Y1052802D01*
Y1052864D01*
Y1052927D01*
Y1052989D01*
Y1053052D01*
Y1053114D01*
Y1053177D01*
D02*
G37*
G36*
X578250Y1062930D02*
X577750D01*
Y1062868D01*
X577562D01*
Y1062805D01*
X577437D01*
Y1062743D01*
X577374D01*
Y1062680D01*
X577312D01*
Y1062618D01*
X577249D01*
Y1062555D01*
X577187D01*
Y1062493D01*
Y1062430D01*
X577124D01*
Y1062368D01*
Y1062305D01*
X577062D01*
Y1062243D01*
Y1062180D01*
Y1062118D01*
Y1062055D01*
Y1061992D01*
X576999D01*
Y1061930D01*
Y1061868D01*
Y1061805D01*
Y1061742D01*
Y1061680D01*
Y1061617D01*
Y1061555D01*
Y1061492D01*
Y1061430D01*
Y1061367D01*
Y1061305D01*
Y1061242D01*
Y1061180D01*
Y1061117D01*
Y1061055D01*
Y1060992D01*
Y1060930D01*
Y1060867D01*
X577062D01*
Y1060805D01*
Y1060742D01*
Y1060680D01*
Y1060617D01*
Y1060555D01*
X577124D01*
Y1060492D01*
Y1060430D01*
X577187D01*
Y1060367D01*
Y1060304D01*
X577249D01*
Y1060242D01*
X577312D01*
Y1060179D01*
X577374D01*
Y1060117D01*
X577437D01*
Y1060054D01*
X577562D01*
Y1059992D01*
X577750D01*
Y1059929D01*
X578312D01*
Y1059992D01*
X578437D01*
Y1060054D01*
X578562D01*
Y1060117D01*
X578688D01*
Y1060179D01*
X578750D01*
Y1060242D01*
X578812D01*
Y1060304D01*
Y1060367D01*
X578875D01*
Y1060430D01*
Y1060492D01*
X578938D01*
Y1060555D01*
Y1060617D01*
Y1060680D01*
X579000D01*
Y1060742D01*
Y1060805D01*
Y1060867D01*
Y1060930D01*
Y1060992D01*
Y1061055D01*
Y1061117D01*
Y1061180D01*
Y1061242D01*
Y1061305D01*
Y1061367D01*
Y1061430D01*
Y1061492D01*
Y1061555D01*
Y1061617D01*
Y1061680D01*
Y1061742D01*
Y1061805D01*
Y1061868D01*
Y1061930D01*
Y1061992D01*
Y1062055D01*
Y1062118D01*
Y1062180D01*
X578938D01*
Y1062243D01*
Y1062305D01*
Y1062368D01*
X578875D01*
Y1062430D01*
Y1062493D01*
X578812D01*
Y1062555D01*
Y1062618D01*
X578750D01*
Y1062680D01*
X578688D01*
Y1062743D01*
X578562D01*
Y1062805D01*
X578437D01*
Y1062868D01*
X578250D01*
Y1062930D01*
D02*
G37*
G36*
X561869Y1062993D02*
X561369D01*
Y1062930D01*
X561181D01*
Y1062868D01*
X561056D01*
Y1062805D01*
X560994D01*
Y1062743D01*
X560931D01*
Y1062680D01*
X560869D01*
Y1062618D01*
X560806D01*
Y1062555D01*
X560744D01*
Y1062493D01*
Y1062430D01*
X560681D01*
Y1062368D01*
Y1062305D01*
Y1062243D01*
X560619D01*
Y1062180D01*
Y1062118D01*
Y1062055D01*
Y1061992D01*
Y1061930D01*
X562619D01*
Y1061992D01*
Y1062055D01*
Y1062118D01*
Y1062180D01*
X562557D01*
Y1062243D01*
Y1062305D01*
Y1062368D01*
X562494D01*
Y1062430D01*
Y1062493D01*
X562432D01*
Y1062555D01*
Y1062618D01*
X562369D01*
Y1062680D01*
X562307D01*
Y1062743D01*
X562244D01*
Y1062805D01*
X562182D01*
Y1062868D01*
X562057D01*
Y1062930D01*
X561869D01*
Y1062993D01*
D02*
G37*
G36*
X595756D02*
X595256D01*
Y1062930D01*
X595068D01*
Y1062868D01*
X595006D01*
Y1062805D01*
X594880D01*
Y1062743D01*
X594818D01*
Y1062680D01*
X594756D01*
Y1062618D01*
Y1062555D01*
X594693D01*
Y1062493D01*
X594630D01*
Y1062430D01*
Y1062368D01*
X594568D01*
Y1062305D01*
Y1062243D01*
Y1062180D01*
Y1062118D01*
X594505D01*
Y1062055D01*
Y1061992D01*
Y1061930D01*
X596506D01*
Y1061992D01*
Y1062055D01*
Y1062118D01*
Y1062180D01*
Y1062243D01*
X596444D01*
Y1062305D01*
Y1062368D01*
Y1062430D01*
X596381D01*
Y1062493D01*
Y1062555D01*
X596319D01*
Y1062618D01*
X596256D01*
Y1062680D01*
X596194D01*
Y1062743D01*
X596131D01*
Y1062805D01*
X596068D01*
Y1062868D01*
X595943D01*
Y1062930D01*
X595756D01*
Y1062993D01*
D02*
G37*
G36*
X590317Y1055178D02*
X590004D01*
Y1055115D01*
X589754D01*
Y1055053D01*
X589629D01*
Y1054990D01*
X589566D01*
Y1054928D01*
X589441D01*
Y1054865D01*
X589379D01*
Y1054803D01*
Y1054740D01*
X589316D01*
Y1054678D01*
X589254D01*
Y1054615D01*
Y1054553D01*
X589191D01*
Y1054490D01*
Y1054427D01*
Y1054365D01*
Y1054302D01*
X589129D01*
Y1054240D01*
Y1054177D01*
Y1054115D01*
Y1054052D01*
X591129D01*
Y1054115D01*
Y1054177D01*
Y1054240D01*
Y1054302D01*
Y1054365D01*
X591067D01*
Y1054427D01*
Y1054490D01*
Y1054553D01*
X591004D01*
Y1054615D01*
Y1054678D01*
X590942D01*
Y1054740D01*
Y1054803D01*
X590879D01*
Y1054865D01*
X590817D01*
Y1054928D01*
X590754D01*
Y1054990D01*
X590629D01*
Y1055053D01*
X590504D01*
Y1055115D01*
X590317D01*
Y1055178D01*
D02*
G37*
G36*
X552303Y1062930D02*
X551803D01*
Y1062868D01*
X551616D01*
Y1062805D01*
X551491D01*
Y1062743D01*
X551366D01*
Y1062680D01*
X551303D01*
Y1062618D01*
X551241D01*
Y1062555D01*
Y1062493D01*
X551178D01*
Y1062430D01*
Y1062368D01*
X551115D01*
Y1062305D01*
Y1062243D01*
Y1062180D01*
X551053D01*
Y1062118D01*
Y1062055D01*
Y1061992D01*
Y1061930D01*
Y1061868D01*
Y1061805D01*
Y1061742D01*
Y1061680D01*
Y1061617D01*
Y1061555D01*
Y1061492D01*
X550990D01*
Y1061430D01*
Y1061367D01*
X551053D01*
Y1061305D01*
Y1061242D01*
Y1061180D01*
Y1061117D01*
Y1061055D01*
Y1060992D01*
Y1060930D01*
Y1060867D01*
Y1060805D01*
Y1060742D01*
Y1060680D01*
X551115D01*
Y1060617D01*
Y1060555D01*
Y1060492D01*
X551178D01*
Y1060430D01*
Y1060367D01*
X551241D01*
Y1060304D01*
Y1060242D01*
X551303D01*
Y1060179D01*
X551366D01*
Y1060117D01*
X551491D01*
Y1060054D01*
X551553D01*
Y1059992D01*
X551741D01*
Y1059929D01*
X552303D01*
Y1059992D01*
X552491D01*
Y1060054D01*
X552616D01*
Y1060117D01*
X552678D01*
Y1060179D01*
X552741D01*
Y1060242D01*
X552804D01*
Y1060304D01*
X552866D01*
Y1060367D01*
Y1060430D01*
X552929D01*
Y1060492D01*
Y1060555D01*
X552991D01*
Y1060617D01*
Y1060680D01*
Y1060742D01*
Y1060805D01*
Y1060867D01*
X553054D01*
Y1060930D01*
Y1060992D01*
Y1061055D01*
Y1061117D01*
Y1061180D01*
Y1061242D01*
Y1061305D01*
Y1061367D01*
Y1061430D01*
Y1061492D01*
Y1061555D01*
Y1061617D01*
Y1061680D01*
Y1061742D01*
Y1061805D01*
Y1061868D01*
Y1061930D01*
Y1061992D01*
X552991D01*
Y1062055D01*
Y1062118D01*
Y1062180D01*
Y1062243D01*
Y1062305D01*
X552929D01*
Y1062368D01*
Y1062430D01*
X552866D01*
Y1062493D01*
Y1062555D01*
X552804D01*
Y1062618D01*
X552741D01*
Y1062680D01*
X552678D01*
Y1062743D01*
X552553D01*
Y1062805D01*
X552491D01*
Y1062868D01*
X552303D01*
Y1062930D01*
D02*
G37*
G36*
X557180D02*
X556617D01*
Y1062868D01*
X556492D01*
Y1062805D01*
X556367D01*
Y1062743D01*
X556305D01*
Y1062680D01*
X556242D01*
Y1062618D01*
X556180D01*
Y1062555D01*
X556117D01*
Y1062493D01*
Y1062430D01*
Y1062368D01*
X556055D01*
Y1062305D01*
Y1062243D01*
Y1062180D01*
X555992D01*
Y1062118D01*
Y1062055D01*
Y1061992D01*
Y1061930D01*
Y1061868D01*
Y1061805D01*
Y1061742D01*
Y1061680D01*
Y1061617D01*
Y1061555D01*
Y1061492D01*
Y1061430D01*
Y1061367D01*
Y1061305D01*
Y1061242D01*
Y1061180D01*
Y1061117D01*
Y1061055D01*
Y1060992D01*
Y1060930D01*
Y1060867D01*
Y1060805D01*
Y1060742D01*
Y1060680D01*
X556055D01*
Y1060617D01*
Y1060555D01*
Y1060492D01*
Y1060430D01*
X556117D01*
Y1060367D01*
Y1060304D01*
X556180D01*
Y1060242D01*
X556242D01*
Y1060179D01*
X556305D01*
Y1060117D01*
X556367D01*
Y1060054D01*
X556492D01*
Y1059992D01*
X556617D01*
Y1059929D01*
X557243D01*
Y1059992D01*
X557368D01*
Y1060054D01*
X557493D01*
Y1060117D01*
X557555D01*
Y1060179D01*
X557618D01*
Y1060242D01*
X557680D01*
Y1060304D01*
Y1060367D01*
X557743D01*
Y1060430D01*
Y1060492D01*
Y1060555D01*
X557805D01*
Y1060617D01*
Y1060680D01*
Y1060742D01*
Y1060805D01*
Y1060867D01*
X557868D01*
Y1060930D01*
Y1060992D01*
Y1061055D01*
Y1061117D01*
Y1061180D01*
Y1061242D01*
Y1061305D01*
Y1061367D01*
Y1061430D01*
Y1061492D01*
Y1061555D01*
Y1061617D01*
Y1061680D01*
Y1061742D01*
Y1061805D01*
Y1061868D01*
Y1061930D01*
Y1061992D01*
X557805D01*
Y1062055D01*
Y1062118D01*
Y1062180D01*
Y1062243D01*
Y1062305D01*
X557743D01*
Y1062368D01*
Y1062430D01*
Y1062493D01*
X557680D01*
Y1062555D01*
X557618D01*
Y1062618D01*
Y1062680D01*
X557555D01*
Y1062743D01*
X557493D01*
Y1062805D01*
X557368D01*
Y1062868D01*
X557180D01*
Y1062930D01*
D02*
G37*
%LPD*%
D18*
X471297Y1162453D02*
X690047D01*
X725000Y1127500D01*
X738750Y1043000D02*
Y1113750D01*
X700000Y1152500D02*
X738750Y1113750D01*
X471250Y1162453D02*
X606250D01*
Y1133750D02*
Y1162453D01*
X471250Y1162500D02*
Y1191250D01*
X452500Y1167500D02*
Y1185000D01*
X432500Y1167500D02*
Y1185000D01*
X487420Y1129750D02*
Y1145760D01*
X432500Y1127500D02*
Y1145000D01*
X452500Y1128990D02*
Y1145000D01*
X470000Y1128990D02*
Y1145000D01*
X373750Y1127500D02*
Y1145000D01*
X393750Y1127500D02*
Y1145000D01*
X412500Y1127500D02*
Y1145000D01*
X373750Y1167500D02*
Y1185000D01*
X393750Y1167500D02*
Y1185000D01*
X412500Y1167500D02*
Y1185000D01*
X497500Y1117500D02*
X501250Y1121250D01*
X493750D02*
X497500Y1117500D01*
X478750D02*
X482500Y1121250D01*
X475000D02*
X478750Y1117500D01*
X456250Y1121250D02*
X460000Y1117500D01*
X463750Y1121250D01*
X564010Y1108330D02*
X589410D01*
Y1118490D01*
X623170Y1130550D02*
X643490D01*
X621900D02*
X623170D01*
X621900Y1122930D02*
Y1130550D01*
X307500Y1191250D02*
X471250D01*
X307500Y1110500D02*
Y1191250D01*
Y1110500D02*
X377000D01*
X452500D01*
Y1162500D01*
X471250D01*
X606250Y1125000D02*
Y1138750D01*
Y1105000D02*
Y1125000D01*
X505000Y1105000D02*
X606250D01*
X472880Y1096250D02*
Y1110490D01*
X452500D02*
X472880D01*
X452500D02*
Y1123750D01*
X606250Y1076250D02*
Y1105000D01*
Y1043000D02*
Y1076250D01*
Y1043000D02*
X738750D01*
X471250Y1162453D02*
Y1177500D01*
X472880Y1096250D02*
X496250D01*
X505000Y1105000D01*
X478500Y923000D02*
X738500D01*
Y1043000D01*
X478500D02*
X738500D01*
X478500Y923000D02*
Y1043000D01*
X478580Y800490D02*
Y920490D01*
X738580D01*
Y800490D02*
Y920490D01*
X478580Y800490D02*
X738580D01*
X481000Y1183496D02*
Y1172000D01*
X486748D01*
X488664Y1173916D01*
Y1181580D01*
X486748Y1183496D01*
X481000D01*
X494412Y1172000D02*
X498244D01*
X500160Y1173916D01*
Y1177748D01*
X498244Y1179664D01*
X494412D01*
X492496Y1177748D01*
Y1173916D01*
X494412Y1172000D01*
X503993D02*
Y1179664D01*
X505909D01*
X507825Y1177748D01*
Y1172000D01*
Y1177748D01*
X509741Y1179664D01*
X511657Y1177748D01*
Y1172000D01*
X517405D02*
X521237D01*
X523153Y1173916D01*
Y1177748D01*
X521237Y1179664D01*
X517405D01*
X515489Y1177748D01*
Y1173916D01*
X517405Y1172000D01*
X526985Y1179664D02*
Y1172000D01*
Y1175832D01*
X528901Y1177748D01*
X530817Y1179664D01*
X532733D01*
X538481Y1172000D02*
X542314D01*
X540397D01*
Y1179664D01*
X538481D01*
X548062Y1172000D02*
Y1183496D01*
Y1175832D02*
X553810Y1179664D01*
X548062Y1175832D02*
X553810Y1172000D01*
X559558D02*
X565306D01*
X567222Y1173916D01*
X565306Y1175832D01*
X561474D01*
X559558Y1177748D01*
X561474Y1179664D01*
X567222D01*
X590215Y1181580D02*
X588299Y1183496D01*
X584467D01*
X582551Y1181580D01*
Y1179664D01*
X584467Y1177748D01*
X588299D01*
X590215Y1175832D01*
Y1173916D01*
X588299Y1172000D01*
X584467D01*
X582551Y1173916D01*
X594047Y1179664D02*
Y1173916D01*
X595963Y1172000D01*
X597879Y1173916D01*
X599795Y1172000D01*
X601711Y1173916D01*
Y1179664D01*
X605543Y1172000D02*
X609375D01*
X607459D01*
Y1179664D01*
X605543D01*
X617039Y1181580D02*
Y1179664D01*
X615123D01*
X618955D01*
X617039D01*
Y1173916D01*
X618955Y1172000D01*
X632368Y1179664D02*
X626620D01*
X624704Y1177748D01*
Y1173916D01*
X626620Y1172000D01*
X632368D01*
X636200Y1183496D02*
Y1172000D01*
Y1177748D01*
X638116Y1179664D01*
X641948D01*
X643864Y1177748D01*
Y1172000D01*
X653444D02*
X649612D01*
X647696Y1173916D01*
Y1177748D01*
X649612Y1179664D01*
X653444D01*
X655360Y1177748D01*
Y1175832D01*
X647696D01*
X659193Y1179664D02*
Y1172000D01*
Y1175832D01*
X661109Y1177748D01*
X663025Y1179664D01*
X664941D01*
X323077Y767487D02*
X321078Y769486D01*
X317079D01*
X315080Y767487D01*
Y759489D01*
X317079Y757490D01*
X321078D01*
X323077Y759489D01*
X333074Y769486D02*
X329075D01*
X327076Y767487D01*
Y759489D01*
X329075Y757490D01*
X333074D01*
X335074Y759489D01*
Y767487D01*
X333074Y769486D01*
X339072Y757490D02*
Y769486D01*
X347070Y757490D01*
Y769486D01*
X351068Y757490D02*
X355067D01*
X353068D01*
Y769486D01*
X351068Y767487D01*
X441039D02*
X439040Y769486D01*
X435041D01*
X433042Y767487D01*
Y759489D01*
X435041Y757490D01*
X439040D01*
X441039Y759489D01*
X451036Y769486D02*
X447037D01*
X445038Y767487D01*
Y759489D01*
X447037Y757490D01*
X451036D01*
X453035Y759489D01*
Y767487D01*
X451036Y769486D01*
X457034Y757490D02*
Y769486D01*
X465031Y757490D01*
Y769486D01*
X477028Y757490D02*
X469030D01*
X477028Y765487D01*
Y767487D01*
X475028Y769486D01*
X471030D01*
X469030Y767487D01*
X495080Y771986D02*
Y759990D01*
X501078D01*
X503077Y761989D01*
Y763989D01*
X501078Y765988D01*
X495080D01*
X501078D01*
X503077Y767987D01*
Y769987D01*
X501078Y771986D01*
X495080D01*
X507076Y759990D02*
X511075D01*
X509075D01*
Y771986D01*
X507076Y769987D01*
X529069Y771986D02*
Y759990D01*
X535067D01*
X537066Y761989D01*
Y763989D01*
X535067Y765988D01*
X529069D01*
X535067D01*
X537066Y767987D01*
Y769987D01*
X535067Y771986D01*
X529069D01*
X549062Y759990D02*
X541065D01*
X549062Y767987D01*
Y769987D01*
X547063Y771986D01*
X543064D01*
X541065Y769987D01*
X565057Y771986D02*
Y759990D01*
X571055D01*
X573055Y761989D01*
Y763989D01*
X571055Y765988D01*
X565057D01*
X571055D01*
X573055Y767987D01*
Y769987D01*
X571055Y771986D01*
X565057D01*
X577053Y769987D02*
X579053Y771986D01*
X583051D01*
X585051Y769987D01*
Y767987D01*
X583051Y765988D01*
X581052D01*
X583051D01*
X585051Y763989D01*
Y761989D01*
X583051Y759990D01*
X579053D01*
X577053Y761989D01*
X601046Y771986D02*
Y759990D01*
X607044D01*
X609043Y761989D01*
Y763989D01*
X607044Y765988D01*
X601046D01*
X607044D01*
X609043Y767987D01*
Y769987D01*
X607044Y771986D01*
X601046D01*
X619040Y759990D02*
Y771986D01*
X613042Y765988D01*
X621039D01*
X637034Y771986D02*
Y759990D01*
X643032D01*
X645031Y761989D01*
Y763989D01*
X643032Y765988D01*
X637034D01*
X643032D01*
X645031Y767987D01*
Y769987D01*
X643032Y771986D01*
X637034D01*
X657028D02*
X649030D01*
Y765988D01*
X653029Y767987D01*
X655028D01*
X657028Y765988D01*
Y761989D01*
X655028Y759990D01*
X651030D01*
X649030Y761989D01*
X673022Y771986D02*
Y759990D01*
X679020D01*
X681020Y761989D01*
Y763989D01*
X679020Y765988D01*
X673022D01*
X679020D01*
X681020Y767987D01*
Y769987D01*
X679020Y771986D01*
X673022D01*
X693016D02*
X689017Y769987D01*
X685018Y765988D01*
Y761989D01*
X687018Y759990D01*
X691016D01*
X693016Y761989D01*
Y763989D01*
X691016Y765988D01*
X685018D01*
X717008Y769987D02*
X715009Y771986D01*
X711010D01*
X709011Y769987D01*
Y761989D01*
X711010Y759990D01*
X715009D01*
X717008Y761989D01*
X727005Y771986D02*
X723006D01*
X721007Y769987D01*
Y761989D01*
X723006Y759990D01*
X727005D01*
X729004Y761989D01*
Y769987D01*
X727005Y771986D01*
X733003Y759990D02*
Y771986D01*
X737002Y767987D01*
X741000Y771986D01*
Y759990D01*
X495080Y794486D02*
Y782490D01*
X503077D01*
X507076D02*
X511075D01*
X509075D01*
Y794486D01*
X507076Y792487D01*
X529069Y794486D02*
Y782490D01*
X537066D01*
X549062D02*
X541065D01*
X549062Y790487D01*
Y792487D01*
X547063Y794486D01*
X543064D01*
X541065Y792487D01*
X565057Y794486D02*
Y782490D01*
X573055D01*
X577053Y792487D02*
X579053Y794486D01*
X583051D01*
X585051Y792487D01*
Y790487D01*
X583051Y788488D01*
X581052D01*
X583051D01*
X585051Y786489D01*
Y784489D01*
X583051Y782490D01*
X579053D01*
X577053Y784489D01*
X601046Y794486D02*
Y782490D01*
X609043D01*
X619040D02*
Y794486D01*
X613042Y788488D01*
X621039D01*
X637034Y794486D02*
Y782490D01*
X645031D01*
X657028Y794486D02*
X649030D01*
Y788488D01*
X653029Y790487D01*
X655028D01*
X657028Y788488D01*
Y784489D01*
X655028Y782490D01*
X651030D01*
X649030Y784489D01*
X673022Y794486D02*
Y782490D01*
X681020D01*
X693016Y794486D02*
X689017Y792487D01*
X685018Y788488D01*
Y784489D01*
X687018Y782490D01*
X691016D01*
X693016Y784489D01*
Y786489D01*
X691016Y788488D01*
X685018D01*
X717008Y792487D02*
X715009Y794486D01*
X711010D01*
X709011Y792487D01*
Y784489D01*
X711010Y782490D01*
X715009D01*
X717008Y784489D01*
X727005Y794486D02*
X723006D01*
X721007Y792487D01*
Y784489D01*
X723006Y782490D01*
X727005D01*
X729004Y784489D01*
Y792487D01*
X727005Y794486D01*
X733003Y782490D02*
Y794486D01*
X737002Y790487D01*
X741000Y794486D01*
Y782490D01*
D30*
X455080Y981090D02*
G03*
X455080Y981090I-1000J0D01*
G01*
Y811090D02*
G03*
X455080Y811090I-1000J0D01*
G01*
X324400Y1145500D02*
G03*
X324400Y1145500I-1000J0D01*
G01*
Y1185500D02*
G03*
X324400Y1185500I-1000J0D01*
G01*
X317280Y1110490D02*
X472880D01*
Y944490D02*
Y1110490D01*
X317280Y944490D02*
X472880D01*
X317280D02*
Y1110490D01*
Y940490D02*
X472880D01*
Y774490D02*
Y940490D01*
X317280Y774490D02*
X472880D01*
X317280D02*
Y940490D01*
D31*
X438080Y1175290D02*
Y1177490D01*
X447080Y1175290D02*
Y1177490D01*
X458080Y1175290D02*
Y1177490D01*
X467080Y1175290D02*
Y1177490D01*
X387000Y1175150D02*
Y1177350D01*
X378000Y1175150D02*
Y1177350D01*
X618900Y1138000D02*
X621100D01*
X618900Y1147000D02*
X621100D01*
X447080Y1135690D02*
Y1137890D01*
X438080Y1135690D02*
Y1137890D01*
X427080Y1135690D02*
Y1137890D01*
X418080Y1135690D02*
Y1137890D01*
X407080Y1135690D02*
Y1137890D01*
X398080Y1135690D02*
Y1137890D01*
X488900Y1113250D02*
X491100D01*
X488900Y1104250D02*
X491100D01*
X610500Y1098900D02*
Y1101100D01*
X619500Y1098900D02*
Y1101100D01*
X485080Y1132990D02*
Y1145990D01*
Y1128990D02*
Y1132990D01*
X472580Y1128990D02*
Y1132990D01*
Y1145990D01*
Y1132990D02*
X485080D01*
X467500Y1133000D02*
Y1146000D01*
Y1129000D02*
Y1133000D01*
X455000Y1129000D02*
Y1133000D01*
Y1146000D01*
Y1133000D02*
X467500D01*
X344200Y1149500D02*
X350800D01*
X355500Y1131650D02*
Y1138350D01*
X344200Y1120500D02*
X350800D01*
X502500Y1133000D02*
Y1146000D01*
Y1129000D02*
Y1133000D01*
X490000Y1129000D02*
Y1133000D01*
Y1146000D01*
Y1133000D02*
X502500D01*
X398000Y1175150D02*
Y1177350D01*
X407000Y1175150D02*
Y1177350D01*
X418080Y1175290D02*
Y1177490D01*
X427080Y1175290D02*
Y1177490D01*
X344200Y1189500D02*
X350800D01*
X355500Y1171650D02*
Y1178350D01*
X344200Y1160500D02*
X350800D01*
X378080Y1136390D02*
Y1138590D01*
X387080Y1136390D02*
Y1138590D01*
D32*
X673000Y1179747D02*
Y1174416D01*
X675666Y1171750D01*
X678332Y1174416D01*
Y1179747D01*
X680997Y1171750D02*
X683663D01*
X682330D01*
Y1179747D01*
X680997Y1178415D01*
X687662Y1171750D02*
Y1173083D01*
X688995D01*
Y1171750D01*
X687662D01*
X694326Y1178415D02*
X695659Y1179747D01*
X698325D01*
X699658Y1178415D01*
Y1173083D01*
X698325Y1171750D01*
X695659D01*
X694326Y1173083D01*
Y1178415D01*
X322082Y1122500D02*
X312085D01*
Y1127498D01*
X313752Y1129165D01*
X317084D01*
X318750Y1127498D01*
Y1122500D01*
Y1134163D02*
Y1137495D01*
X317084Y1139161D01*
X313752D01*
X312085Y1137495D01*
Y1134163D01*
X313752Y1132497D01*
X317084D01*
X318750Y1134163D01*
X312085Y1142494D02*
X317084D01*
X318750Y1144160D01*
X317084Y1145826D01*
X318750Y1147492D01*
X317084Y1149158D01*
X312085D01*
X318750Y1157489D02*
Y1154156D01*
X317084Y1152490D01*
X313752D01*
X312085Y1154156D01*
Y1157489D01*
X313752Y1159155D01*
X315418D01*
Y1152490D01*
X312085Y1162487D02*
X318750D01*
X315418D01*
X313752Y1164153D01*
X312085Y1165819D01*
Y1167486D01*
X601250Y1116250D02*
X593253D01*
Y1120249D01*
X594585Y1121582D01*
X597251D01*
X598584Y1120249D01*
Y1116250D01*
Y1118916D02*
X601250Y1121582D01*
X594585Y1129579D02*
X593253Y1128246D01*
Y1125580D01*
X594585Y1124247D01*
X595918D01*
X597251Y1125580D01*
Y1128246D01*
X598584Y1129579D01*
X599917D01*
X601250Y1128246D01*
Y1125580D01*
X599917Y1124247D01*
X601250Y1136244D02*
X593253D01*
X597251Y1132245D01*
Y1137576D01*
X594585Y1140242D02*
X593253Y1141575D01*
Y1144241D01*
X594585Y1145574D01*
X595918D01*
X597251Y1144241D01*
X598584Y1145574D01*
X599917D01*
X601250Y1144241D01*
Y1141575D01*
X599917Y1140242D01*
X598584D01*
X597251Y1141575D01*
X595918Y1140242D01*
X594585D01*
X597251Y1141575D02*
Y1144241D01*
X593253Y1153571D02*
Y1148240D01*
X597251D01*
X595918Y1150906D01*
Y1152238D01*
X597251Y1153571D01*
X599917D01*
X601250Y1152238D01*
Y1149573D01*
X599917Y1148240D01*
X681250Y1047500D02*
Y1055497D01*
X683916Y1052832D01*
X686582Y1055497D01*
Y1047500D01*
X694579Y1054165D02*
X693246Y1055497D01*
X690580D01*
X689247Y1054165D01*
Y1048833D01*
X690580Y1047500D01*
X693246D01*
X694579Y1048833D01*
X697245Y1055497D02*
Y1048833D01*
X698578Y1047500D01*
X701244D01*
X702576Y1048833D01*
Y1055497D01*
M02*
