M48
;Layer_Color=6321
;FILE_FORMAT=2:5
INCH,LZ
;TYPE=PLATED
T1F00S00C0.01378
T2F00S00C0.02559
T3F00S00C0.03543
T4F00S00C0.04724
T5F00S00C0.09843
;TYPE=NON_PLATED
T6F00S00C0.12480
%
T01
X015748Y0301177
X0192323Y0298721
X0199606Y0308071
X0220866Y0298721
X0234646Y0308268
X0247047Y0298721
X0263583Y0307579
X027559Y0298721
X0123228Y03
X0130905Y0322835
X0120079Y0343996
X0130905Y0364173
Y0396654
X0152559Y0397244
X0143701Y0430315
X0130413Y0430118
X0130709Y0439961
X0152559
X0144488Y0455709
X0127461Y0462598
X0120079Y0411024
X016063Y0414961
X0170768Y0424705
X0183563Y0422736
X0190945Y0414961
X0196457Y0409842
X0205315Y0407087
X0221063Y0405905
X0225394Y0391732
X021191
X0198622
X0177165Y0396654
X0181398Y0377953
X0184587Y0360236
X0195669Y0359055
X0206299Y036811
X0222244Y0359055
Y0343996
X0236024
X0249803
X0264075Y0343504
X0277756Y0343898
X0289173Y033937
X0290945Y0319685
X0270472Y0316437
X0263583Y0323819
X0242126Y0319685
Y0313386
X0234646Y0324016
X0199606Y0323327
X0208465Y0343996
X0235236Y0364567
X0252953Y0375984
X0261221
X0265748Y036565
X0291339Y0367323
X0280807Y039124
X0267512
X026752Y0407087
X0260827
X0249016
X0250984Y0399606
X0274213Y0407087
X0288878Y0408465
X028937Y0415354
X0291339Y0425197
X0288386Y0430118
X0285433Y0434252
X0290846Y0452264
X0273622Y0447835
X0268209Y0455709
X0260151Y0453762
X0259842Y0449802
X0258071Y0442913
X0251476Y0451772
X0248031Y045374
X0242913Y0462205
X0238189Y0459449
X0228346Y0459646
X0209055Y0458268
X0197835Y0461122
X0188484Y046063
X0190976Y045472
X0196358Y0447342
X0191929Y0441929
X0183563Y0438484
X0177559Y0436614
X0173425Y0439961
X017815Y0455905
X016811Y0455709
X0160236
X0216535Y044685
X0242224Y0431598
X0267322Y0423228
X0195965Y0425641
X0196457Y0470079
X0178347Y0470472
X0218504Y0469685
X0234252
X0251969
X026811
X0286221Y0468898
X0154724Y0470472
X0137008Y0469685
T02
X0233032Y0391575
X023815
X024315
X024815
X025315
T03
X0158043Y0309287
X0168043
X0148043
X0138043
X0143043Y0319287
X0153043
X0148043Y0376217
X0138043
X0143043Y0386216
X0153043
X0163043
X0173043
X0168043Y0376217
X0158043
X0163043Y0319287
X0173043
T04
X0201575Y0333858
X0215354
X0229134
X0242913
X0256693
X0270472
X0284252
Y0353543
X0270472
X0256693
X0242913
X0229134
X0215354
X0201575
X0201575Y038189
X0215354
X0229134
X0242914
X0256693
X0270473
X0284252
Y0401575
X0270473
X0256693
X0242914
X0229134
X0215354
X0201575
T05
X0283465Y046063
T06
X0133043Y0344287
Y0411216
X0178043
Y0344287
M30
