M48
;Layer_Color=6321
;FILE_FORMAT=4:4
METRIC,LZ
;TYPE=PLATED
T1F00S00C0.3500
T2F00S00C0.9000
T3F00S00C1.2000
T4F00S00C2.5000
;TYPE=NON_PLATED
T5F00S00C3.1700
%
T01
X004Y0076499
X006275Y0075875
X007
X0031125Y0076
X003325Y0082
X0038875Y0082825
X003885Y0093575
X003325Y00925
X00305Y0087375
X003325Y010075
X0030375Y0104375
X0033125Y010925
X0032375Y01135
Y01175
X0037125Y01155
X003875Y011175
X004025Y0115625
X004225
X0044625
X0044375Y0112
X0046625Y0111375
X004875Y011225
X0049875Y0113625
X0048508Y0115499
X0047875Y0117
X005025Y0117125
X0053875Y011575
X0055Y01135
X0058Y011675
X0061375Y0116625
X0063Y011525
X0063875Y011475
X00659999Y01142498
X00660782Y01152556
X0068125Y011575
X00695Y011375
X006555Y01125
X00615005Y01097509
X00635Y010375
X006675
X0067875Y01075
X0074Y0108
X007325Y010925
X00725Y01103
X00735Y01055
X0073375Y010375
X0068875Y0097875
X00675Y0092875
X0074375Y009325
X007225Y009
X0068875Y0084625
X006175
X005675Y00855
X0055375Y0086875
X0054
X005275Y00855
X0053Y00935
X0049875Y0091625
X0047185Y00915
X004275Y0093575
X0040775
X00408Y0082825
X0042775
X0045Y010075
X0048375Y010525
X0046625Y0107375
X0043375Y0107875
X0049775Y01081128
X005225Y0102
X005475Y0096875
X0061625Y0097
X0073875Y0114875
X0068Y0119375
X00595Y011925
X004325Y01195
X004125
T02
X0040143Y0078559
X0042683
X0037603
X0035063
X0036333Y0081099
X0038873
X0037603Y0095559
X0035063
X0036333Y0098099
X0038873
X0041413
X0043953
X0042683Y0095559
X0040143
X0041413Y0081099
X0043953
T03
X0051258Y0084649
X0058258
X0065258
X0072258
X0068758Y0089849
X0061758
X0054758
X005825Y00969
X006525
X007225
X006875Y01021
X006175
X005475
X005125Y00969
T04
X0072Y0117
T05
X0033793Y0087449
Y0104449
X0045223
Y0087449
M30
